EXTCMING.sfdir
StartChar: u2A703
Encoding: 173827 173827 4
Width: 1024
Flags: W
LayerCount: 2
Back
Fore
SplineSet
368 435 m 1,0,-1
 200 435 l 2,1,2
 175 435 175 435 150 434 c 0,3,4
 135 433 135 433 123 432 c 2,5,-1
 111 432 l 1,6,-1
 104 431 l 1,7,-1
 85 475 l 1,8,9
 93 473 93 473 98 471 c 0,10,11
 108 471 108 471 135 467 c 0,12,13
 195 464 195 464 200 464 c 2,14,-1
 369 464 l 1,15,-1
 369 475 l 1,16,-1
 369 489 l 1,17,-1
 369 588 l 2,18,19
 369 614 369 614 368 625 c 0,20,21
 368 632 368 632 368 638 c 2,22,-1
 367 644 l 1,23,-1
 366 651 l 1,24,-1
 420 639 l 2,25,26
 446 634 446 634 454 629 c 256,27,28
 462 624 462 624 463 617 c 0,29,30
 464 611 464 611 457 604 c 0,31,32
 449 599 449 599 438 595 c 2,33,-1
 418 590 l 1,34,-1
 418 492 l 1,35,-1
 419 475 l 1,36,-1
 418 464 l 1,37,-1
 663 464 l 1,38,-1
 697 502 l 1,39,-1
 739 475 l 2,40,41
 749 470 749 470 753 463 c 0,42,43
 759 457 759 457 759 450 c 0,44,45
 759 444 759 444 753 437 c 0,46,47
 747 431 747 431 738 427 c 2,48,-1
 720 419 l 1,49,-1
 720 -50 l 2,50,51
 720 -62 720 -62 723 -69 c 0,52,53
 725 -74 725 -74 734 -80 c 0,54,55
 746 -84 746 -84 760 -84 c 0,56,57
 768 -84 768 -84 802 -86 c 0,58,59
 812 -86 812 -86 824.5 -86.5 c 128,-1,60
 837 -87 837 -87 839 -87 c 0,61,62
 864 -87 864 -87 880 -84 c 0,63,64
 898 -79 898 -79 904 -73 c 128,-1,65
 910 -67 910 -67 917 -45 c 0,66,67
 924 -13 924 -13 927 5 c 0,68,69
 929 16 929 16 931.5 36 c 128,-1,70
 934 56 934 56 935 66 c 2,71,-1
 939 105 l 1,72,-1
 958 105 l 1,73,-1
 954 -36 l 2,74,75
 954 -51 954 -51 956 -57 c 0,76,77
 959 -64 959 -64 966 -71 c 2,78,-1
 979 -83 l 2,79,80
 984 -88 984 -88 986 -95 c 0,81,82
 986 -101 986 -101 984 -104 c 0,83,84
 981 -112 981 -112 966 -119 c 0,85,86
 954 -123 954 -123 934 -128 c 0,87,88
 918 -130 918 -130 895 -131 c 0,89,90
 888 -131 888 -131 873 -131.5 c 128,-1,91
 858 -132 858 -132 850 -132 c 2,92,-1
 797 -132 l 1,93,-1
 756 -132 l 2,94,95
 745 -131 745 -131 725 -129 c 0,96,97
 714 -128 714 -128 703 -123 c 0,98,99
 693 -117 693 -117 688 -113 c 0,100,101
 681 -103 681 -103 678 -97 c 0,102,103
 674 -83 674 -83 674 -63 c 2,104,-1
 674 436 l 1,105,-1
 418 435 l 2,106,107
 418 433 418 433 417.5 429 c 128,-1,108
 417 425 417 425 417 424 c 2,109,-1
 416 396 l 2,110,111
 414 353 414 353 409 317 c 0,112,113
 405 279 405 279 400 256 c 2,114,-1
 398 245 l 1,115,-1
 453 221 l 2,116,117
 470 214 470 214 504 196 c 0,118,119
 530 184 530 184 552 169 c 0,120,121
 573 156 573 156 589 142 c 0,122,123
 604 129 604 129 611 116 c 0,124,125
 618 105 618 105 618 87 c 0,126,127
 618 70 618 70 603 63 c 0,128,129
 589 57 589 57 575 65 c 0,130,131
 564 71 564 71 546 94 c 0,132,133
 531 113 531 113 511 135 c 0,134,135
 492 156 492 156 469 173 c 0,136,137
 446 191 446 191 428 201 c 2,138,-1
 393 221 l 1,139,140
 387 195 387 195 378 171 c 0,141,142
 370 146 370 146 351 108 c 0,143,144
 332 69 332 69 308 36 c 0,145,146
 287 5 287 5 255 -27 c 0,147,148
 225 -57 225 -57 194 -80 c 0,149,150
 162 -106 162 -106 135 -123 c 0,151,152
 105 -142 105 -142 89 -151 c 2,153,-1
 67 -163 l 1,154,-1
 59 -144 l 1,155,156
 89 -126 89 -126 94 -122 c 0,157,158
 122 -100 122 -100 143 -82 c 0,159,160
 178 -52 178 -52 200 -28 c 0,161,162
 229 3 229 3 249 30 c 0,163,164
 280 72 280 72 292 95 c 0,165,166
 310 130 310 130 321 158 c 0,167,168
 334 189 334 189 343 231 c 0,169,170
 353 268 353 268 359 325 c 0,171,172
 365 369 365 369 367 420 c 2,173,-1
 368 435 l 1,0,-1
95 653 m 1,174,-1
 76 697 l 2,175,176
 78 696 78 696 83 695 c 128,-1,177
 88 694 88 694 90 694 c 128,-1,178
 92 694 92 694 103.5 692.5 c 128,-1,179
 115 691 115 691 125 689 c 0,180,181
 182 686 182 686 191 686 c 2,182,-1
 803 686 l 1,183,-1
 859 750 l 1,184,-1
 937 687 l 2,185,186
 946 681 946 681 947 674 c 0,187,188
 947 668 947 668 944 664 c 2,189,-1
 939 659 l 2,190,191
 937 657 937 657 931 657 c 2,192,-1
 191 657 l 2,193,194
 123 657 123 657 102 654 c 2,195,-1
 95 653 l 1,174,-1
EndSplineSet
EndChar
StartChar: u2A705
Encoding: 173829 173829 5
Width: 1024
Flags: W
LayerCount: 2
Back
Fore
SplineSet
229 208 m 1,0,-1
 498 208 l 1,1,-1
 532 246 l 1,2,-1
 574 219 l 2,3,4
 584 214 584 214 589 207 c 0,5,6
 594 202 594 202 594 195 c 128,-1,7
 594 188 594 188 589 182 c 128,-1,8
 584 176 584 176 573 172 c 2,9,-1
 555 164 l 1,10,-1
 555 32 l 1,11,-1
 581 16 l 2,12,13
 587 13 587 13 590 7 c 0,14,15
 592 3 592 3 592 -1 c 0,16,17
 592 -6 592 -6 589 -8 c 0,18,19
 586 -11 586 -11 584 -11 c 2,20,-1
 225 -11 l 1,21,-1
 224 -24 l 2,22,23
 224 -31 224 -31 218 -36 c 0,24,25
 212 -42 212 -42 203 -42 c 0,26,27
 193 -42 193 -42 186 -38 c 128,-1,28
 179 -34 179 -34 176 -29 c 0,29,30
 173 -20 173 -20 173 -18 c 0,31,32
 173 -8 173 -8 174 0 c 0,33,34
 174 1 174 1 174.5 10.5 c 128,-1,35
 175 20 175 20 176 30 c 0,36,37
 177 48 177 48 177 64 c 2,38,-1
 177 166 l 1,39,-1
 177 194 l 1,40,-1
 174 224 l 1,41,-1
 173 250 l 1,42,-1
 229 208 l 1,0,-1
225 17 m 1,43,-1
 508 17 l 1,44,-1
 508 179 l 1,45,-1
 225 179 l 1,46,-1
 225 17 l 1,43,-1
791 348 m 1,47,-1
 791 -89 l 2,48,49
 791 -110 791 -110 786 -122 c 0,50,51
 781 -135 781 -135 771 -145 c 0,52,53
 764 -152 764 -152 749 -162 c 0,54,55
 736 -169 736 -169 729 -170 c 2,56,-1
 713 -174 l 1,57,58
 710 -161 710 -161 709 -156 c 0,59,60
 708 -147 708 -147 700 -138 c 0,61,62
 696 -130 696 -130 681 -123 c 0,63,64
 665 -116 665 -116 640 -112 c 2,65,-1
 610 -106 l 1,66,-1
 614 -83 l 1,67,68
 637 -86 637 -86 651 -89 c 2,69,-1
 677 -93 l 2,70,71
 681 -93 681 -93 693.5 -94.5 c 128,-1,72
 706 -96 706 -96 712 -96 c 0,73,74
 729 -96 729 -96 735 -90 c 0,75,76
 742 -84 742 -84 742 -68 c 2,77,-1
 743 348 l 1,78,-1
 136 348 l 1,79,-1
 115 348 l 2,80,81
 98 348 98 348 87 347 c 0,82,83
 83 347 83 347 78 346.5 c 128,-1,84
 73 346 73 346 70 345.5 c 128,-1,85
 67 345 67 345 66 345 c 0,86,87
 59 345 59 345 53 344 c 2,88,-1
 41 342 l 1,89,-1
 21 385 l 1,90,91
 33 384 33 384 43 382 c 0,92,93
 47 382 47 382 65 380 c 2,94,-1
 90 378 l 2,95,96
 114 376 114 376 115 376 c 2,97,-1
 136 376 l 1,98,-1
 862 376 l 1,99,-1
 914 436 l 1,100,-1
 991 374 l 2,101,102
 995 371 995 371 997 366 c 0,103,104
 998 363 998 363 997 359 c 0,105,106
 997 356 997 356 992 351 c 0,107,108
 988 347 988 347 984 347 c 2,109,-1
 791 348 l 1,47,-1
568 699 m 1,110,111
 561 693 561 693 556 688 c 2,112,-1
 538 674 l 1,113,-1
 538 632 l 1,114,-1
 593 621 l 2,115,116
 624 616 624 616 643 611 c 0,117,118
 673 605 673 605 706 594 c 0,119,120
 756 581 756 581 773 575 c 0,121,122
 804 566 804 566 822 558 c 0,123,124
 843 552 843 552 868 538 c 0,125,126
 890 528 890 528 902 514 c 0,127,128
 916 502 916 502 917 487 c 0,129,130
 919 472 919 472 911 463 c 0,131,132
 903 452 903 452 891 453 c 0,133,134
 879 455 879 455 863 465 c 0,135,136
 857 469 857 469 847 476 c 128,-1,137
 837 483 837 483 834 485 c 2,138,-1
 802 508 l 2,139,140
 783 522 783 522 753 535 c 0,141,142
 723 551 723 551 695 562 c 0,143,144
 647 581 647 581 637 584 c 0,145,146
 609 594 609 594 560 608 c 2,147,-1
 538 614 l 1,148,-1
 538 529 l 2,149,150
 538 527 538 527 540 493 c 0,151,152
 541 469 541 469 543 450 c 0,153,154
 544 434 544 434 543 425 c 0,155,156
 543 420 543 420 540 415 c 0,157,158
 538 412 538 412 532 408 c 128,-1,159
 526 404 526 404 518 404 c 0,160,161
 509 404 509 404 504 405 c 0,162,163
 498 406 498 406 495 411 c 0,164,165
 492 417 492 417 492 420 c 2,166,-1
 491 641 l 1,167,-1
 463 622 l 2,168,169
 442 608 442 608 408 589 c 0,170,171
 371 568 371 568 326 547 c 0,172,173
 272 525 272 525 231 509 c 2,174,-1
 136 479 l 2,175,176
 84 466 84 466 65 462 c 2,177,-1
 37 456 l 1,178,-1
 34 476 l 1,179,-1
 62 484 l 2,180,181
 92 493 92 493 122 504 c 2,182,-1
 211 537 l 2,183,184
 250 552 250 552 294 573 c 0,185,186
 331 590 331 590 373 615 c 0,187,188
 414 638 414 638 439 657 c 0,189,190
 466 678 466 678 483 692 c 2,191,-1
 491 699 l 1,192,-1
 165 699 l 1,193,-1
 144 699 l 1,194,-1
 108 697 l 1,195,-1
 95 696 l 2,196,197
 90 696 90 696 82 695 c 2,198,-1
 70 693 l 1,199,-1
 50 736 l 1,200,201
 66 734 66 734 74 732 c 0,202,203
 80 732 80 732 94 730 c 0,204,205
 97 730 97 730 119 728 c 0,206,207
 125 728 125 728 133.5 727.5 c 128,-1,208
 142 727 142 727 144 727 c 2,209,-1
 165 727 l 1,210,-1
 853 727 l 1,211,-1
 907 784 l 1,212,-1
 972 728 l 2,213,214
 978 724 978 724 982 718 c 0,215,216
 985 713 985 713 983 708 c 0,217,218
 983 704 983 704 977 701 c 0,219,220
 973 699 973 699 970 699 c 2,221,-1
 568 699 l 1,110,111
EndSplineSet
EndChar
StartChar: u2A708
Encoding: 173832 173832 6
Width: 1024
Flags: W
LayerCount: 2
Back
Fore
SplineSet
203 433 m 1,0,-1
 329 432 l 1,1,-1
 363 471 l 1,2,-1
 404 443 l 2,3,4
 415 436 415 436 420 431 c 0,5,6
 424 427 424 427 424 419 c 0,7,8
 424 412 424 412 419 406 c 0,9,10
 413 400 413 400 404 396 c 2,11,-1
 386 388 l 1,12,-1
 383 323 l 1,13,-1
 377 243 l 1,14,-1
 370 141 l 1,15,-1
 364 76 l 2,16,17
 361 40 361 40 358 23 c 0,18,19
 355 -3 355 -3 353 -16 c 0,20,21
 350 -38 350 -38 342 -62 c 0,22,23
 338 -83 338 -83 325 -100 c 0,24,25
 316 -116 316 -116 303 -124 c 0,26,27
 289 -134 289 -134 282 -137 c 0,28,29
 273 -141 273 -141 263 -142 c 0,30,31
 251 -144 251 -144 246 -145 c 2,32,-1
 235 -146 l 1,33,-1
 235 -138 l 2,34,35
 235 -131 235 -131 233 -126 c 0,36,37
 231 -119 231 -119 227 -115 c 0,38,39
 226 -110 226 -110 218 -106 c 0,40,41
 214 -102 214 -102 202 -95 c 2,42,-1
 181 -83 l 1,43,-1
 163 -73 l 1,44,-1
 172 -57 l 1,45,-1
 200 -67 l 1,46,-1
 226 -76 l 2,47,48
 247 -84 247 -84 259 -85 c 0,49,50
 272 -85 272 -85 280 -79 c 0,51,52
 286 -73 286 -73 290 -64 c 0,53,54
 295 -52 295 -52 299 -38 c 0,55,56
 305 -20 305 -20 307 -6 c 0,57,58
 310 12 310 12 313 35 c 0,59,60
 314 40 314 40 316 60 c 128,-1,61
 318 80 318 80 320 93 c 0,62,63
 321 103 321 103 322.5 120.5 c 128,-1,64
 324 138 324 138 325 145 c 0,65,66
 327 163 327 163 328 203 c 0,67,68
 329 222 329 222 333 295 c 2,69,-1
 337 355 l 1,70,-1
 337 404 l 1,71,-1
 202 404 l 1,72,73
 202 400 202 400 201.5 395 c 128,-1,74
 201 390 201 390 201 389 c 2,75,-1
 198 355 l 2,76,77
 193 280 193 280 191 267 c 0,78,79
 191 250 191 250 185 215 c 0,80,81
 181 184 181 184 176 156 c 0,82,83
 171 127 171 127 163 103 c 0,84,85
 154 70 154 70 147 53 c 0,86,87
 142 37 142 37 124 0 c 0,88,89
 110 -28 110 -28 100 -48 c 0,90,91
 90 -66 90 -66 78 -86 c 0,92,93
 68 -101 68 -101 56 -117 c 2,94,-1
 37 -143 l 1,95,-1
 22 -130 l 1,96,-1
 36 -107 l 2,97,98
 38 -103 38 -103 43 -93.5 c 128,-1,99
 48 -84 48 -84 51 -79 c 2,100,-1
 70 -39 l 2,101,102
 87 0 87 0 89 5 c 0,103,104
 102 42 102 42 106 54 c 0,105,106
 116 90 116 90 120 108 c 2,107,-1
 130 158 l 2,108,109
 131 165 131 165 132.5 173 c 128,-1,110
 134 181 134 181 135.5 191.5 c 128,-1,111
 137 202 137 202 138 209 c 0,112,113
 141 238 141 238 144 260 c 0,114,115
 144 264 144 264 145.5 282.5 c 128,-1,116
 147 301 147 301 148 313 c 128,-1,117
 149 325 149 325 150.5 344 c 128,-1,118
 152 363 152 363 152 370 c 0,119,120
 153 395 153 395 155 461 c 2,121,-1
 157 543 l 1,122,-1
 158 662 l 1,123,-1
 139 662 l 2,124,125
 77 662 77 662 49 658 c 1,126,-1
 42 658 l 1,127,-1
 23 702 l 1,128,129
 33 700 33 700 38 698 c 2,130,-1
 68 694 l 2,131,132
 113 691 113 691 139 691 c 2,133,-1
 345 691 l 1,134,-1
 394 741 l 1,135,-1
 455 688 l 2,136,137
 462 682 462 682 462 680 c 0,138,139
 464 678 464 678 463 671 c 0,140,141
 462 667 462 667 457 664 c 0,142,143
 453 662 453 662 450 662 c 2,144,-1
 210 662 l 1,145,146
 210 570 210 570 207 523 c 2,147,-1
 204 460 l 1,148,-1
 203 446 l 1,149,-1
 203 433 l 1,0,-1
888 395 m 1,150,-1
 918 430 l 1,151,-1
 955 406 l 2,152,153
 963 401 963 401 969 394 c 0,154,155
 973 390 973 390 975 383 c 0,156,157
 976 379 976 379 971 372 c 0,158,159
 970 370 970 370 956 362 c 2,160,-1
 943 355 l 1,161,-1
 943 207 l 1,162,-1
 960 195 l 2,163,164
 971 187 971 187 970 178 c 0,165,166
 970 170 970 170 960 170 c 2,167,-1
 846 170 l 1,168,-1
 889 158 l 2,169,170
 898 156 898 156 901 153 c 0,171,172
 905 152 905 152 905 144 c 0,173,174
 907 138 907 138 900 134 c 0,175,176
 898 133 898 133 882 127 c 2,177,-1
 865 122 l 1,178,179
 859 100 859 100 856 91 c 0,180,181
 855 79 855 79 851 72 c 0,182,183
 851 70 851 70 842 41 c 2,184,-1
 835 18 l 1,185,-1
 861 1 l 2,186,187
 876 -8 876 -8 887 -17 c 0,188,189
 892 -20 892 -20 916 -40 c 0,190,191
 931 -51 931 -51 942 -63 c 0,192,193
 956 -77 956 -77 961 -86 c 0,194,195
 968 -96 968 -96 971 -112 c 0,196,197
 973 -126 973 -126 969 -135 c 0,198,199
 966 -142 966 -142 957 -148 c 0,200,201
 949 -153 949 -153 937 -147 c 0,202,203
 935 -146 935 -146 932 -143 c 128,-1,204
 929 -140 929 -140 927 -139 c 2,205,-1
 915 -116 l 2,206,207
 910 -105 910 -105 903 -91 c 0,208,209
 896 -79 896 -79 887 -68 c 0,210,211
 880 -58 880 -58 862 -38 c 0,212,213
 851 -24 851 -24 841 -16 c 2,214,-1
 825 -3 l 1,215,-1
 811 -29 l 1,216,-1
 798 -50 l 2,217,218
 794 -60 794 -60 783 -74 c 0,219,220
 780 -78 780 -78 773 -86.5 c 128,-1,221
 766 -95 766 -95 763 -99 c 0,222,223
 756 -108 756 -108 736 -130 c 0,224,225
 717 -151 717 -151 714 -153 c 2,226,-1
 693 -171 l 1,227,-1
 678 -157 l 1,228,-1
 698 -134 l 2,229,230
 711 -118 711 -118 718 -108 c 0,231,232
 736 -79 736 -79 741 -71 c 0,233,234
 745 -65 745 -65 763 -31 c 0,235,236
 775 -5 775 -5 781 10 c 2,237,-1
 796 56 l 2,238,239
 802 74 802 74 806 96 c 0,240,241
 809 106 809 106 816 148 c 2,242,-1
 820 170 l 1,243,-1
 792 170 l 1,244,-1
 792 154 l 2,245,246
 792 147 792 147 788 143 c 0,247,248
 787 139 787 139 779 136 c 0,249,250
 773 134 773 134 759 136 c 0,251,252
 754 136 754 136 748 138 c 0,253,254
 744 139 744 139 741 146 c 0,255,256
 739 154 739 154 740 162 c 0,257,258
 740 175 740 175 741 188 c 0,259,260
 742 208 742 208 744 230 c 2,261,-1
 746 260 l 1,262,-1
 746 426 l 1,263,-1
 796 395 l 1,264,-1
 888 395 l 1,150,-1
897 366 m 1,265,-1
 792 366 l 1,266,-1
 792 200 l 1,267,-1
 897 200 l 1,268,-1
 897 366 l 1,265,-1
615 395 m 1,269,-1
 645 430 l 1,270,-1
 681 406 l 2,271,272
 691 399 691 399 695 394 c 0,273,274
 700 390 700 390 702 383 c 0,275,276
 702 379 702 379 698 372 c 0,277,278
 697 370 697 370 683 362 c 2,279,-1
 669 355 l 1,280,-1
 669 207 l 1,281,-1
 686 192 l 2,282,283
 695 184 695 184 694 177 c 0,284,285
 694 170 694 170 686 170 c 2,286,-1
 557 170 l 1,287,-1
 602 159 l 2,288,289
 621 154 621 154 624 151 c 0,290,291
 628 150 628 150 628 142 c 0,292,293
 630 137 630 137 624 133 c 0,294,295
 623 133 623 133 616.5 130.5 c 128,-1,296
 610 128 610 128 605 126 c 2,297,-1
 589 121 l 1,298,299
 587 113 587 113 584 104 c 0,300,301
 584 100 584 100 575 73 c 2,302,-1
 570 58 l 1,303,304
 585 49 585 49 591 45 c 2,305,-1
 613 31 l 2,306,307
 625 24 625 24 636 14 c 0,308,309
 652 2 652 2 658 -7 c 0,310,311
 667 -16 667 -16 671 -25 c 0,312,313
 676 -34 676 -34 677 -50 c 0,314,315
 678 -63 678 -63 668 -72 c 0,316,317
 660 -80 660 -80 650 -77 c 0,318,319
 642 -74 642 -74 637 -69 c 2,320,-1
 627 -51 l 2,321,322
 623 -40 623 -40 610 -20 c 0,323,324
 596 2 596 2 593 5 c 0,325,326
 590 10 590 10 579 19 c 2,327,-1
 562 34 l 1,328,329
 558 20 558 20 553 10 c 2,330,-1
 541 -14 l 2,331,332
 535 -28 535 -28 520 -53 c 0,333,334
 504 -82 504 -82 494 -96 c 0,335,336
 489 -105 489 -105 465 -134 c 0,337,338
 448 -154 448 -154 441 -161 c 2,339,-1
 422 -180 l 1,340,-1
 407 -168 l 1,341,-1
 424 -146 l 1,342,-1
 443 -120 l 2,343,344
 451 -107 451 -107 465 -83 c 0,345,346
 476 -63 476 -63 488 -37 c 2,347,-1
 506 8 l 2,348,349
 514 28 514 28 521 57 c 0,350,351
 531 97 531 97 532 102 c 0,352,353
 538 131 538 131 540 145 c 2,354,-1
 544 170 l 1,355,-1
 518 170 l 1,356,-1
 518 154 l 2,357,358
 518 146 518 146 515 143 c 0,359,360
 514 140 514 140 505 136 c 0,361,362
 499 134 499 134 485 136 c 0,363,364
 482 136 482 136 474 138 c 0,365,366
 471 139 471 139 468 146 c 0,367,368
 465 157 465 157 466 162 c 2,369,-1
 468 188 l 2,370,371
 470 208 470 208 471 230 c 0,372,373
 472 245 472 245 472 260 c 2,374,-1
 472 426 l 1,375,-1
 523 395 l 1,376,-1
 615 395 l 1,269,-1
623 366 m 1,377,-1
 518 366 l 1,378,-1
 518 200 l 1,379,-1
 623 200 l 1,380,-1
 623 366 l 1,377,-1
543 527 m 1,381,382
 553 525 553 525 555 525 c 0,383,384
 558 525 558 525 581 522 c 0,385,386
 626 519 626 519 645 519 c 2,387,-1
 742 519 l 1,388,-1
 782 558 l 1,389,-1
 838 516 l 2,390,391
 841 514 841 514 845 508 c 0,392,393
 848 505 848 505 847 499 c 0,394,395
 847 495 847 495 842 492 c 0,396,397
 836 489 836 489 833 489 c 2,398,-1
 647 489 l 2,399,400
 582 489 582 489 572 488 c 0,401,402
 568 488 568 488 562 487 c 128,-1,403
 556 486 556 486 555 486 c 2,404,-1
 549 485 l 1,405,-1
 532 519 l 1,406,-1
 508 501 l 2,407,408
 507 500 507 500 495.5 492.5 c 128,-1,409
 484 485 484 485 474 479 c 0,410,411
 464 474 464 474 455 468 c 2,412,-1
 446 463 l 1,413,-1
 430 454 l 1,414,-1
 417 470 l 1,415,-1
 438 485 l 1,416,-1
 467 508 l 2,417,418
 494 531 494 531 503 539 c 0,419,420
 520 554 520 554 539 575 c 0,421,422
 546 582 546 582 574 615 c 0,423,424
 588 632 588 632 605 657 c 0,425,426
 622 683 622 683 634 705 c 0,427,428
 645 723 645 723 656 748 c 2,429,-1
 668 775 l 1,430,-1
 732 758 l 2,431,432
 747 755 747 755 751 751 c 0,433,434
 756 750 756 750 757 742 c 0,435,436
 757 737 757 737 751 733 c 0,437,438
 747 729 747 729 736 726 c 2,439,-1
 714 721 l 1,440,441
 719 715 719 715 727 704 c 128,-1,442
 735 693 735 693 737 691 c 0,443,444
 746 679 746 679 760 665 c 0,445,446
 778 649 778 649 793 634 c 2,447,-1
 831 603 l 1,448,-1
 870 578 l 2,449,450
 887 567 887 567 914 554 c 0,451,452
 936 544 936 544 956 536 c 2,453,-1
 989 525 l 1,454,-1
 1007 519 l 1,455,-1
 1006 503 l 1,456,-1
 983 503 l 2,457,458
 973 503 973 503 961 497 c 0,459,460
 950 492 950 492 946 486 c 2,461,-1
 938 472 l 1,462,-1
 911 486 l 2,463,464
 908 488 908 488 903.5 490.5 c 128,-1,465
 899 493 899 493 892 498 c 128,-1,466
 885 503 885 503 880 506 c 0,467,468
 853 525 853 525 844 532 c 2,469,-1
 816 556 l 1,470,-1
 790 582 l 1,471,-1
 763 613 l 1,472,-1
 736 646 l 1,473,-1
 715 677 l 1,474,-1
 696 706 l 1,475,476
 683 686 683 686 664 658 c 0,477,478
 655 644 655 644 635 619 c 0,479,480
 613 593 613 593 600 580 c 0,481,482
 588 568 588 568 564 546 c 2,483,-1
 543 527 l 1,381,382
EndSplineSet
EndChar
StartChar: u2A70C
Encoding: 173836 173836 7
Width: 1024
Flags: W
LayerCount: 2
Back
Fore
SplineSet
433 174 m 1,0,-1
 163 148 l 1,1,-1
 85 138 l 2,2,3
 82 138 82 138 79 138 c 2,4,-1
 76 137 l 1,5,-1
 67 135 l 1,6,-1
 46 173 l 1,7,-1
 97 173 l 2,8,9
 129 173 129 173 161 177 c 2,10,-1
 421 203 l 2,11,12
 420 205 420 205 418.5 208.5 c 128,-1,13
 417 212 417 212 417 213 c 128,-1,14
 417 214 417 214 408 236.5 c 128,-1,15
 399 259 399 259 390 284 c 2,16,-1
 377 320 l 1,17,-1
 448 321 l 2,18,19
 470 321 470 321 475 318 c 0,20,21
 483 316 483 316 486 310 c 0,22,23
 490 304 490 304 483 297 c 128,-1,24
 476 290 476 290 469 286 c 2,25,-1
 449 275 l 1,26,-1
 463 233 l 1,27,-1
 469 215 l 1,28,-1
 472 208 l 1,29,-1
 827 244 l 1,30,-1
 867 300 l 1,31,-1
 941 253 l 2,32,33
 948 248 948 248 950 244 c 256,34,35
 952 240 952 240 951 236 c 0,36,37
 951 232 951 232 948 228 c 0,38,39
 946 226 946 226 935 224 c 2,40,-1
 485 180 l 2,41,42
 486 178 486 178 488 173 c 128,-1,43
 490 168 490 168 491 166 c 0,44,45
 496 160 496 160 515 124 c 0,46,47
 535 88 535 88 547 72 c 0,48,49
 555 61 555 61 571 43 c 2,50,-1
 579 35 l 1,51,-1
 605 51 l 2,52,53
 629 66 629 66 669 95 c 0,54,55
 713 127 713 127 728 144 c 2,56,-1
 768 186 l 1,57,-1
 813 152 l 2,58,59
 830 142 830 142 834 134 c 0,60,61
 839 127 839 127 835 119 c 0,62,63
 831 110 831 110 815 113 c 2,64,-1
 786 118 l 1,65,66
 747 87 747 87 738 81 c 2,67,-1
 677 42 l 2,68,69
 664 33 664 33 647 23 c 128,-1,70
 630 13 630 13 628 11 c 2,71,-1
 613 3 l 1,72,-1
 627 -8 l 1,73,-1
 652 -25 l 2,74,75
 670 -36 670 -36 710 -52 c 0,76,77
 744 -64 744 -64 786 -76 c 0,78,79
 824 -85 824 -85 843 -88 c 0,80,81
 862 -89 862 -89 872 -84 c 0,82,83
 879 -80 879 -80 885 -71 c 0,84,85
 890 -64 890 -64 894 -44 c 2,86,-1
 923 51 l 1,87,-1
 942 43 l 1,88,-1
 930 -23 l 2,89,90
 925 -60 925 -60 925 -62 c 0,91,92
 925 -68 925 -68 932 -78 c 2,93,-1
 953 -99 l 2,94,95
 960 -108 960 -108 962 -117 c 0,96,97
 962 -125 962 -125 956 -131 c 0,98,99
 954 -134 954 -134 937 -139 c 0,100,101
 933 -139 933 -139 925 -140.5 c 128,-1,102
 917 -142 917 -142 912 -143 c 0,103,104
 886 -143 886 -143 859 -140 c 0,105,106
 811 -134 811 -134 787 -129 c 0,107,108
 749 -120 749 -120 714 -107 c 0,109,110
 677 -95 677 -95 647 -78 c 0,111,112
 633 -70 633 -70 603 -49 c 0,113,114
 597 -44 597 -44 589.5 -38.5 c 128,-1,115
 582 -33 582 -33 581 -32 c 2,116,-1
 569 -22 l 1,117,-1
 523 -45 l 2,118,119
 517 -47 517 -47 500.5 -54.5 c 128,-1,120
 484 -62 484 -62 473 -67 c 0,121,122
 461 -71 461 -71 440 -79 c 128,-1,123
 419 -87 419 -87 414 -89 c 0,124,125
 410 -90 410 -90 351 -108 c 0,126,127
 339 -111 339 -111 316.5 -116.5 c 128,-1,128
 294 -122 294 -122 286 -124 c 0,129,130
 251 -131 251 -131 219 -136 c 0,131,132
 190 -140 190 -140 157 -145 c 2,133,-1
 122 -150 l 1,134,-1
 121 -130 l 1,135,136
 141 -126 141 -126 150 -125 c 0,137,138
 184 -117 184 -117 205 -112 c 0,139,140
 242 -104 242 -104 285 -92 c 0,141,142
 325 -81 325 -81 362 -68 c 0,143,144
 378 -62 378 -62 440 -37 c 0,145,146
 479 -19 479 -19 497 -10 c 2,147,-1
 535 10 l 1,148,149
 529 16 529 16 525 19 c 2,150,-1
 509 39 l 2,151,152
 508 41 508 41 477 90 c 0,153,154
 451 138 451 138 442 156 c 2,155,-1
 433 174 l 1,0,-1
128 614 m 1,156,-1
 109 657 l 1,157,158
 121 656 121 656 131 654 c 0,159,160
 134 654 134 654 152 652 c 0,161,162
 168 650 168 650 179 650 c 0,163,164
 184 650 184 650 192 649.5 c 128,-1,165
 200 649 200 649 203 649 c 2,166,-1
 810 649 l 1,167,-1
 860 699 l 1,168,-1
 920 646 l 2,169,170
 926 640 926 640 927 638 c 0,171,172
 930 635 930 635 927 629 c 0,173,174
 925 624 925 624 922 622 c 0,175,176
 918 620 918 620 914 620 c 2,177,-1
 534 620 l 1,178,-1
 534 519 l 1,179,-1
 756 519 l 1,180,-1
 805 570 l 1,181,-1
 862 520 l 2,182,183
 871 513 871 513 872 509 c 0,184,185
 874 507 874 507 873 500 c 0,186,187
 872 496 872 496 867 493 c 0,188,189
 861 491 861 491 860 491 c 2,190,-1
 534 491 l 1,191,-1
 534 385 l 1,192,-1
 878 385 l 1,193,-1
 927 436 l 1,194,-1
 987 383 l 1,195,-1
 995 375 l 2,196,197
 998 372 998 372 995 366 c 0,198,199
 994 362 994 362 989 359 c 0,200,201
 985 357 985 357 982 357 c 2,202,-1
 130 357 l 2,203,204
 115 357 115 357 104 355 c 0,205,206
 91 355 91 355 79 353 c 2,207,-1
 68 353 l 1,208,-1
 56 351 l 1,209,-1
 37 394 l 1,210,-1
 63 390 l 2,211,212
 81 388 81 388 83 388 c 2,213,-1
 105 386 l 2,214,215
 111 386 111 386 119.5 385.5 c 128,-1,216
 128 385 128 385 130 385 c 2,217,-1
 486 385 l 1,218,-1
 486 491 l 1,219,-1
 280 491 l 2,220,221
 269 491 269 491 252 490 c 0,222,223
 244 489 244 489 236 488.5 c 128,-1,224
 228 488 228 488 227 488 c 2,225,-1
 215 486 l 1,226,-1
 203 485 l 1,227,-1
 184 528 l 1,228,-1
 209 524 l 2,229,230
 223 522 223 522 226 522 c 0,231,232
 227 522 227 522 230.5 521.5 c 128,-1,233
 234 521 234 521 240 520.5 c 128,-1,234
 246 520 246 520 252 520 c 0,235,236
 260 520 260 520 269 520 c 2,237,-1
 278 519 l 1,238,-1
 486 519 l 1,239,-1
 486 620 l 1,240,-1
 203 620 l 2,241,242
 186 620 186 620 175 619 c 2,243,-1
 155 617 l 2,244,245
 149 617 149 617 141 616 c 2,246,-1
 128 614 l 1,156,-1
429 794 m 1,247,-1
 454 782 l 2,248,249
 461 779 461 779 484 763 c 0,250,251
 506 750 506 750 518 736 c 0,252,253
 533 721 533 721 537 704 c 0,254,255
 542 685 542 685 532 672 c 128,-1,256
 522 659 522 659 508 662 c 0,257,258
 499 664 499 664 493 671 c 0,259,260
 491 675 491 675 482 694 c 0,261,262
 478 710 478 710 463 731 c 0,263,264
 450 749 450 749 436 762 c 2,265,-1
 417 779 l 1,266,-1
 429 794 l 1,247,-1
EndSplineSet
EndChar
StartChar: u2A70E
Encoding: 173838 173838 8
Width: 1024
Flags: W
LayerCount: 2
Back
Fore
SplineSet
626 124 m 1,0,-1
 672 115 l 2,1,2
 694 112 694 112 723 103 c 0,3,4
 756 94 756 94 783 84 c 0,5,6
 815 73 815 73 835 61 c 0,7,8
 859 49 859 49 870 38 c 0,9,10
 881 29 881 29 887 16 c 0,11,12
 892 5 892 5 889 -3 c 0,13,14
 889 -10 889 -10 883 -16 c 128,-1,15
 877 -22 877 -22 871 -23 c 0,16,17
 862 -23 862 -23 851 -17 c 0,18,19
 838 -8 838 -8 822 4 c 2,20,-1
 792 25 l 2,21,22
 783 32 783 32 756 45 c 0,23,24
 731 60 731 60 715 67 c 0,25,26
 703 74 703 74 669 85 c 2,27,-1
 626 101 l 1,28,-1
 626 -46 l 2,29,30
 626 -54 626 -54 628 -62 c 0,31,32
 630 -65 630 -65 637 -72 c 0,33,34
 643 -76 643 -76 667 -81 c 2,35,-1
 716 -87 l 2,36,37
 748 -89 748 -89 772 -89 c 2,38,-1
 821 -89 l 2,39,40
 839 -89 839 -89 857 -87 c 0,41,42
 870 -86 870 -86 885 -81 c 0,43,44
 901 -76 901 -76 906 -71 c 0,45,46
 912 -67 912 -67 915 -57 c 0,47,48
 919 -46 919 -46 924 -26 c 0,49,50
 930 2 930 2 935 53 c 2,51,-1
 937 77 l 1,52,-1
 956 75 l 1,53,-1
 956 -30 l 2,54,55
 956 -38 956 -38 959 -46 c 0,56,57
 963 -51 963 -51 971 -57 c 2,58,-1
 983 -64 l 2,59,60
 990 -68 990 -68 993 -74 c 0,61,62
 996 -78 996 -78 996 -86 c 0,63,64
 996 -91 996 -91 994 -94 c 0,65,66
 992 -98 992 -98 984 -103 c 0,67,68
 974 -109 974 -109 967 -112 c 0,69,70
 958 -116 958 -116 936 -120 c 0,71,72
 929 -122 929 -122 914 -124.5 c 128,-1,73
 899 -127 899 -127 892 -128 c 0,74,75
 864 -132 864 -132 827 -133 c 2,76,-1
 738 -133 l 1,77,-1
 676 -130 l 2,78,79
 649 -129 649 -129 626 -121 c 0,80,81
 606 -113 606 -113 595 -104 c 0,82,83
 586 -96 586 -96 581 -83 c 0,84,85
 581 -79 581 -79 579.5 -71.5 c 128,-1,86
 578 -64 578 -64 578 -61 c 2,87,-1
 578 275 l 2,88,89
 578 325 578 325 577 332 c 0,90,91
 575 346 575 346 575 348 c 2,92,-1
 574 355 l 1,93,-1
 628 343 l 2,94,95
 654 338 654 338 662 333 c 256,96,97
 670 328 670 328 671 321 c 0,98,99
 672 315 672 315 665 308 c 0,100,101
 659 303 659 303 646 299 c 2,102,-1
 626 294 l 1,103,-1
 626 174 l 1,104,-1
 664 192 l 2,105,106
 684 202 684 202 709 219 c 0,107,108
 736 236 736 236 765 260 c 0,109,110
 797 285 797 285 806 300 c 2,111,-1
 819 317 l 1,112,-1
 885 271 l 2,113,114
 895 265 895 265 895 257 c 0,115,116
 895 252 895 252 889 247 c 0,117,118
 884 244 884 244 876 245 c 2,119,-1
 842 250 l 1,120,-1
 799 223 l 2,121,122
 780 213 780 213 735 192 c 0,123,124
 722 186 722 186 668 164 c 0,125,126
 638 154 638 154 633 152 c 2,127,-1
 626 149 l 1,128,-1
 626 124 l 1,0,-1
121 313 m 1,129,130
 133 311 133 311 139 308 c 0,131,132
 149 306 149 306 189 290 c 2,133,-1
 251 267 l 2,134,135
 281 257 281 257 302 241 c 0,136,137
 320 228 320 228 321 210 c 0,138,139
 323 193 323 193 316 186 c 0,140,141
 310 178 310 178 299 178 c 0,142,143
 291 178 291 178 284 182 c 0,144,145
 276 188 276 188 264 200 c 0,146,147
 249 215 249 215 224 233 c 0,148,149
 203 249 203 249 179 262 c 0,150,151
 149 277 149 277 124 288 c 2,152,-1
 111 294 l 1,153,-1
 121 313 l 1,129,130
314 125 m 1,154,-1
 323 110 l 1,155,-1
 291 85 l 2,156,157
 248 55 248 55 242 51 c 0,158,159
 199 25 199 25 185 17 c 2,160,-1
 152 -1 l 1,161,-1
 154 -19 l 2,162,163
 154 -29 154 -29 151 -34 c 0,164,165
 149 -40 149 -40 142 -40 c 0,166,167
 136 -40 136 -40 130 -35 c 0,168,169
 128 -33 128 -33 125 -29 c 128,-1,170
 122 -25 122 -25 120 -23 c 2,171,-1
 80 34 l 1,172,-1
 126 47 l 1,173,-1
 168 61 l 2,174,175
 182 66 182 66 232 86 c 0,176,177
 273 103 273 103 284 109 c 2,178,-1
 314 125 l 1,154,-1
370 357 m 1,179,-1
 425 345 l 2,180,181
 446 341 446 341 458 335 c 0,182,183
 466 331 466 331 468 323 c 0,184,185
 468 316 468 316 462 310 c 0,186,187
 456 305 456 305 443 301 c 2,188,-1
 425 296 l 1,189,-1
 425 166 l 2,190,191
 425 107 425 107 418 65 c 0,192,193
 410 22 410 22 391 -13 c 0,194,195
 373 -45 373 -45 341 -70 c 0,196,197
 314 -91 314 -91 271 -112 c 0,198,199
 229 -131 229 -131 192 -141 c 0,200,201
 160 -150 160 -150 103 -160 c 2,202,-1
 74 -164 l 1,203,-1
 68 -144 l 2,204,205
 71 -143 71 -143 110 -134 c 0,206,207
 118 -132 118 -132 126.5 -130 c 128,-1,208
 135 -128 135 -128 145.5 -125 c 128,-1,209
 156 -122 156 -122 163 -120 c 0,210,211
 192 -111 192 -111 235 -90 c 0,212,213
 274 -71 274 -71 309 -43 c 0,214,215
 340 -17 340 -17 353 15 c 0,216,217
 368 50 368 50 372 87 c 0,218,219
 377 132 377 132 377 166 c 2,220,-1
 377 222 l 2,221,222
 377 253 377 253 376 278 c 0,223,224
 376 316 376 316 373 331 c 0,225,226
 373 344 373 344 371 350 c 2,227,-1
 370 357 l 1,179,-1
531 670 m 1,228,-1
 531 553 l 1,229,-1
 849 553 l 1,230,-1
 898 604 l 1,231,-1
 958 550 l 2,232,233
 960 548 960 548 962.5 546 c 128,-1,234
 965 544 965 544 966 543 c 0,235,236
 969 540 969 540 966 534 c 0,237,238
 966 529 966 529 961 526 c 0,239,240
 955 524 955 524 953 524 c 2,241,-1
 531 524 l 1,242,-1
 531 455 l 2,243,244
 531 435 531 435 532 418 c 0,245,246
 534 394 534 394 535 376 c 0,247,248
 537 356 537 356 536 351 c 0,249,250
 536 346 536 346 533 341 c 0,251,252
 531 338 531 338 525 334 c 0,253,254
 517 330 517 330 510 330 c 0,255,256
 501 330 501 330 496 331 c 0,257,258
 492 332 492 332 487 337 c 0,259,260
 484 343 484 343 484 346 c 2,261,-1
 483 524 l 1,262,-1
 148 524 l 2,263,264
 127 524 127 524 112 523 c 2,265,-1
 99 522 l 2,266,267
 95 522 95 522 90 522 c 2,268,-1
 86 521 l 1,269,-1
 74 519 l 1,270,-1
 54 562 l 1,271,272
 70 560 70 560 78 558 c 0,273,274
 84 558 84 558 98 556 c 0,275,276
 101 556 101 556 123 554 c 0,277,278
 129 554 129 554 137.5 553.5 c 128,-1,279
 146 553 146 553 148 553 c 2,280,-1
 483 553 l 1,281,-1
 483 665 l 1,282,283
 467 664 467 664 400 658 c 0,284,285
 382 657 382 657 354.5 655.5 c 128,-1,286
 327 654 327 654 323 654 c 2,287,-1
 214 651 l 1,288,-1
 145 649 l 1,289,-1
 145 670 l 1,290,291
 215 675 215 675 235 677 c 0,292,293
 295 681 295 681 351 687 c 0,294,295
 416 693 416 693 462 699 c 2,296,-1
 550 714 l 2,297,298
 594 722 594 722 634 732 c 0,299,300
 669 740 669 740 704 752 c 0,301,302
 738 764 738 764 751 771 c 2,303,-1
 787 788 l 1,304,-1
 824 750 l 2,305,306
 837 736 837 736 839 731 c 0,307,308
 842 726 842 726 838 716 c 0,309,310
 833 707 833 707 818 711 c 2,311,-1
 785 720 l 1,312,313
 757 714 757 714 752 713 c 2,314,-1
 666 694 l 2,315,316
 606 681 606 681 568 675 c 2,317,-1
 531 670 l 1,228,-1
EndSplineSet
EndChar
StartChar: u2A719
Encoding: 173849 173849 9
Width: 1024
Flags: W
LayerCount: 2
Back
Fore
SplineSet
643 293 m 1,0,-1
 643 155 l 1,1,-1
 781 155 l 1,2,-1
 781 266 l 2,3,4
 781 298 781 298 780 314 c 0,5,6
 779 322 779 322 778.5 330.5 c 128,-1,7
 778 339 778 339 778 340 c 2,8,-1
 777 346 l 1,9,-1
 837 334 l 2,10,11
 852 331 852 331 863 325 c 0,12,13
 872 321 872 321 874 313 c 0,14,15
 875 307 875 307 868 300 c 0,16,17
 862 295 862 295 849 291 c 2,18,-1
 828 285 l 1,19,-1
 828 155 l 1,20,-1
 860 155 l 1,21,-1
 906 211 l 1,22,-1
 967 155 l 2,23,24
 978 144 978 144 978 136 c 0,25,26
 978 127 978 127 966 127 c 2,27,-1
 828 127 l 1,28,-1
 828 -28 l 2,29,30
 828 -54 828 -54 829 -68 c 2,31,-1
 831 -95 l 1,32,-1
 832 -124 l 2,33,34
 833 -130 833 -130 833 -138 c 0,35,36
 833 -145 833 -145 830 -151 c 0,37,38
 828 -156 828 -156 818 -160 c 0,39,40
 817 -160 817 -160 810.5 -161.5 c 128,-1,41
 804 -163 804 -163 801 -163 c 0,42,43
 794 -163 794 -163 790 -160 c 0,44,45
 788 -159 788 -159 783 -154 c 0,46,47
 781 -148 781 -148 781 -138 c 2,48,-1
 781 127 l 1,49,-1
 643 127 l 1,50,51
 643 87 643 87 639 63 c 0,52,53
 638 38 638 38 624 3 c 0,54,55
 612 -29 612 -29 589 -60 c 0,56,57
 569 -87 569 -87 535 -115 c 0,58,59
 504 -140 504 -140 485 -149 c 2,60,-1
 454 -165 l 1,61,-1
 442 -149 l 1,62,63
 464 -135 464 -135 473 -128 c 0,64,65
 486 -118 486 -118 512 -92 c 0,66,67
 533 -69 533 -69 553 -39 c 0,68,69
 568 -15 568 -15 581 21 c 0,70,71
 592 54 592 54 593 82 c 2,72,-1
 594 127 l 1,73,-1
 541 127 l 2,74,75
 520 127 520 127 509 126 c 2,76,-1
 486 124 l 1,77,-1
 479 124 l 1,78,-1
 467 122 l 1,79,-1
 447 165 l 1,80,81
 452 164 452 164 460.5 162.5 c 128,-1,82
 469 161 469 161 471 161 c 0,83,84
 485 159 485 159 491 159 c 2,85,-1
 516 157 l 2,86,87
 521 157 521 157 530 156 c 128,-1,88
 539 155 539 155 541 155 c 2,89,-1
 594 155 l 1,90,-1
 594 274 l 1,91,-1
 588 272 l 2,92,93
 582 271 582 271 577 269 c 0,94,95
 576 269 576 269 551 262 c 0,96,97
 537 259 537 259 513 256 c 2,98,-1
 475 251 l 1,99,-1
 472 275 l 1,100,101
 493 278 493 278 505 281 c 0,102,103
 509 282 509 282 514 283.5 c 128,-1,104
 519 285 519 285 527 287.5 c 128,-1,105
 535 290 535 290 542 292 c 0,106,107
 566 299 566 299 588 310 c 128,-1,108
 610 321 610 321 637 341 c 0,109,110
 665 363 665 363 672 371 c 2,111,-1
 690 394 l 1,112,-1
 724 371 l 1,113,-1
 743 355 l 2,114,115
 755 346 755 346 756 339 c 0,116,117
 756 332 756 332 751 328 c 0,118,119
 745 324 745 324 729 327 c 2,120,-1
 708 331 l 1,121,122
 684 315 684 315 676 310 c 0,123,124
 672 308 672 308 649 296 c 2,125,-1
 643 293 l 1,0,-1
186 231 m 1,126,127
 190 238 190 238 195 248 c 0,128,129
 198 256 198 256 207 276 c 2,130,-1
 223 313 l 1,131,-1
 231 332 l 1,132,-1
 151 332 l 2,133,134
 120 332 120 332 97 331 c 0,135,136
 84 330 84 330 73 330 c 2,137,-1
 62 329 l 1,138,-1
 55 328 l 1,139,-1
 36 372 l 1,140,-1
 51 369 l 2,141,142
 53 369 53 369 63 367.5 c 128,-1,143
 73 366 73 366 82 364 c 0,144,145
 127 361 127 361 151 361 c 2,146,-1
 391 361 l 1,147,-1
 440 412 l 1,148,-1
 501 358 l 1,149,-1
 508 351 l 2,150,151
 511 348 511 348 508 342 c 0,152,153
 506 336 506 336 503 334 c 0,154,155
 499 332 499 332 495 332 c 2,156,-1
 289 333 l 1,157,-1
 268 303 l 1,158,-1
 245 271 l 2,159,160
 236 258 236 258 225 246 c 2,161,-1
 212 231 l 1,162,-1
 348 231 l 1,163,-1
 382 270 l 1,164,-1
 424 242 l 2,165,166
 434 236 434 236 439 230 c 0,167,168
 444 225 444 225 444 218 c 128,-1,169
 444 211 444 211 438 205 c 0,170,171
 434 200 434 200 424 195 c 2,172,-1
 405 188 l 1,173,-1
 405 -50 l 2,174,175
 405 -66 405 -66 406 -76 c 0,176,177
 406 -85 406 -85 408 -103 c 128,-1,178
 410 -121 410 -121 410 -124 c 0,179,180
 410 -132 410 -132 404 -140 c 0,181,182
 399 -147 399 -147 381 -148 c 0,183,184
 370 -150 370 -150 364 -146 c 0,185,186
 357 -141 357 -141 357 -136 c 2,187,-1
 357 -107 l 1,188,-1
 149 -107 l 1,189,-1
 149 -126 l 2,190,191
 149 -131 149 -131 143 -135 c 0,192,193
 137 -141 137 -141 125 -142 c 0,194,195
 112 -142 112 -142 105 -137 c 0,196,197
 102 -135 102 -135 98 -129 c 0,198,199
 96 -123 96 -123 97 -116 c 2,200,-1
 99 -95 l 1,201,-1
 100 -68 l 2,202,203
 101 -60 101 -60 101.5 -52 c 128,-1,204
 102 -44 102 -44 102 -43 c 2,205,-1
 102 263 l 1,206,-1
 160 231 l 1,207,-1
 186 231 l 1,126,127
357 203 m 1,208,-1
 149 203 l 1,209,-1
 149 82 l 1,210,-1
 357 82 l 1,211,-1
 357 203 l 1,208,-1
149 -79 m 1,212,-1
 357 -79 l 1,213,-1
 357 55 l 1,214,-1
 149 55 l 1,215,-1
 149 -79 l 1,212,-1
402 634 m 1,216,-1
 398 605 l 2,217,218
 397 591 397 591 385 559 c 0,219,220
 374 531 374 531 355 507 c 0,221,222
 336 482 336 482 306 462 c 0,223,224
 275 443 275 443 237 427 c 2,225,-1
 168 403 l 1,226,227
 111 389 111 389 103 387 c 2,228,-1
 83 383 l 1,229,-1
 78 404 l 1,230,-1
 110 413 l 2,231,232
 111 413 111 413 125.5 417.5 c 128,-1,233
 140 422 140 422 150 426 c 0,234,235
 167 432 167 432 201 446 c 0,236,237
 223 456 223 456 249 472 c 0,238,239
 275 489 275 489 292 505 c 0,240,241
 312 523 312 523 324 540 c 0,242,243
 337 560 337 560 343 579 c 0,244,245
 350 602 350 602 352 618 c 2,246,-1
 354 634 l 1,247,-1
 192 634 l 1,248,-1
 111 631 l 2,249,250
 108 631 108 631 105 630 c 2,251,-1
 102 630 l 1,252,-1
 95 629 l 1,253,-1
 77 673 l 2,254,255
 81 672 81 672 91 670 c 0,256,257
 92 670 92 670 102.5 668.5 c 128,-1,258
 113 667 113 667 122 665 c 0,259,260
 167 662 167 662 192 662 c 2,261,-1
 356 662 l 1,262,263
 357 666 357 666 357.5 674.5 c 128,-1,264
 358 683 358 683 358 687 c 0,265,266
 358 709 358 709 359 726 c 128,-1,267
 360 743 360 743 360 761 c 2,268,-1
 359 794 l 1,269,-1
 426 784 l 2,270,271
 438 782 438 782 443 779 c 0,272,273
 450 776 450 776 450 768 c 0,274,275
 450 763 450 763 444 758 c 0,276,277
 439 753 439 753 434 752 c 2,278,-1
 410 743 l 1,279,280
 410 729 410 729 408 707 c 0,281,282
 408 693 408 693 406 683 c 2,283,-1
 404 662 l 1,284,-1
 668 662 l 1,285,-1
 702 700 l 1,286,-1
 744 673 l 2,287,288
 754 668 754 668 759 661 c 0,289,290
 764 656 764 656 764 649 c 128,-1,291
 764 642 764 642 759 636 c 128,-1,292
 754 630 754 630 743 626 c 2,293,-1
 725 618 l 1,294,-1
 725 487 l 2,295,296
 725 478 725 478 727 468 c 0,297,298
 730 462 730 462 737 458 c 0,299,300
 746 454 746 454 765 453 c 0,301,302
 793 451 793 451 828 451 c 0,303,304
 868 451 868 451 881 453 c 0,305,306
 900 454 900 454 909 462 c 0,307,308
 918 469 918 469 922 481 c 0,309,310
 925 489 925 489 930 521 c 2,311,-1
 936 567 l 1,312,-1
 940 597 l 1,313,-1
 957 593 l 1,314,-1
 955 502 l 2,315,316
 955 487 955 487 957 481 c 0,317,318
 960 474 960 474 967 467 c 2,319,-1
 981 454 l 2,320,321
 985 450 985 450 987 443 c 0,322,323
 987 436 987 436 985 433 c 0,324,325
 982 427 982 427 967 419 c 0,326,327
 954 413 954 413 935 410 c 0,328,329
 900 407 900 407 889 406 c 0,330,331
 880 406 880 406 857 405.5 c 128,-1,332
 834 405 834 405 821 405 c 2,333,-1
 765 405 l 2,334,335
 740 407 740 407 727 408 c 0,336,337
 716 409 716 409 705 414 c 0,338,339
 695 420 695 420 690 425 c 128,-1,340
 685 430 685 430 680 440 c 0,341,342
 676 452 676 452 676 470 c 2,343,-1
 676 634 l 1,344,-1
 402 634 l 1,216,-1
EndSplineSet
EndChar
StartChar: u2A71E
Encoding: 173854 173854 10
Width: 1024
Flags: W
LayerCount: 2
Back
Fore
SplineSet
332 119 m 1,0,1
 327 117 327 117 319 113 c 0,2,3
 316 112 316 112 276 96 c 2,4,-1
 215 72 l 1,5,-1
 155 52 l 1,6,-1
 115 40 l 1,7,-1
 114 20 l 2,8,9
 112 6 112 6 105 2 c 0,10,11
 96 0 96 0 91 3 c 0,12,13
 86 8 86 8 70 36 c 2,14,-1
 46 78 l 1,15,-1
 56 88 l 2,16,17
 60 92 60 92 69 115 c 2,18,-1
 85 154 l 2,19,20
 92 172 92 172 106 214 c 2,21,-1
 130 287 l 1,22,-1
 147 346 l 1,23,-1
 163 402 l 1,24,-1
 119 402 l 2,25,26
 102 402 102 402 91 401 c 0,27,28
 85 401 85 401 78 400.5 c 128,-1,29
 71 400 71 400 70 400 c 128,-1,30
 69 400 69 400 64.5 399 c 128,-1,31
 60 398 60 398 57 398 c 2,32,-1
 45 397 l 1,33,-1
 26 440 l 1,34,35
 31 439 31 439 39 437.5 c 128,-1,36
 47 436 47 436 48 436 c 0,37,38
 51 436 51 436 69 434 c 2,39,-1
 95 432 l 2,40,41
 101 432 101 432 109 431.5 c 128,-1,42
 117 431 117 431 119 431 c 2,43,-1
 283 431 l 1,44,-1
 332 482 l 1,45,-1
 392 428 l 2,46,47
 394 426 394 426 396.5 424 c 128,-1,48
 399 422 399 422 400 421 c 0,49,50
 403 418 403 418 400 412 c 0,51,52
 400 407 400 407 395 404 c 0,53,54
 389 402 389 402 387 402 c 2,55,-1
 219 402 l 1,56,-1
 192 329 l 2,57,58
 183 304 183 304 154 235 c 0,59,60
 130 177 130 177 117 152 c 2,61,-1
 83 87 l 1,62,63
 132 95 132 95 142 96 c 0,64,65
 154 99 154 99 211 111 c 0,66,67
 264 121 264 121 285 128 c 2,68,-1
 305 134 l 1,69,-1
 325 140 l 1,70,-1
 320 152 l 2,71,72
 319 154 319 154 309 173 c 2,73,-1
 291 207 l 2,74,75
 278 229 278 229 274 234 c 2,76,-1
 258 259 l 1,77,-1
 270 269 l 1,78,-1
 301 238 l 2,79,80
 312 227 312 227 327 209 c 0,81,82
 340 192 340 192 354 173 c 0,83,84
 362 161 362 161 379 129 c 0,85,86
 390 109 390 109 395 86 c 0,87,88
 399 66 399 66 395 55 c 0,89,90
 394 43 394 43 384 35 c 0,91,92
 374 29 374 29 365 30 c 0,93,94
 356 32 356 32 350 39 c 0,95,96
 344 49 344 49 343 54 c 0,97,98
 343 57 343 57 341.5 66.5 c 128,-1,99
 340 76 340 76 339 83 c 0,100,101
 338 101 338 101 334 114 c 2,102,-1
 332 119 l 1,0,1
246 656 m 1,103,-1
 295 707 l 1,104,-1
 355 654 l 1,105,-1
 363 646 l 2,106,107
 366 643 366 643 363 637 c 0,108,109
 363 633 363 633 358 630 c 0,110,111
 354 628 354 628 350 628 c 2,112,-1
 169 628 l 1,113,-1
 134 626 l 1,114,-1
 120 625 l 1,115,-1
 107 624 l 1,116,-1
 95 622 l 1,117,-1
 75 665 l 1,118,119
 93 663 93 663 100 661 c 0,120,121
 107 661 107 661 119 659 c 0,122,123
 122 659 122 659 144 657 c 0,124,125
 150 657 150 657 158.5 656.5 c 128,-1,126
 167 656 167 656 169 656 c 2,127,-1
 246 656 l 1,103,-1
535 390 m 1,128,-1
 501 390 l 2,129,130
 484 390 484 390 473 389 c 0,131,132
 466 389 466 389 460 388.5 c 128,-1,133
 454 388 454 388 453 388 c 2,134,-1
 448 388 l 2,135,136
 443 387 443 387 439 386 c 2,137,-1
 427 385 l 1,138,-1
 407 428 l 1,139,140
 412 427 412 427 420.5 425.5 c 128,-1,141
 429 424 429 424 431 424 c 0,142,143
 436 424 436 424 458 422 c 128,-1,144
 480 420 480 420 481 420 c 0,145,146
 483 420 483 420 486 419.5 c 128,-1,147
 489 419 489 419 490 419 c 2,148,-1
 553 419 l 1,149,-1
 569 446 l 2,150,151
 581 467 581 467 593 497 c 2,152,-1
 598 511 l 1,153,-1
 602 522 l 1,154,-1
 549 522 l 1,155,-1
 513 520 l 1,156,-1
 500 519 l 1,157,-1
 487 518 l 1,158,-1
 474 516 l 1,159,-1
 455 559 l 1,160,161
 470 557 470 557 478 555 c 0,162,163
 484 555 484 555 498 553 c 0,164,165
 502 553 502 553 524 551 c 0,166,167
 529 551 529 551 537.5 550.5 c 128,-1,168
 546 550 546 550 549 550 c 2,169,-1
 611 550 l 2,170,171
 612 553 612 553 613.5 557 c 128,-1,172
 615 561 615 561 615 563 c 2,173,-1
 616 570 l 2,174,175
 618 577 618 577 619 582 c 2,176,-1
 628 629 l 1,177,-1
 630 640 l 1,178,-1
 526 640 l 1,179,-1
 490 638 l 1,180,-1
 477 638 l 1,181,-1
 464 636 l 1,182,-1
 451 635 l 1,183,-1
 432 678 l 1,184,-1
 459 674 l 2,185,186
 463 674 463 674 468.5 673 c 128,-1,187
 474 672 474 672 476 672 c 0,188,189
 487 672 487 672 500 671 c 0,190,191
 508 671 508 671 516.5 670.5 c 128,-1,192
 525 670 525 670 526 670 c 2,193,-1
 634 670 l 1,194,195
 635 675 635 675 635 681 c 2,196,-1
 640 732 l 1,197,-1
 642 781 l 1,198,-1
 688 774 l 2,199,200
 711 771 711 771 721 767 c 0,201,202
 734 764 734 764 735 754 c 0,203,204
 737 746 737 746 729 741 c 0,205,206
 720 736 720 736 709 732 c 2,207,-1
 690 727 l 1,208,-1
 687 701 l 1,209,-1
 685 685 l 1,210,-1
 683 670 l 1,211,-1
 831 670 l 1,212,-1
 875 711 l 1,213,-1
 935 666 l 2,214,215
 942 663 942 663 943 656 c 0,216,217
 945 650 945 650 943 647 c 0,218,219
 941 643 941 643 938 641 c 2,220,-1
 936 640 l 2,221,222
 933 640 933 640 931 640 c 2,223,-1
 679 640 l 1,224,225
 678 634 678 634 673 610 c 0,226,227
 670 589 670 589 667 578 c 0,228,229
 666 570 666 570 662 561 c 2,230,-1
 659 550 l 1,231,-1
 795 550 l 1,232,-1
 835 593 l 1,233,-1
 894 548 l 2,234,235
 900 544 900 544 901 540 c 0,236,237
 904 535 904 535 903 531 c 0,238,239
 903 526 903 526 900 524 c 0,240,241
 898 522 898 522 886 522 c 2,242,-1
 651 522 l 1,243,244
 650 517 650 517 643 502 c 2,245,-1
 633 476 l 2,246,247
 628 462 628 462 608 428 c 2,248,-1
 603 419 l 1,249,-1
 880 419 l 1,250,-1
 924 462 l 1,251,-1
 978 421 l 2,252,253
 988 414 988 414 990 409 c 0,254,255
 993 406 993 406 992 400 c 0,256,257
 990 393 990 393 985 392 c 2,258,-1
 980 390 l 1,259,-1
 768 390 l 1,260,-1
 792 363 l 2,261,262
 799 355 799 355 825 331 c 0,263,264
 838 320 838 320 868 300 c 0,265,266
 874 296 874 296 910 277 c 0,267,268
 932 268 932 268 942 266 c 2,269,-1
 985 254 l 1,270,-1
 983 235 l 1,271,-1
 968 234 l 2,272,273
 961 234 961 234 952 231 c 0,274,275
 944 229 944 229 937 224 c 0,276,277
 931 220 931 220 926 212 c 2,278,-1
 922 206 l 1,279,-1
 886 226 l 2,280,281
 865 239 865 239 844 258 c 0,282,283
 818 282 818 282 801 302 c 0,284,285
 770 344 770 344 767 349 c 0,286,287
 746 383 746 383 745 384 c 2,288,-1
 741 390 l 1,289,-1
 584 390 l 1,290,-1
 567 367 l 2,291,292
 559 354 559 354 530 322 c 0,293,294
 505 295 505 295 469 264 c 0,295,296
 441 240 441 240 405 215 c 2,297,-1
 387 202 l 1,298,-1
 374 217 l 1,299,-1
 410 247 l 2,300,301
 424 259 424 259 452 285 c 0,302,303
 476 309 476 309 490 328 c 2,304,-1
 527 380 l 1,305,-1
 535 390 l 1,128,-1
736 60 m 1,306,307
 764 46 764 46 778 39 c 0,308,309
 788 34 788 34 819 15 c 0,310,311
 843 2 843 2 873 -20 c 0,312,313
 899 -38 899 -38 912 -60 c 0,314,315
 924 -82 924 -82 923 -98 c 0,316,317
 923 -110 923 -110 916 -117 c 0,318,319
 908 -123 908 -123 900 -123 c 128,-1,320
 892 -123 892 -123 881 -115 c 0,321,322
 878 -112 878 -112 863 -87 c 0,323,324
 853 -66 853 -66 833 -46 c 0,325,326
 815 -25 815 -25 795 -10 c 2,327,-1
 757 21 l 1,328,-1
 727 45 l 1,329,-1
 736 60 l 1,306,307
551 22 m 1,330,-1
 519 -21 l 2,331,332
 509 -34 509 -34 469 -74 c 0,333,334
 437 -105 437 -105 404 -125 c 2,335,-1
 369 -146 l 1,336,-1
 359 -133 l 1,337,-1
 400 -96 l 2,338,339
 416 -81 416 -81 443 -47 c 0,340,341
 456 -30 456 -30 480 3 c 0,342,343
 495 28 495 28 501 40 c 2,344,-1
 522 81 l 1,345,-1
 566 62 l 2,346,347
 581 57 581 57 589 50 c 0,348,349
 596 46 596 46 596 38 c 0,350,351
 596 34 596 34 590 29 c 0,352,353
 581 26 581 26 570 24 c 2,354,-1
 551 22 l 1,330,-1
674 242 m 1,355,-1
 674 142 l 1,356,-1
 824 142 l 1,357,-1
 868 186 l 1,358,-1
 927 140 l 2,359,360
 932 136 932 136 935 130 c 0,361,362
 937 124 937 124 936 121 c 0,363,364
 936 117 936 117 931 115 c 0,365,366
 927 113 927 113 924 113 c 2,367,-1
 674 113 l 1,368,-1
 674 -31 l 1,369,-1
 674 -59 l 2,370,371
 674 -61 674 -61 675 -72.5 c 128,-1,372
 676 -84 676 -84 676 -93 c 0,373,374
 678 -127 678 -127 678 -129 c 2,375,-1
 678 -143 l 2,376,377
 678 -152 678 -152 674 -159 c 0,378,379
 670 -165 670 -165 652 -165 c 0,380,381
 642 -165 642 -165 638 -164 c 0,382,383
 637 -164 637 -164 630 -159 c 0,384,385
 627 -153 627 -153 627 -140 c 2,386,-1
 627 113 l 1,387,-1
 493 113 l 2,388,389
 475 113 475 113 464 112 c 0,390,391
 446 110 446 110 443 110 c 0,392,393
 442 110 442 110 438 109.5 c 128,-1,394
 434 109 434 109 431 109 c 2,395,-1
 419 107 l 1,396,-1
 399 150 l 1,397,398
 411 149 411 149 421 147 c 0,399,400
 425 147 425 147 443 145 c 128,-1,401
 461 143 461 143 469 143 c 0,402,403
 474 143 474 143 482 142.5 c 128,-1,404
 490 142 490 142 493 142 c 2,405,-1
 627 142 l 1,406,-1
 627 233 l 1,407,-1
 591 230 l 1,408,-1
 540 224 l 1,409,-1
 479 220 l 1,410,-1
 475 242 l 1,411,412
 482 243 482 243 538 253 c 0,413,414
 562 257 562 257 602 268 c 0,415,416
 644 278 644 278 668 287 c 0,417,418
 698 298 698 298 711 307 c 2,419,-1
 744 326 l 1,420,-1
 787 285 l 2,421,422
 797 276 797 276 800 269 c 0,423,424
 802 262 802 262 797 257 c 128,-1,425
 792 252 792 252 773 256 c 2,426,-1
 744 264 l 1,427,428
 720 257 720 257 714 254 c 2,429,-1
 687 246 l 1,430,-1
 674 242 l 1,355,-1
EndSplineSet
EndChar
StartChar: u2A71F
Encoding: 173855 173855 11
Width: 1024
Flags: W
LayerCount: 2
Back
Fore
SplineSet
697 443 m 1,0,-1
 707 435 l 2,1,2
 721 424 721 424 725 421 c 0,3,4
 737 413 737 413 748 400 c 0,5,6
 757 391 757 391 766 375 c 0,7,8
 772 366 772 366 774 352 c 0,9,10
 774 339 774 339 771 333 c 0,11,12
 768 326 768 326 760 321 c 0,13,14
 752 319 752 319 743 324 c 0,15,16
 737 328 737 328 733 332 c 0,17,18
 730 336 730 336 715 356 c 0,19,20
 702 377 702 377 690 389 c 2,21,-1
 682 398 l 2,22,23
 681 394 681 394 677 386 c 2,24,-1
 669 371 l 2,25,26
 665 362 665 362 654 346 c 0,27,28
 646 332 646 332 630 313 c 0,29,30
 615 296 615 296 595 278 c 0,31,32
 579 263 579 263 557 248 c 0,33,34
 545 240 545 240 521 226 c 2,35,-1
 493 210 l 1,36,-1
 482 227 l 1,37,38
 498 239 498 239 509 248 c 2,39,-1
 538 272 l 2,40,41
 556 287 556 287 570 302 c 0,42,43
 585 319 585 319 600 339 c 0,44,45
 618 366 618 366 623 377 c 0,46,47
 625 382 625 382 629.5 391.5 c 128,-1,48
 634 401 634 401 636 405 c 0,49,50
 640 417 640 417 642 423 c 2,51,-1
 646 433 l 1,52,-1
 631 445 l 1,53,-1
 608 465 l 2,54,55
 592 479 592 479 580 486 c 2,56,-1
 550 508 l 1,57,-1
 559 525 l 1,58,-1
 597 504 l 1,59,-1
 626 488 l 2,60,61
 642 479 642 479 643 478 c 2,62,-1
 656 470 l 1,63,-1
 661 493 l 1,64,-1
 662 503 l 2,65,66
 664 513 664 513 665 520 c 0,67,68
 666 525 666 525 667 541.5 c 128,-1,69
 668 558 668 558 669 569 c 0,70,71
 672 602 672 602 672 610 c 2,72,-1
 672 618 l 1,73,-1
 654 618 l 2,74,75
 595 618 595 618 583 616 c 2,76,-1
 565 614 l 1,77,-1
 558 613 l 1,78,-1
 539 656 l 2,79,80
 542 656 542 656 546 655 c 128,-1,81
 550 654 550 654 553 653 c 0,82,83
 563 653 563 653 584 649 c 0,84,85
 616 647 616 647 646 647 c 2,86,-1
 673 647 l 1,87,-1
 673 725 l 2,88,89
 673 747 673 747 672 761 c 0,90,91
 671 769 671 769 670 776 c 2,92,-1
 670 783 l 1,93,-1
 669 790 l 1,94,-1
 723 778 l 2,95,96
 749 772 749 772 758 767 c 0,97,98
 764 764 764 764 766 756 c 0,99,100
 766 749 766 749 760 743 c 0,101,102
 754 738 754 738 741 734 c 2,103,-1
 721 728 l 1,104,-1
 719 647 l 1,105,-1
 818 647 l 1,106,-1
 847 680 l 1,107,-1
 890 652 l 2,108,109
 909 640 909 640 911 636 c 0,110,111
 913 633 913 633 914 626 c 0,112,113
 914 619 914 619 906 611 c 0,114,115
 902 607 902 607 892 602 c 2,116,-1
 864 588 l 1,117,-1
 864 549 l 2,118,119
 864 522 864 522 865 500 c 0,120,121
 867 468 867 468 871 432 c 0,122,123
 875 398 875 398 883 371 c 0,124,125
 891 343 891 343 903 326 c 0,126,127
 917 308 917 308 925 309 c 0,128,129
 932 310 932 310 935 322 c 2,130,-1
 946 360 l 1,131,-1
 969 440 l 1,132,-1
 985 437 l 1,133,-1
 972 349 l 2,134,135
 967 312 967 312 967 294 c 0,136,137
 967 268 967 268 973 245 c 0,138,139
 979 219 979 219 973 213 c 0,140,141
 966 206 966 206 953 205 c 0,142,143
 939 205 939 205 916 227 c 0,144,145
 908 235 908 235 890 255 c 0,146,147
 880 268 880 268 867 289 c 0,148,149
 854 312 854 312 844 341 c 0,150,151
 834 372 834 372 826 419 c 0,152,153
 819 470 819 470 818 525 c 0,154,155
 818 557 818 557 819 587 c 2,156,-1
 819 618 l 1,157,-1
 718 618 l 1,158,159
 718 611 718 611 716 591 c 0,160,161
 716 582 716 582 714 564 c 0,162,163
 714 549 714 549 710 522 c 0,164,165
 707 492 707 492 704 479 c 0,166,167
 702 466 702 466 701 461 c 2,168,-1
 697 443 l 1,0,-1
415 53 m 1,169,-1
 403 41 l 1,170,-1
 385 23 l 2,171,172
 371 9 371 9 327 -25 c 2,173,-1
 270 -69 l 1,174,-1
 230 -97 l 1,175,176
 262 -96 262 -96 278 -94 c 2,177,-1
 374 -88 l 2,178,179
 382 -88 382 -88 499 -78 c 2,180,-1
 618 -69 l 2,181,182
 702 -61 702 -61 705 -61 c 2,183,-1
 743 -57 l 2,184,185
 740 -55 740 -55 735.5 -51.5 c 128,-1,186
 731 -48 731 -48 729 -46 c 2,187,-1
 707 -27 l 2,188,189
 692 -15 692 -15 671 -1 c 2,190,-1
 660 6 l 1,191,-1
 669 22 l 1,192,-1
 706 4 l 2,193,194
 720 -2 720 -2 753 -21 c 0,195,196
 785 -40 785 -40 807 -55 c 0,197,198
 827 -68 827 -68 847 -86 c 0,199,200
 862 -100 862 -100 871 -113 c 0,201,202
 880 -125 880 -125 880 -139 c 0,203,204
 880 -152 880 -152 871 -161 c 128,-1,205
 862 -170 862 -170 851 -169 c 0,206,207
 842 -169 842 -169 834 -163 c 0,208,209
 829 -160 829 -160 819 -144 c 0,210,211
 812 -130 812 -130 801 -117 c 0,212,213
 792 -104 792 -104 780 -93 c 2,214,-1
 762 -76 l 1,215,216
 734 -81 734 -81 715 -85 c 2,217,-1
 607 -101 l 1,218,-1
 496 -117 l 2,219,220
 480 -118 480 -118 404 -128 c 2,221,-1
 283 -141 l 1,222,-1
 234 -147 l 1,223,-1
 231 -162 l 2,224,225
 229 -173 229 -173 226 -176 c 0,226,227
 223 -181 223 -181 216 -181 c 0,228,229
 211 -181 211 -181 207 -177 c 0,230,231
 207 -176 207 -176 204.5 -171.5 c 128,-1,232
 202 -167 202 -167 200 -163 c 2,233,-1
 176 -103 l 1,234,-1
 195 -92 l 2,235,236
 202 -88 202 -88 219 -74 c 0,237,238
 226 -69 226 -69 257 -42 c 0,239,240
 282 -21 282 -21 300 -1 c 0,241,242
 325 25 325 25 337 40 c 2,243,-1
 348 53 l 1,244,-1
 135 53 l 2,245,246
 122 53 122 53 108 51 c 0,247,248
 100 51 100 51 93 50 c 2,249,-1
 86 50 l 1,250,-1
 82 50 l 2,251,252
 78 49 78 49 73 48 c 2,253,-1
 60 47 l 1,254,-1
 41 90 l 1,255,-1
 68 86 l 2,256,257
 86 84 86 84 88 84 c 2,258,-1
 110 82 l 2,259,260
 116 82 116 82 124.5 81.5 c 128,-1,261
 133 81 133 81 135 81 c 2,262,-1
 851 81 l 1,263,-1
 900 132 l 1,264,-1
 961 79 l 2,265,266
 968 72 968 72 968 71 c 0,267,268
 972 69 972 69 969 62 c 0,269,270
 968 58 968 58 963 55 c 0,271,272
 957 53 957 53 956 53 c 2,273,-1
 415 53 l 1,169,-1
353 402 m 2,274,275
 353 400 353 400 351 396 c 0,276,277
 349 394 349 394 341 390 c 2,278,-1
 324 380 l 1,279,-1
 324 370 l 1,280,281
 346 372 346 372 370 374 c 2,282,-1
 394 377 l 1,283,-1
 456 383 l 1,284,-1
 515 390 l 1,285,-1
 518 370 l 1,286,-1
 435 355 l 2,287,288
 393 349 393 349 381 346 c 2,289,-1
 324 338 l 1,290,-1
 324 277 l 2,291,292
 324 258 324 258 319 246 c 0,293,294
 315 233 315 233 301 221 c 0,295,296
 291 212 291 212 275 207 c 2,297,-1
 247 199 l 1,298,299
 247 208 247 208 244 216 c 0,300,301
 242 224 242 224 235 231 c 0,302,303
 231 237 231 237 220 242 c 0,304,305
 216 245 216 245 194 250 c 0,306,307
 188 252 188 252 180.5 253.5 c 128,-1,308
 173 255 173 255 172 255 c 2,309,-1
 154 258 l 1,310,-1
 156 281 l 1,311,312
 168 280 168 280 177 277 c 2,313,-1
 209 273 l 2,314,315
 243 269 243 269 249 269 c 0,316,317
 264 269 264 269 270 276 c 0,318,319
 276 284 276 284 276 297 c 2,320,-1
 277 330 l 1,321,-1
 195 319 l 2,322,323
 158 314 158 314 151 313 c 2,324,-1
 106 307 l 1,325,-1
 99 283 l 2,326,327
 97 275 97 275 91 273 c 0,328,329
 86 273 86 273 79 277 c 0,330,331
 77 279 77 279 68 296 c 2,332,-1
 42 353 l 1,333,-1
 83 353 l 2,334,335
 109 353 109 353 149 357 c 2,336,-1
 276 365 l 1,337,-1
 276 427 l 1,338,-1
 330 418 l 1,339,-1
 356 430 l 2,340,341
 370 434 370 434 371 436 c 2,342,-1
 407 457 l 1,343,-1
 164 457 l 2,344,345
 146 457 146 457 135 456 c 0,346,347
 117 454 117 454 114 454 c 0,348,349
 113 454 113 454 109 453.5 c 128,-1,350
 105 453 105 453 102 453 c 2,351,-1
 90 451 l 1,352,-1
 70 493 l 1,353,-1
 98 490 l 2,354,355
 113 488 113 488 117 487 c 0,356,357
 128 487 128 487 139 486 c 0,358,359
 145 486 145 486 153.5 485.5 c 128,-1,360
 162 485 162 485 164 485 c 2,361,-1
 426 484 l 1,362,-1
 462 506 l 1,363,-1
 499 473 l 2,364,365
 508 465 508 465 512 459 c 0,366,367
 516 454 516 454 515 450 c 0,368,369
 515 446 515 446 508 443 c 0,370,371
 496 440 496 440 479 440 c 2,372,-1
 458 440 l 1,373,-1
 407 421 l 2,374,375
 387 413 387 413 363 405 c 2,376,-1
 353 402 l 2,274,275
260 800 m 1,377,-1
 276 788 l 2,378,379
 282 783 282 783 295 772 c 0,380,381
 306 762 306 762 315 750 c 0,382,383
 321 742 321 742 323 731 c 0,384,385
 323 721 323 721 321 716 c 0,386,387
 320 710 320 710 315 705 c 2,388,-1
 310 700 l 1,389,-1
 456 700 l 1,390,-1
 496 740 l 1,391,-1
 553 697 l 2,392,393
 558 694 558 694 559 690 c 0,394,395
 563 686 563 686 560 680 c 0,396,397
 558 675 558 675 555 673 c 0,398,399
 551 671 551 671 548 671 c 2,400,-1
 132 671 l 2,401,402
 115 671 115 671 104 670 c 0,403,404
 100 670 100 670 95 669.5 c 128,-1,405
 90 669 90 669 87 668.5 c 128,-1,406
 84 668 84 668 83 668 c 0,407,408
 76 668 76 668 70 667 c 2,409,-1
 58 665 l 1,410,-1
 38 708 l 1,411,412
 50 707 50 707 60 705 c 0,413,414
 63 705 63 705 81 703 c 128,-1,415
 99 701 99 701 108 701 c 0,416,417
 113 701 113 701 121 700.5 c 128,-1,418
 129 700 129 700 132 700 c 2,419,-1
 283 700 l 1,420,421
 281 712 281 712 278 719 c 0,422,423
 277 729 277 729 268 747 c 0,424,425
 263 759 263 759 254 772 c 2,426,-1
 243 788 l 1,427,-1
 260 800 l 1,377,-1
406 624 m 1,428,-1
 436 660 l 1,429,-1
 472 635 l 2,430,431
 482 629 482 629 487 623 c 0,432,433
 492 618 492 618 493 613 c 0,434,435
 495 608 495 608 489 601 c 0,436,437
 485 597 485 597 474 591 c 2,438,-1
 461 584 l 1,439,-1
 461 562 l 1,440,-1
 479 550 l 2,441,442
 490 542 490 542 490 535 c 0,443,444
 490 529 490 529 483 525 c 0,445,446
 471 522 471 522 450 522 c 2,447,-1
 173 522 l 1,448,-1
 173 517 l 2,449,450
 175 512 175 512 166 506 c 0,451,452
 156 500 156 500 146 500 c 128,-1,453
 136 500 136 500 129 505 c 0,454,455
 124 510 124 510 124 518 c 2,456,-1
 124 655 l 1,457,-1
 176 624 l 1,458,-1
 406 624 l 1,428,-1
173 550 m 1,459,-1
 412 550 l 1,460,-1
 412 595 l 1,461,-1
 173 595 l 1,462,-1
 173 550 l 1,459,-1
211 157 m 1,463,-1
 192 200 l 1,464,465
 204 199 204 199 214 197 c 0,466,467
 217 197 217 197 235 195 c 0,468,469
 251 193 251 193 262 193 c 0,470,471
 267 193 267 193 275 192.5 c 128,-1,472
 283 192 283 192 286 192 c 2,473,-1
 725 192 l 1,474,-1
 774 243 l 1,475,-1
 834 189 l 1,476,-1
 841 182 l 2,477,478
 844 180 844 180 842 172 c 0,479,480
 841 168 841 168 836 165 c 0,481,482
 832 163 832 163 829 163 c 2,483,-1
 286 163 l 2,484,485
 269 163 269 163 257 162 c 0,486,487
 253 162 253 162 246 161 c 0,488,489
 240 160 240 160 238 160 c 0,490,491
 232 160 232 160 224 159 c 2,492,-1
 211 157 l 1,463,-1
EndSplineSet
EndChar
StartChar: u2A720
Encoding: 173856 173856 12
Width: 1024
Flags: W
LayerCount: 2
Back
Fore
SplineSet
322 228 m 1,0,-1
 351 220 l 2,1,2
 362 218 362 218 387 211 c 0,3,4
 404 207 404 207 434 197 c 0,5,6
 454 191 454 191 480 179 c 0,7,8
 504 168 504 168 515 156 c 0,9,10
 524 146 524 146 526 127 c 0,11,12
 528 109 528 109 518 104 c 0,13,14
 506 99 506 99 496 103 c 0,15,16
 487 105 487 105 465 123 c 0,17,18
 445 142 445 142 430 151 c 0,19,20
 413 163 413 163 388 174 c 0,21,22
 362 188 362 188 348 192 c 2,23,-1
 322 201 l 1,24,25
 320 176 320 176 316 147 c 0,26,27
 313 124 313 124 299 71 c 0,28,29
 287 24 287 24 260 -17 c 0,30,31
 234 -55 234 -55 184 -93 c 0,32,33
 136 -128 136 -128 96 -148 c 2,34,-1
 67 -163 l 1,35,-1
 56 -146 l 1,36,-1
 94 -121 l 2,37,38
 112 -109 112 -109 155 -71 c 0,39,40
 194 -36 194 -36 219 3 c 0,41,42
 242 40 242 40 253 83 c 0,43,44
 263 128 263 128 267 171 c 0,45,46
 272 224 272 224 272 241 c 2,47,-1
 272 368 l 2,48,49
 272 398 272 398 270 411 c 2,50,-1
 267 447 l 1,51,-1
 330 414 l 1,52,-1
 656 414 l 1,53,-1
 690 452 l 1,54,-1
 732 424 l 2,55,56
 742 418 742 418 747 412 c 0,57,58
 752 407 752 407 752 400 c 0,59,60
 752 394 752 394 747 389 c 0,61,62
 745 386 745 386 731 378 c 2,63,-1
 712 368 l 1,64,-1
 712 -50 l 2,65,66
 712 -65 712 -65 721 -77 c 0,67,68
 728 -87 728 -87 765 -89 c 0,69,70
 793 -89 793 -89 820 -88 c 0,71,72
 860 -86 860 -86 873 -85 c 0,73,74
 884 -85 884 -85 899 -80 c 0,75,76
 911 -76 911 -76 916 -68 c 0,77,78
 921 -56 921 -56 924 -43 c 0,79,80
 929 -25 929 -25 930 -23 c 2,81,-1
 943 103 l 1,82,-1
 960 102 l 1,83,-1
 960 -33 l 2,84,85
 960 -42 960 -42 962 -50 c 0,86,87
 965 -58 965 -58 967 -62 c 0,88,89
 968 -63 968 -63 972.5 -68 c 128,-1,90
 977 -73 977 -73 981 -77 c 0,91,92
 991 -85 991 -85 992 -92 c 0,93,94
 994 -100 994 -100 985 -109 c 0,95,96
 978 -120 978 -120 943 -124 c 2,97,-1
 897 -130 l 1,98,99
 840 -133 840 -133 837 -133 c 2,100,-1
 782 -133 l 1,101,-1
 746 -133 l 2,102,103
 721 -133 721 -133 703 -126 c 0,104,105
 687 -119 687 -119 677 -107 c 0,106,107
 673 -102 673 -102 666 -85 c 1,108,109
 663 -66 663 -66 664 -60 c 2,110,-1
 664 385 l 1,111,-1
 322 386 l 1,112,-1
 322 228 l 1,0,-1
413 782 m 1,113,-1
 425 775 l 2,114,115
 431 773 431 773 455 755 c 0,116,117
 478 738 478 738 497 722 c 0,118,119
 519 704 519 704 529 692 c 0,120,121
 541 680 541 680 553 639 c 1,122,123
 553 619 553 619 544 613 c 2,124,-1
 536 605 l 1,125,-1
 858 605 l 1,126,-1
 904 657 l 1,127,-1
 964 604 l 2,128,129
 970 598 970 598 971 596 c 0,130,131
 973 594 973 594 972 587 c 0,132,133
 970 583 970 583 967 580 c 0,134,135
 963 576 963 576 958 576 c 2,136,-1
 161 577 l 2,137,138
 130 577 130 577 107 575 c 0,139,140
 94 574 94 574 83 574 c 2,141,-1
 72 573 l 1,142,-1
 65 573 l 1,143,-1
 46 617 l 1,144,145
 56 615 56 615 61 613 c 0,146,147
 63 613 63 613 73 611.5 c 128,-1,148
 83 610 83 610 92 608 c 0,149,150
 137 605 137 605 161 605 c 2,151,-1
 508 605 l 1,152,-1
 500 626 l 2,153,154
 496 639 496 639 487 655 c 0,155,156
 476 678 476 678 469 689 c 0,157,158
 460 705 460 705 449 716 c 2,159,-1
 424 745 l 2,160,161
 411 761 411 761 407 763 c 2,162,-1
 400 769 l 1,163,-1
 413 782 l 1,113,-1
EndSplineSet
EndChar
StartChar: u2A723
Encoding: 173859 173859 13
Width: 1024
Flags: W
LayerCount: 2
Back
Fore
SplineSet
734 375 m 1,0,1
 689 368 689 368 675 365 c 0,2,3
 669 365 669 365 600 355 c 0,4,5
 542 348 542 348 523 345 c 0,6,7
 498 343 498 343 431 336 c 2,8,-1
 340 327 l 2,9,10
 331 326 331 326 323 325 c 2,11,-1
 315 324 l 1,12,-1
 280 320 l 1,13,-1
 277 312 l 2,14,15
 275 304 275 304 272 301 c 0,16,17
 270 298 270 298 263 295 c 0,18,19
 255 295 255 295 249 304 c 2,20,-1
 242 317 l 1,21,-1
 222 353 l 1,22,23
 227 355 227 355 248 364 c 0,24,25
 257 368 257 368 276 380 c 0,26,27
 288 387 288 387 321 412 c 2,28,-1
 370 450 l 2,29,30
 387 465 387 465 411 490 c 0,31,32
 429 511 429 511 443 530 c 2,33,-1
 463 558 l 1,34,-1
 512 531 l 1,35,-1
 535 519 l 2,36,37
 542 514 542 514 540 508 c 0,38,39
 540 505 540 505 532 500 c 0,40,41
 524 498 524 498 514 498 c 2,42,-1
 495 498 l 1,43,-1
 458 466 l 2,44,45
 450 459 450 459 423 438 c 0,46,47
 406 424 406 424 378 408 c 0,48,49
 355 393 355 393 339 386 c 2,50,-1
 298 365 l 1,51,52
 343 366 343 366 368 368 c 2,53,-1
 438 373 l 1,54,-1
 496 376 l 2,55,56
 544 379 544 379 568 381 c 2,57,-1
 632 385 l 2,58,59
 652 387 652 387 661 388 c 2,60,-1
 706 393 l 1,61,-1
 717 394 l 1,62,63
 706 408 706 408 701 412 c 0,64,65
 700 413 700 413 693.5 419 c 128,-1,66
 687 425 687 425 682 430 c 2,67,-1
 660 449 l 1,68,-1
 638 465 l 1,69,-1
 651 480 l 1,70,-1
 679 465 l 1,71,-1
 714 445 l 2,72,73
 740 429 740 429 752 420 c 0,74,75
 768 409 768 409 785 394 c 0,76,77
 798 382 798 382 806 367 c 0,78,79
 813 356 813 356 813 344 c 0,80,81
 815 334 815 334 809 324 c 0,82,83
 804 314 804 314 794 313 c 0,84,85
 784 313 784 313 780 314 c 0,86,87
 774 318 774 318 770 322 c 2,88,-1
 758 340 l 2,89,90
 749 356 749 356 747 358 c 2,91,-1
 734 375 l 1,0,1
520 656 m 2,92,93
 516 659 516 659 510 665 c 0,94,95
 510 666 510 666 508.5 672 c 128,-1,96
 507 678 507 678 505 683 c 0,97,98
 503 692 503 692 497 708 c 0,99,100
 493 721 493 721 484 734 c 0,101,102
 477 748 477 748 468 757 c 2,103,-1
 449 778 l 1,104,-1
 459 790 l 1,105,-1
 484 773 l 1,106,-1
 505 758 l 2,107,108
 516 750 516 750 525 741 c 0,109,110
 531 736 531 736 541 724 c 0,111,112
 547 716 547 716 553 703 c 0,113,114
 558 689 558 689 556 678 c 0,115,116
 555 666 555 666 546 661 c 2,117,-1
 540 656 l 1,118,-1
 858 656 l 1,119,-1
 912 713 l 1,120,-1
 978 657 l 2,121,122
 985 651 985 651 988 647 c 0,123,124
 990 643 990 643 989 637 c 0,125,126
 988 633 988 633 983 630 c 0,127,128
 979 628 979 628 976 628 c 2,129,-1
 154 628 l 1,130,-1
 132 628 l 2,131,132
 115 628 115 628 104 627 c 0,133,134
 84 625 84 625 83 625 c 0,135,136
 77 625 77 625 70 624 c 2,137,-1
 58 622 l 1,138,-1
 39 665 l 1,139,140
 51 664 51 664 61 662 c 0,141,142
 64 662 64 662 82 660 c 2,143,-1
 108 658 l 2,144,145
 130 656 130 656 132 656 c 2,146,-1
 154 656 l 1,147,-1
 520 656 l 2,92,93
333 618 m 1,148,-1
 388 580 l 2,149,150
 395 576 395 576 400 567 c 0,151,152
 404 562 404 562 403 555 c 0,153,154
 403 549 403 549 394 546 c 0,155,156
 383 544 383 544 374 545 c 2,157,-1
 353 547 l 1,158,-1
 313 512 l 2,159,160
 297 498 297 498 271 480 c 0,161,162
 239 460 239 460 216 446 c 0,163,164
 195 434 195 434 157 418 c 0,165,166
 153 417 153 417 132.5 409.5 c 128,-1,167
 112 402 112 402 103 399 c 2,168,-1
 83 393 l 1,169,-1
 77 412 l 1,170,-1
 107 425 l 1,171,-1
 145 444 l 2,172,173
 168 456 168 456 195 475 c 0,174,175
 226 497 226 497 251 519 c 0,176,177
 272 538 272 538 296 563 c 0,178,179
 315 584 315 584 326 604 c 2,180,-1
 333 618 l 1,148,-1
657 605 m 1,181,-1
 694 593 l 2,182,183
 703 590 703 590 736 577 c 0,184,185
 777 560 777 560 794 552 c 0,186,187
 827 538 827 538 844 528 c 0,188,189
 864 518 864 518 880 506 c 0,190,191
 897 496 897 496 909 484 c 0,192,193
 920 476 920 476 927 463 c 0,194,195
 936 451 936 451 933 437 c 0,196,197
 933 428 933 428 927 421 c 0,198,199
 923 415 923 415 910 410 c 0,200,201
 898 408 898 408 882 422 c 2,202,-1
 861 444 l 2,203,204
 846 462 846 462 826 479 c 0,205,206
 805 499 805 499 786 511 c 0,207,208
 757 531 757 531 743 539 c 0,209,210
 712 558 712 558 702 563 c 0,211,212
 686 573 686 573 662 582 c 2,213,-1
 650 587 l 1,214,-1
 657 605 l 1,181,-1
618 103 m 1,215,-1
 628 83 l 2,216,217
 631 75 631 75 649 48 c 0,218,219
 667 24 667 24 691 1 c 0,220,221
 718 -23 718 -23 744 -38 c 0,222,223
 772 -55 772 -55 799 -65 c 0,224,225
 831 -75 831 -75 842 -75 c 0,226,227
 855 -75 855 -75 860 -72 c 0,228,229
 867 -69 867 -69 876 -56 c 128,-1,230
 885 -43 885 -43 895 -21 c 2,231,-1
 922 37 l 1,232,-1
 939 31 l 1,233,-1
 919 -34 l 2,234,235
 914 -48 914 -48 916 -61 c 0,236,237
 917 -73 917 -73 928 -84 c 2,238,-1
 943 -99 l 2,239,240
 948 -108 948 -108 947 -114 c 0,241,242
 945 -123 945 -123 935 -127 c 0,243,244
 924 -131 924 -131 912 -132 c 0,245,246
 893 -132 893 -132 881 -131 c 0,247,248
 854 -128 854 -128 841 -126 c 0,249,250
 815 -123 815 -123 783 -110 c 0,251,252
 750 -98 750 -98 723 -83 c 0,253,254
 696 -66 696 -66 664 -37 c 0,255,256
 632 -7 632 -7 614 19 c 0,257,258
 603 36 603 36 582 78 c 2,259,-1
 572 98 l 1,260,-1
 438 89 l 2,261,262
 417 88 417 88 397 84 c 0,263,264
 381 82 381 82 374 81 c 2,265,-1
 357 77 l 1,266,-1
 331 108 l 1,267,-1
 561 130 l 1,268,269
 559 137 559 137 553 155 c 0,270,271
 548 170 548 170 541 202 c 0,272,273
 533 248 533 248 531 255 c 2,274,-1
 524 299 l 1,275,-1
 594 289 l 2,276,277
 610 287 610 287 617 283 c 0,278,279
 623 282 623 282 625 273 c 0,280,281
 625 266 625 266 614 259 c 0,282,283
 608 254 608 254 602 253 c 2,284,-1
 580 246 l 2,285,286
 580 243 580 243 581.5 233.5 c 128,-1,287
 583 224 583 224 584 217 c 0,288,289
 587 200 587 200 593 180 c 2,290,-1
 606 133 l 1,291,-1
 839 154 l 1,292,-1
 876 206 l 1,293,-1
 941 166 l 2,294,295
 955 158 955 158 955 152 c 0,296,297
 957 147 957 147 953 141 c 0,298,299
 952 137 952 137 943 135 c 2,300,-1
 618 103 l 1,215,-1
703 295 m 1,301,-1
 722 288 l 2,302,303
 730 286 730 286 750 277 c 0,304,305
 772 267 772 267 782 260 c 0,306,307
 797 253 797 253 805 241 c 0,308,309
 812 233 812 233 815 220 c 0,310,311
 817 208 817 208 810 199 c 128,-1,312
 803 190 803 190 794 190 c 0,313,314
 786 190 786 190 778 196 c 2,315,-1
 775 201 l 2,316,317
 772 206 772 206 769 209 c 0,318,319
 764 220 764 220 751 235 c 0,320,321
 739 250 739 250 726 260 c 0,322,323
 716 269 716 269 701 277 c 2,324,-1
 694 281 l 1,325,-1
 703 295 l 1,301,-1
323 307 m 1,326,-1
 382 281 l 2,327,328
 392 278 392 278 400 272 c 0,329,330
 408 267 408 267 407 258 c 0,331,332
 407 254 407 254 402 249 c 0,333,334
 396 245 396 245 386 244 c 2,335,-1
 358 242 l 1,336,-1
 339 217 l 1,337,-1
 312 181 l 2,338,339
 290 153 290 153 274 139 c 2,340,-1
 258 123 l 1,341,-1
 283 113 l 2,342,343
 301 107 301 107 302 97 c 0,344,345
 303 88 303 88 289 84 c 2,346,-1
 266 77 l 1,347,-1
 266 -10 l 2,348,349
 266 -12 266 -12 266.5 -29.5 c 128,-1,350
 267 -47 267 -47 268 -63 c 0,351,352
 269 -104 269 -104 273 -124 c 0,353,354
 275 -143 275 -143 274 -147 c 0,355,356
 274 -153 274 -153 272 -156 c 0,357,358
 272 -158 272 -158 265 -164 c 0,359,360
 259 -168 259 -168 250 -168 c 0,361,362
 243 -168 243 -168 233 -166 c 0,363,364
 228 -165 228 -165 222 -159 c 0,365,366
 218 -153 218 -153 218 -147 c 2,367,-1
 218 82 l 1,368,-1
 181 52 l 2,369,370
 176 49 176 49 163.5 40 c 128,-1,371
 151 31 151 31 144 26 c 2,372,-1
 95 -4 l 1,373,-1
 62 -23 l 1,374,-1
 51 -6 l 1,375,-1
 77 12 l 2,376,377
 89 19 89 19 118 44 c 2,378,-1
 162 83 l 2,379,380
 180 99 180 99 203 125 c 0,381,382
 223 146 223 146 246 175 c 0,383,384
 264 199 264 199 282 226 c 0,385,386
 301 258 301 258 306 270 c 2,387,-1
 323 307 l 1,326,-1
EndSplineSet
EndChar
StartChar: u2A724
Encoding: 173860 173860 14
Width: 1024
Flags: W
LayerCount: 2
Back
Fore
SplineSet
198 335 m 1,0,-1
 225 329 l 2,1,2
 243 325 243 325 251 320 c 0,3,4
 257 319 257 319 259 309 c 0,5,6
 261 302 261 302 254 297 c 0,7,8
 251 294 251 294 235 287 c 2,9,-1
 214 279 l 1,10,-1
 214 -11 l 2,11,12
 214 -18 214 -18 216 -64 c 0,13,14
 216 -66 216 -66 220 -117 c 0,15,16
 222 -139 222 -139 222 -143 c 128,-1,17
 222 -147 222 -147 219 -153 c 0,18,19
 218 -156 218 -156 212 -160 c 128,-1,20
 206 -164 206 -164 197 -164 c 0,21,22
 190 -164 190 -164 180 -162 c 0,23,24
 176 -160 176 -160 170 -155 c 0,25,26
 166 -149 166 -149 166 -143 c 2,27,-1
 166 296 l 1,28,-1
 134 265 l 2,29,30
 111 242 111 242 100 233 c 0,31,32
 89 223 89 223 59 202 c 2,33,-1
 38 188 l 1,34,-1
 26 203 l 1,35,-1
 60 234 l 2,36,37
 75 248 75 248 93 267 c 0,38,39
 118 295 118 295 131 310 c 0,40,41
 157 344 157 344 168 361 c 0,42,43
 180 379 180 379 205 423 c 0,44,45
 227 460 227 460 239 488 c 0,46,47
 252 515 252 515 258 537 c 2,48,-1
 267 566 l 1,49,-1
 339 539 l 2,50,51
 349 536 349 536 353 529 c 0,52,53
 358 524 358 524 358 518 c 0,54,55
 356 514 356 514 349 509 c 0,56,57
 336 506 336 506 327 505 c 2,58,-1
 307 503 l 1,59,-1
 289 471 l 2,60,61
 282 458 282 458 262 426 c 0,62,63
 241 393 241 393 228 375 c 0,64,65
 217 358 217 358 205 344 c 2,66,-1
 198 335 l 1,0,-1
508 647 m 2,67,68
 506 650 506 650 503.5 653 c 128,-1,69
 501 656 501 656 501 657 c 0,70,71
 501 660 501 660 498 671 c 0,72,73
 496 684 496 684 491 694 c 0,74,75
 486 708 486 708 474 725 c 0,76,77
 465 742 465 742 456 751 c 2,78,-1
 437 770 l 1,79,-1
 449 784 l 1,80,-1
 480 763 l 1,81,-1
 510 741 l 2,82,83
 524 731 524 731 535 717 c 0,84,85
 545 706 545 706 548 690 c 0,86,87
 551 676 551 676 550 667 c 0,88,89
 548 657 548 657 546 655 c 2,90,-1
 540 647 l 1,91,-1
 856 647 l 1,92,-1
 905 698 l 1,93,-1
 966 644 l 1,94,-1
 973 637 l 2,95,96
 976 634 976 634 973 628 c 0,97,98
 971 622 971 622 968 620 c 0,99,100
 964 618 964 618 961 618 c 2,101,-1
 170 618 l 1,102,-1
 90 616 l 2,103,104
 87 616 87 616 84 616 c 2,105,-1
 81 615 l 1,106,-1
 74 614 l 1,107,-1
 55 658 l 2,108,109
 58 658 58 658 62 657 c 128,-1,110
 66 656 66 656 69 655 c 0,111,112
 71 655 71 655 82 653.5 c 128,-1,113
 93 652 93 652 103 650 c 0,114,115
 154 647 154 647 170 647 c 2,116,-1
 508 647 l 2,67,68
703 426 m 1,117,-1
 698 436 l 2,118,119
 698 439 698 439 695 451 c 0,120,121
 694 459 694 459 688 473 c 0,122,123
 686 484 686 484 677 498 c 0,124,125
 668 516 668 516 663 521 c 2,126,-1
 647 541 l 1,127,-1
 659 553 l 1,128,-1
 679 538 l 2,129,130
 686 534 686 534 698 522 c 0,131,132
 706 516 706 516 717 505 c 0,133,134
 720 502 720 502 730 488 c 0,135,136
 737 477 737 477 741 467 c 0,137,138
 746 456 746 456 743 446 c 0,139,140
 743 436 743 436 740 435 c 2,141,-1
 733 426 l 1,142,-1
 845 426 l 1,143,-1
 894 477 l 1,144,-1
 954 423 l 1,145,-1
 961 416 l 2,146,147
 963 414 963 414 962 407 c 0,148,149
 961 405 961 405 956 400 c 0,150,151
 952 398 952 398 949 398 c 2,152,-1
 720 398 l 1,153,-1
 720 258 l 1,154,-1
 822 258 l 1,155,-1
 871 309 l 1,156,-1
 931 256 l 2,157,158
 934 254 934 254 938 248 c 0,159,160
 942 244 942 244 939 239 c 0,161,162
 939 235 939 235 933 232 c 128,-1,163
 927 229 927 229 926 229 c 2,164,-1
 720 228 l 1,165,-1
 720 90 l 1,166,-1
 822 90 l 1,167,-1
 871 141 l 1,168,-1
 931 87 l 1,169,-1
 937 83 l 2,170,171
 942 78 942 78 939 71 c 0,172,173
 938 67 938 67 933 64 c 0,174,175
 929 62 929 62 926 62 c 2,176,-1
 720 62 l 1,177,-1
 720 -81 l 1,178,-1
 855 -81 l 1,179,-1
 910 -27 l 1,180,-1
 974 -84 l 2,181,182
 980 -90 980 -90 981 -92 c 0,183,184
 983 -94 983 -94 982 -101 c 0,185,186
 981 -105 981 -105 976 -108 c 0,187,188
 970 -110 970 -110 969 -110 c 2,189,-1
 474 -110 l 1,190,191
 474 -120 474 -120 475 -127 c 128,-1,192
 476 -134 476 -134 476 -140 c 0,193,194
 476 -150 476 -150 472 -157 c 0,195,196
 469 -162 469 -162 462 -166 c 0,197,198
 456 -170 456 -170 444 -169 c 0,199,200
 437 -169 437 -169 431 -167 c 0,201,202
 428 -166 428 -166 425 -161 c 0,203,204
 423 -159 423 -159 423 -154 c 2,205,-1
 423 352 l 1,206,-1
 401 331 l 1,207,-1
 374 307 l 2,208,209
 356 293 356 293 348 288 c 2,210,-1
 333 277 l 1,211,-1
 318 292 l 1,212,-1
 337 309 l 2,213,214
 347 318 347 318 362 334 c 256,215,216
 377 350 377 350 398 376 c 2,217,-1
 428 417 l 2,218,219
 442 441 442 441 457 468 c 128,-1,220
 472 495 472 495 483 520 c 0,221,222
 490 535 490 535 495 550 c 2,223,-1
 504 578 l 1,224,-1
 556 557 l 2,225,226
 576 550 576 550 583 543 c 0,227,228
 589 538 589 538 589 532 c 0,229,230
 589 525 589 525 582 521 c 0,231,232
 575 519 575 519 560 516 c 2,233,-1
 539 514 l 1,234,-1
 532 499 l 2,235,236
 526 487 526 487 513 467 c 2,237,-1
 492 435 l 1,238,-1
 485 426 l 1,239,-1
 703 426 l 1,117,-1
472 62 m 1,240,-1
 472 -81 l 1,241,-1
 672 -81 l 1,242,-1
 672 62 l 1,243,-1
 472 62 l 1,240,-1
472 90 m 1,244,-1
 672 90 l 1,245,-1
 672 228 l 1,246,-1
 472 228 l 1,247,-1
 472 90 l 1,244,-1
472 258 m 1,248,-1
 672 258 l 1,249,-1
 672 398 l 1,250,-1
 472 398 l 1,251,-1
 472 258 l 1,248,-1
EndSplineSet
EndChar
StartChar: u2A726
Encoding: 173862 173862 15
Width: 1024
Flags: W
LayerCount: 2
Back
Fore
SplineSet
109 267 m 2,0,1
 109 266 109 266 108.5 263 c 128,-1,2
 108 260 108 260 108 258 c 0,3,4
 108 253 108 253 104 233 c 0,5,6
 101 215 101 215 92 198 c 0,7,8
 84 182 84 182 72 174 c 128,-1,9
 60 166 60 166 48 167 c 0,10,11
 38 167 38 167 30 175 c 0,12,13
 24 185 24 185 24 193 c 128,-1,14
 24 201 24 201 28 206 c 0,15,16
 30 212 30 212 43 223 c 2,17,-1
 59 239 l 2,18,19
 63 243 63 243 69 257 c 0,20,21
 76 270 76 270 77 278 c 0,22,23
 81 287 81 287 82 303 c 2,24,-1
 85 323 l 1,25,-1
 88 348 l 1,26,-1
 106 347 l 1,27,28
 109 317 109 317 109 305 c 2,29,-1
 110 294 l 1,30,-1
 396 294 l 1,31,-1
 426 327 l 1,32,-1
 475 290 l 2,33,34
 489 281 489 281 486 270 c 0,35,36
 486 261 486 261 470 257 c 2,37,-1
 442 250 l 1,38,39
 422 227 422 227 415 218 c 2,40,-1
 388 185 l 1,41,-1
 372 194 l 1,42,-1
 398 267 l 1,43,-1
 109 267 l 2,0,1
656 432 m 1,44,45
 652 426 652 426 641 417 c 0,46,47
 639 415 639 415 595 378 c 2,48,-1
 545 336 l 1,49,-1
 544 315 l 2,50,51
 544 302 544 302 534 299 c 0,52,53
 526 298 526 298 519 308 c 2,54,-1
 482 372 l 1,55,-1
 485 377 l 1,56,-1
 485 607 l 2,57,58
 485 632 485 632 484 645 c 0,59,60
 482 664 482 664 481 675 c 2,61,-1
 479 688 l 1,62,-1
 529 660 l 1,63,-1
 581 692 l 2,64,65
 604 706 604 706 617 719 c 2,66,-1
 634 734 l 1,67,-1
 689 698 l 2,68,69
 702 690 702 690 698 680 c 0,70,71
 695 671 695 671 689 670 c 0,72,73
 679 670 679 670 668 672 c 2,74,-1
 646 675 l 1,75,-1
 615 663 l 2,76,77
 600 657 600 657 586 654 c 2,78,-1
 533 639 l 1,79,-1
 532 387 l 1,80,-1
 568 406 l 2,81,82
 597 421 597 421 612 432 c 2,83,-1
 637 449 l 1,84,-1
 647 455 l 1,85,-1
 643 467 l 2,86,87
 641 474 641 474 635 484 c 0,88,89
 632 493 632 493 621 509 c 0,90,91
 615 523 615 523 605 533 c 2,92,-1
 601 538 l 1,93,-1
 615 552 l 1,94,-1
 639 530 l 2,95,96
 647 524 647 524 661 507 c 0,97,98
 671 497 671 497 687 474 c 0,99,100
 700 459 700 459 706 441 c 0,101,102
 713 426 713 426 714 410 c 0,103,104
 716 392 716 392 706 380 c 128,-1,105
 696 368 696 368 686 371 c 128,-1,106
 676 374 676 374 672 381 c 2,107,-1
 665 402 l 1,108,-1
 661 413 l 1,109,-1
 656 432 l 1,44,45
858 233 m 1,110,-1
 892 272 l 1,111,-1
 934 244 l 2,112,113
 944 238 944 238 949 232 c 0,114,115
 954 227 954 227 954 220 c 128,-1,116
 954 213 954 213 948 207 c 128,-1,117
 942 201 942 201 933 197 c 2,118,-1
 915 189 l 1,119,-1
 915 5 l 1,120,-1
 918 -56 l 2,121,122
 918 -81 918 -81 920 -103 c 0,123,124
 922 -120 922 -120 921 -124 c 0,125,126
 920 -130 920 -130 913 -137 c 0,127,128
 909 -141 909 -141 894 -144 c 0,129,130
 880 -146 880 -146 874 -142 c 0,131,132
 867 -137 867 -137 867 -129 c 2,133,-1
 867 -104 l 1,134,-1
 561 -104 l 1,135,-1
 561 -140 l 2,136,137
 561 -145 561 -145 554 -151 c 0,138,139
 546 -157 546 -157 528 -156 c 0,140,141
 516 -154 516 -154 513 -151 c 0,142,143
 508 -146 508 -146 507 -139 c 0,144,145
 505 -128 505 -128 509 -101 c 0,146,147
 509 -99 509 -99 509.5 -94.5 c 128,-1,148
 510 -90 510 -90 510.5 -81.5 c 128,-1,149
 511 -73 511 -73 511 -65 c 2,150,-1
 513 -17 l 1,151,-1
 513 209 l 2,152,153
 513 238 513 238 511 246 c 0,154,155
 509 262 509 262 507 270 c 2,156,-1
 506 278 l 1,157,-1
 565 233 l 1,158,-1
 858 233 l 1,110,-1
867 205 m 1,159,-1
 737 205 l 1,160,-1
 737 83 l 1,161,-1
 867 83 l 1,162,-1
 867 205 l 1,159,-1
561 -75 m 1,163,-1
 689 -75 l 1,164,-1
 689 55 l 1,165,-1
 561 55 l 1,166,-1
 561 -75 l 1,163,-1
737 -75 m 1,167,-1
 867 -75 l 1,168,-1
 867 55 l 1,169,-1
 737 55 l 1,170,-1
 737 -75 l 1,167,-1
561 83 m 1,171,-1
 689 83 l 1,172,-1
 689 205 l 1,173,-1
 561 205 l 1,174,-1
 561 83 l 1,171,-1
263 664 m 1,175,-1
 334 664 l 1,176,-1
 383 715 l 1,177,-1
 443 662 l 2,178,179
 446 660 446 660 450 654 c 0,180,181
 452 650 452 650 451 645 c 0,182,183
 450 641 450 641 445 638 c 0,184,185
 441 636 441 636 438 636 c 2,186,-1
 151 636 l 2,187,188
 120 636 120 636 97 634 c 0,189,190
 84 633 84 633 73 632 c 2,191,-1
 62 632 l 1,192,-1
 55 632 l 1,193,-1
 36 676 l 1,194,195
 46 674 46 674 51 672 c 0,196,197
 52 672 52 672 62.5 670.5 c 128,-1,198
 73 669 73 669 82 667 c 0,199,200
 127 664 127 664 151 664 c 2,201,-1
 239 664 l 2,202,203
 238 666 238 666 235.5 669 c 128,-1,204
 233 672 233 672 232 673 c 2,205,-1
 227 688 l 2,206,207
 226 701 226 701 213 721 c 0,208,209
 203 739 203 739 195 749 c 0,210,211
 189 760 189 760 174 773 c 2,212,-1
 169 778 l 1,213,-1
 181 793 l 1,214,-1
 205 779 l 2,215,216
 217 773 217 773 234 759 c 0,217,218
 253 743 253 743 262 732 c 0,219,220
 274 718 274 718 277 707 c 0,221,222
 280 697 280 697 279 689 c 0,223,224
 279 681 279 681 275 677 c 0,225,226
 274 675 274 675 269 670 c 2,227,-1
 263 664 l 1,175,-1
154 557 m 1,228,-1
 331 557 l 1,229,-1
 365 595 l 1,230,-1
 407 568 l 2,231,232
 418 562 418 562 422 556 c 0,233,234
 425 553 425 553 427 544 c 0,235,236
 427 537 427 537 421 531 c 0,237,238
 418 527 418 527 406 521 c 2,239,-1
 388 513 l 1,240,-1
 388 433 l 1,241,-1
 414 417 l 2,242,243
 419 415 419 415 422 409 c 0,244,245
 425 404 425 404 425 399 c 128,-1,246
 425 394 425 394 422 392 c 0,247,248
 419 389 419 389 416 389 c 2,249,-1
 150 389 l 1,250,-1
 150 370 l 2,251,252
 150 363 150 363 145 359 c 0,253,254
 139 355 139 355 129 356 c 0,255,256
 117 356 117 356 110 360 c 0,257,258
 107 362 107 362 101 368 c 0,259,260
 98 377 98 377 98 379 c 0,261,262
 98 389 98 389 99 398 c 2,263,-1
 100 408 l 2,264,265
 100 417 100 417 101 428 c 0,266,267
 102 438 102 438 102.5 449 c 128,-1,268
 103 460 103 460 103 462 c 2,269,-1
 103 515 l 2,270,271
 103 536 103 536 102 543 c 2,272,-1
 100 573 l 1,273,-1
 98 599 l 1,274,-1
 154 557 l 1,228,-1
150 417 m 1,275,-1
 341 417 l 1,276,-1
 341 528 l 1,277,-1
 150 528 l 1,278,-1
 150 417 l 1,275,-1
724 650 m 1,279,-1
 705 693 l 1,280,281
 710 692 710 692 718.5 690.5 c 128,-1,282
 727 689 727 689 729 689 c 0,283,284
 743 687 743 687 749 687 c 2,285,-1
 774 685 l 2,286,287
 778 685 778 685 783 684.5 c 128,-1,288
 788 684 788 684 789 684 c 2,289,-1
 893 684 l 1,290,-1
 926 721 l 1,291,-1
 968 694 l 2,292,293
 978 690 978 690 983 682 c 0,294,295
 988 677 988 677 988 670 c 128,-1,296
 988 663 988 663 983 657 c 0,297,298
 978 652 978 652 967 647 c 2,299,-1
 949 639 l 1,300,301
 949 631 949 631 945 587 c 2,302,-1
 939 514 l 1,303,-1
 933 447 l 2,304,305
 929 399 929 399 920 369 c 0,306,307
 914 343 914 343 901 328 c 0,308,309
 889 311 889 311 873 301 c 0,310,311
 858 292 858 292 845 289 c 2,312,-1
 827 284 l 1,313,314
 827 294 827 294 824 303 c 0,315,316
 823 313 823 313 815 322 c 0,317,318
 808 332 808 332 787 339 c 2,319,-1
 756 352 l 1,320,-1
 763 370 l 1,321,-1
 789 363 l 1,322,-1
 813 357 l 2,323,324
 829 353 829 353 836 354 c 0,325,326
 845 355 845 355 853 360 c 128,-1,327
 861 365 861 365 867 375 c 0,328,329
 872 383 872 383 877 403 c 0,330,331
 880 421 880 421 883 442 c 0,332,333
 887 469 887 469 891 509 c 0,334,335
 896 559 896 559 897 573 c 2,336,-1
 900 619 l 1,337,-1
 902 655 l 1,338,-1
 836 655 l 1,339,340
 835 645 835 645 833.5 629.5 c 128,-1,341
 832 614 832 614 832 613 c 0,342,343
 829 585 829 585 824 557 c 0,344,345
 820 525 820 525 811 486 c 0,346,347
 803 454 803 454 786 422 c 0,348,349
 771 390 771 390 752 367 c 0,350,351
 734 342 734 342 721 332 c 2,352,-1
 685 301 l 1,353,-1
 671 318 l 1,354,-1
 689 336 l 1,355,-1
 705 356 l 2,356,357
 711 364 711 364 723 382 c 0,358,359
 733 397 733 397 743 421 c 0,360,361
 756 452 756 452 760 467 c 0,362,363
 768 495 768 495 771 516 c 0,364,365
 774 535 774 535 780 569 c 0,366,367
 784 602 784 602 785 621 c 2,368,-1
 787 655 l 1,369,-1
 764 653 l 2,370,371
 762 653 762 653 756.5 652.5 c 128,-1,372
 751 652 751 652 747 652 c 0,373,374
 744 652 744 652 740 652 c 2,375,-1
 737 651 l 1,376,-1
 724 650 l 1,279,-1
355 201 m 1,377,-1
 412 158 l 2,378,379
 416 155 416 155 419 151 c 0,380,381
 421 147 421 147 420 141 c 0,382,383
 419 137 419 137 414 134 c 0,384,385
 410 132 410 132 407 132 c 2,386,-1
 275 132 l 1,387,-1
 275 -86 l 2,388,389
 275 -106 275 -106 270 -119 c 0,390,391
 266 -132 266 -132 255 -141 c 0,392,393
 247 -149 247 -149 232 -158 c 0,394,395
 215 -167 215 -167 212 -168 c 2,396,-1
 197 -171 l 1,397,398
 194 -158 194 -158 193 -153 c 0,399,400
 192 -144 192 -144 184 -135 c 0,401,402
 180 -126 180 -126 164 -120 c 0,403,404
 154 -114 154 -114 124 -109 c 2,405,-1
 94 -103 l 1,406,-1
 98 -80 l 1,407,408
 121 -83 121 -83 135 -86 c 2,409,-1
 161 -90 l 2,410,411
 165 -90 165 -90 177.5 -91.5 c 128,-1,412
 190 -93 190 -93 196 -93 c 0,413,414
 213 -93 213 -93 219 -87 c 0,415,416
 227 -81 227 -81 227 -65 c 2,417,-1
 227 132 l 1,418,-1
 176 132 l 2,419,420
 159 132 159 132 148 131 c 0,421,422
 143 131 143 131 136 130 c 0,423,424
 130 129 130 129 128 129 c 0,425,426
 122 129 122 129 114 128 c 2,427,-1
 102 126 l 1,428,-1
 82 169 l 1,429,430
 97 167 97 167 105 166 c 0,431,432
 110 166 110 166 126 164 c 2,433,-1
 152 162 l 1,434,-1
 176 160 l 1,435,-1
 315 160 l 1,436,-1
 355 201 l 1,377,-1
EndSplineSet
EndChar
StartChar: u2A728
Encoding: 173864 173864 16
Width: 1024
Flags: W
LayerCount: 2
Back
Fore
SplineSet
674 63 m 1,0,-1
 698 51 l 2,1,2
 713 44 713 44 754 19 c 0,3,4
 793 -2 793 -2 809 -15 c 0,5,6
 829 -29 829 -29 854 -49 c 0,7,8
 882 -72 882 -72 890 -85 c 0,9,10
 897 -96 897 -96 900 -113 c 0,11,12
 902 -129 902 -129 898 -138 c 128,-1,13
 894 -147 894 -147 884 -151 c 0,14,15
 873 -153 873 -153 858 -141 c 0,16,17
 848 -131 848 -131 839 -121 c 0,18,19
 828 -106 828 -106 806 -85 c 0,20,21
 788 -66 788 -66 753 -37 c 0,22,23
 722 -11 722 -11 667 20 c 2,24,-1
 655 27 l 1,25,-1
 646 32 l 2,26,27
 645 31 645 31 640 26.5 c 128,-1,28
 635 22 635 22 632 19 c 2,29,-1
 600 -9 l 2,30,31
 578 -28 578 -28 533 -56 c 0,32,33
 484 -85 484 -85 440 -102 c 0,34,35
 403 -117 403 -117 343 -137 c 2,36,-1
 309 -148 l 1,37,-1
 302 -128 l 1,38,-1
 358 -106 l 2,39,40
 390 -93 390 -93 431 -73 c 0,41,42
 473 -51 473 -51 516 -22 c 0,43,44
 562 10 562 10 597 44 c 2,45,-1
 607 54 l 1,46,-1
 597 59 l 1,47,-1
 552 82 l 2,48,49
 498 110 498 110 457 126 c 2,50,-1
 415 143 l 1,51,-1
 444 217 l 1,52,-1
 470 283 l 2,53,54
 484 318 484 318 493 351 c 0,55,56
 502 382 502 382 505 392 c 2,57,-1
 508 402 l 1,58,-1
 447 402 l 1,59,-1
 366 400 l 2,60,61
 364 400 364 400 361 399.5 c 128,-1,62
 358 399 358 399 357 399 c 2,63,-1
 351 398 l 1,64,-1
 332 443 l 1,65,66
 343 440 343 440 346 439 c 0,67,68
 347 439 347 439 357 437.5 c 128,-1,69
 367 436 367 436 376 434 c 0,70,71
 421 431 421 431 447 431 c 2,72,-1
 516 431 l 1,73,74
 520 442 520 442 520 444 c 0,75,76
 521 446 521 446 530 481 c 0,77,78
 537 509 537 509 545 549 c 2,79,-1
 557 611 l 1,80,-1
 562 643 l 1,81,-1
 563 652 l 1,82,-1
 637 624 l 2,83,84
 648 621 648 621 651 613 c 0,85,86
 653 606 653 606 649 601 c 0,87,88
 645 597 645 597 634 594 c 2,89,-1
 605 589 l 1,90,-1
 589 523 l 2,91,92
 583 495 583 495 567 442 c 2,93,-1
 563 431 l 1,94,-1
 759 430 l 1,95,96
 759 439 759 439 760 442 c 2,97,-1
 763 475 l 2,98,99
 765 514 765 514 764 520 c 2,100,-1
 761 542 l 1,101,-1
 824 528 l 2,102,103
 833 527 833 527 845 521 c 0,104,105
 854 518 854 518 855 509 c 0,106,107
 857 503 857 503 850 496 c 0,108,109
 844 492 844 492 836 490 c 2,110,-1
 816 488 l 1,111,112
 814 466 814 466 813 456 c 2,113,-1
 812 441 l 1,114,-1
 811 430 l 1,115,-1
 864 430 l 1,116,-1
 911 478 l 1,117,-1
 966 432 l 2,118,119
 972 428 972 428 976 421 c 0,120,121
 980 417 980 417 979 411 c 0,122,123
 979 403 979 403 972 402 c 2,124,-1
 964 402 l 1,125,-1
 807 402 l 1,126,127
 807 394 807 394 803 374 c 0,128,129
 802 362 802 362 790 310 c 0,130,131
 781 268 781 268 763 219 c 0,132,133
 746 172 746 172 724 135 c 0,134,135
 708 105 708 105 681 71 c 2,136,-1
 674 63 l 1,0,-1
631 82 m 2,137,138
 633 84 633 84 651 106 c 0,139,140
 665 123 665 123 684 158 c 0,141,142
 700 188 700 188 719 239 c 0,143,144
 734 279 734 279 744 323 c 0,145,146
 753 373 753 373 755 388 c 2,147,-1
 756 402 l 1,148,-1
 555 402 l 1,149,-1
 547 378 l 2,150,151
 544 367 544 367 528 326 c 0,152,153
 515 289 515 289 497 250 c 0,154,155
 477 205 477 205 464 183 c 2,156,-1
 449 155 l 1,157,158
 485 142 485 142 498 137 c 2,159,-1
 563 110 l 2,160,161
 616 89 616 89 621 86 c 2,162,-1
 631 82 l 2,137,138
367 660 m 1,163,-1
 348 704 l 1,164,165
 358 702 358 702 363 700 c 2,166,-1
 393 696 l 2,167,168
 435 693 435 693 463 693 c 2,169,-1
 841 692 l 1,170,-1
 886 744 l 1,171,-1
 953 691 l 1,172,-1
 960 684 l 2,173,174
 961 683 961 683 961 677 c 0,175,176
 963 673 963 673 959 669 c 0,177,178
 959 666 959 666 956 665 c 2,179,-1
 954 664 l 2,180,181
 952 664 952 664 950 664 c 2,182,-1
 463 664 l 2,183,184
 401 664 401 664 374 660 c 1,185,-1
 367 660 l 1,163,-1
240 782 m 1,186,-1
 314 753 l 2,187,188
 329 749 329 749 332 740 c 0,189,190
 334 732 334 732 330 727 c 0,191,192
 326 723 326 723 312 720 c 2,193,-1
 283 716 l 1,194,-1
 267 671 l 2,195,196
 262 654 262 654 249 620 c 256,197,198
 236 586 236 586 231 576 c 2,199,-1
 200 514 l 1,200,-1
 247 498 l 2,201,202
 260 494 260 494 259 483 c 0,203,204
 259 473 259 473 249 469 c 2,205,-1
 224 460 l 1,206,-1
 224 -57 l 2,207,208
 224 -77 224 -77 225 -84 c 0,209,210
 225 -96 225 -96 226 -107 c 0,211,212
 226 -111 226 -111 226.5 -119.5 c 128,-1,213
 227 -128 227 -128 228 -132 c 0,214,215
 229 -138 229 -138 229 -146 c 0,216,217
 229 -153 229 -153 225 -156 c 0,218,219
 221 -160 221 -160 214 -163 c 0,220,221
 204 -167 204 -167 196 -167 c 0,222,223
 191 -167 191 -167 185 -165 c 2,224,-1
 178 -158 l 2,225,226
 176 -152 176 -152 176 -144 c 2,227,-1
 176 473 l 1,228,-1
 156 440 l 1,229,-1
 131 402 l 2,230,231
 116 377 116 377 101 358 c 0,232,233
 91 344 91 344 68 320 c 2,234,-1
 45 294 l 1,235,-1
 32 307 l 1,236,-1
 54 338 l 1,237,-1
 80 377 l 1,238,-1
 110 428 l 2,239,240
 126 456 126 456 140 485 c 128,-1,241
 154 514 154 514 167 545 c 0,242,243
 172 557 172 557 181.5 582 c 128,-1,244
 191 607 191 607 193 612 c 0,245,246
 196 621 196 621 203 641 c 128,-1,247
 210 661 210 661 213 669 c 128,-1,248
 216 677 216 677 227 720 c 0,249,250
 236 754 236 754 237 759 c 2,251,-1
 240 782 l 1,186,-1
EndSplineSet
EndChar
StartChar: u2A72B
Encoding: 173867 173867 17
Width: 1024
Flags: W
LayerCount: 2
Back
Fore
SplineSet
249 777 m 1,0,-1
 323 748 l 2,1,2
 338 744 338 744 341 734 c 0,3,4
 343 726 343 726 339 721 c 0,5,6
 334 716 334 716 321 715 c 2,7,-1
 292 710 l 1,8,-1
 276 665 l 2,9,10
 272 648 272 648 258 614 c 0,11,12
 245 580 245 580 240 570 c 2,13,-1
 209 509 l 1,14,-1
 256 492 l 2,15,16
 268 488 268 488 268 477 c 0,17,18
 268 468 268 468 258 464 c 2,19,-1
 233 454 l 1,20,-1
 233 -62 l 2,21,22
 233 -83 233 -83 234 -89 c 0,23,24
 234 -102 234 -102 235 -113 c 0,25,26
 235 -117 235 -117 235.5 -125 c 128,-1,27
 236 -133 236 -133 237 -137 c 0,28,29
 238 -143 238 -143 238 -151 c 0,30,31
 238 -158 238 -158 234 -162 c 2,32,-1
 224 -168 l 2,33,34
 214 -172 214 -172 205 -172 c 0,35,36
 197 -172 197 -172 194 -170 c 2,37,-1
 187 -163 l 2,38,39
 185 -157 185 -157 185 -149 c 2,40,-1
 185 467 l 1,41,-1
 167 437 l 1,42,-1
 142 398 l 2,43,44
 129 379 129 379 111 354 c 0,45,46
 94 333 94 333 77 315 c 2,47,-1
 54 289 l 1,48,-1
 41 302 l 1,49,-1
 66 338 l 2,50,51
 85 365 85 365 88 371 c 2,52,-1
 117 422 l 1,53,-1
 149 482 l 2,54,55
 173 534 173 534 175 538 c 2,56,-1
 202 606 l 2,57,58
 205 615 205 615 212 635 c 128,-1,59
 219 655 219 655 222 663 c 0,60,61
 225 672 225 672 230 691 c 128,-1,62
 235 710 235 710 236 714 c 0,63,64
 246 750 246 750 246 754 c 2,65,-1
 249 777 l 1,0,-1
437 664 m 1,66,-1
 417 707 l 1,67,68
 437 705 437 705 445 703 c 0,69,70
 463 701 463 701 464 701 c 2,71,-1
 486 699 l 2,72,73
 492 699 492 699 500.5 698.5 c 128,-1,74
 509 698 509 698 511 698 c 2,75,-1
 812 698 l 1,76,-1
 846 736 l 1,77,-1
 888 709 l 2,78,79
 898 704 898 704 903 697 c 0,80,81
 908 692 908 692 908 685 c 128,-1,82
 908 678 908 678 903 673 c 0,83,84
 896 666 896 666 889 663 c 2,85,-1
 880 659 l 1,86,-1
 869 654 l 1,87,-1
 851 315 l 1,88,-1
 863 315 l 1,89,-1
 912 360 l 1,90,-1
 965 313 l 2,91,92
 973 307 973 307 974 303 c 0,93,94
 976 301 976 301 976 295 c 128,-1,95
 976 289 976 289 974 287 c 128,-1,96
 972 285 972 285 959 285 c 2,97,-1
 849 285 l 1,98,-1
 828 -89 l 1,99,-1
 863 -89 l 1,100,-1
 913 -38 l 1,101,-1
 973 -92 l 1,102,-1
 980 -99 l 2,103,104
 982 -101 982 -101 981 -108 c 0,105,106
 979 -113 979 -113 975 -116 c 0,107,108
 971 -118 971 -118 968 -118 c 2,109,-1
 435 -118 l 2,110,111
 427 -118 427 -118 399 -120 c 2,112,-1
 386 -121 l 2,113,114
 382 -121 382 -121 378 -122 c 2,115,-1
 373 -122 l 1,116,-1
 360 -124 l 1,117,-1
 341 -81 l 1,118,-1
 368 -84 l 2,119,120
 383 -86 383 -86 387 -87 c 0,121,122
 399 -87 399 -87 410 -88 c 0,123,124
 416 -88 416 -88 424.5 -88.5 c 128,-1,125
 433 -89 433 -89 435 -89 c 2,126,-1
 486 -89 l 1,127,-1
 520 285 l 1,128,-1
 473 285 l 2,129,130
 453 285 453 285 441 284 c 2,131,-1
 418 282 l 1,132,-1
 410 282 l 1,133,-1
 398 280 l 1,134,-1
 379 323 l 1,135,136
 395 321 395 321 405 319 c 0,137,138
 420 317 420 317 428 316 c 0,139,140
 431 316 431 316 435.5 315.5 c 128,-1,141
 440 315 440 315 442 315 c 2,142,-1
 477 315 l 1,143,-1
 523 315 l 1,144,-1
 555 669 l 1,145,-1
 511 669 l 2,146,147
 490 669 490 669 476 668 c 2,148,-1
 462 667 l 2,149,150
 458 667 458 667 454 666 c 2,151,-1
 449 666 l 1,152,-1
 437 664 l 1,66,-1
533 -89 m 1,153,-1
 779 -89 l 1,154,-1
 799 285 l 1,155,-1
 568 285 l 1,156,-1
 533 -89 l 1,153,-1
571 315 m 1,157,-1
 801 315 l 1,158,-1
 822 669 l 1,159,-1
 603 669 l 1,160,-1
 571 315 l 1,157,-1
EndSplineSet
EndChar
StartChar: u2A72C
Encoding: 173868 173868 18
Width: 1024
Flags: W
LayerCount: 2
Back
Fore
SplineSet
486 340 m 1,0,-1
 339 340 l 2,1,2
 271 340 271 340 250 337 c 2,3,-1
 243 336 l 1,4,-1
 224 380 l 1,5,6
 229 379 229 379 237 377 c 0,7,8
 239 377 239 377 274 372 c 0,9,10
 316 368 316 368 329 368 c 2,11,-1
 486 368 l 1,12,-1
 486 453 l 2,13,14
 486 485 486 485 485 501 c 0,15,16
 484 509 484 509 483.5 517.5 c 128,-1,17
 483 526 483 526 483 527 c 2,18,-1
 482 533 l 1,19,-1
 545 521 l 2,20,21
 570 517 570 517 574 511 c 0,22,23
 579 506 579 506 579 500 c 0,24,25
 579 493 579 493 572 487 c 0,26,27
 568 482 568 482 554 478 c 2,28,-1
 535 472 l 1,29,-1
 535 368 l 1,30,-1
 703 368 l 1,31,-1
 751 421 l 1,32,-1
 801 376 l 2,33,34
 816 364 816 364 818 356 c 0,35,36
 818 351 818 351 815 347 c 2,37,-1
 810 342 l 2,38,39
 808 340 808 340 803 340 c 2,40,-1
 535 340 l 1,41,-1
 535 190 l 1,42,-1
 840 190 l 1,43,-1
 889 246 l 1,44,-1
 953 195 l 2,45,46
 966 185 966 185 967 179 c 0,47,48
 968 174 968 174 964 167 c 0,49,50
 959 160 959 160 948 160 c 2,51,-1
 535 160 l 1,52,-1
 535 -8 l 2,53,54
 535 -54 535 -54 536 -74 c 0,55,56
 537 -101 537 -101 539 -117 c 0,57,58
 541 -135 541 -135 541 -137 c 2,59,-1
 541 -149 l 2,60,61
 541 -155 541 -155 540 -158 c 0,62,63
 540 -161 540 -161 535 -168 c 0,64,65
 530 -172 530 -172 523 -177 c 0,66,67
 511 -179 511 -179 509 -179 c 0,68,69
 502 -178 502 -178 494 -173 c 2,70,-1
 487 -166 l 1,71,-1
 486 -162 l 2,72,73
 486 -159 486 -159 486 -153 c 128,-1,74
 486 -147 486 -147 486 -140 c 2,75,-1
 486 160 l 1,76,-1
 214 160 l 2,77,78
 182 160 182 160 159 159 c 0,79,80
 146 158 146 158 136 158 c 2,81,-1
 125 157 l 1,82,-1
 118 156 l 1,83,-1
 99 200 l 2,84,85
 103 199 103 199 113 197 c 0,86,87
 114 197 114 197 124 195.5 c 128,-1,88
 134 194 134 194 142 192 c 0,89,90
 168 190 168 190 200 190 c 2,91,-1
 486 190 l 1,92,-1
 486 340 l 1,0,-1
324 129 m 1,93,-1
 386 88 l 2,94,95
 400 79 400 79 395 67 c 0,96,97
 391 57 391 57 372 58 c 2,98,-1
 352 59 l 1,99,-1
 301 12 l 2,100,101
 272 -15 272 -15 257 -28 c 0,102,103
 242 -42 242 -42 207 -64 c 0,104,105
 175 -85 175 -85 152 -97 c 2,106,-1
 99 -120 l 1,107,-1
 84 -126 l 1,108,-1
 76 -108 l 1,109,-1
 105 -90 l 1,110,-1
 139 -68 l 2,111,112
 151 -60 151 -60 181 -34 c 0,113,114
 206 -12 206 -12 235 17 c 0,115,116
 262 44 262 44 282 69 c 2,117,-1
 315 116 l 1,118,-1
 324 129 l 1,93,-1
666 105 m 1,119,-1
 683 96 l 1,120,-1
 736 67 l 1,121,-1
 783 40 l 1,122,-1
 830 11 l 2,123,124
 856 -4 856 -4 873 -21 c 0,125,126
 888 -33 888 -33 897 -49 c 0,127,128
 907 -65 907 -65 908 -85 c 0,129,130
 910 -106 910 -106 900 -113 c 0,131,132
 890 -121 890 -121 881 -120 c 0,133,134
 871 -120 871 -120 862 -114 c 0,135,136
 852 -104 852 -104 841 -88 c 0,137,138
 830 -70 830 -70 817 -55 c 0,139,140
 808 -42 808 -42 792 -26 c 2,141,-1
 756 9 l 2,142,143
 726 35 726 35 722 38 c 2,144,-1
 669 75 l 1,145,-1
 653 85 l 1,146,-1
 666 105 l 1,119,-1
477 790 m 1,147,-1
 550 768 l 2,148,149
 568 764 568 764 571 754 c 0,150,151
 574 746 574 746 571 740 c 0,152,153
 568 736 568 736 556 733 c 2,154,-1
 528 727 l 1,155,-1
 545 708 l 2,156,157
 549 704 549 704 575 676 c 2,158,-1
 618 635 l 1,159,-1
 680 587 l 2,160,161
 716 561 716 561 753 538 c 0,162,163
 789 518 789 518 825 502 c 2,164,-1
 913 467 l 2,165,166
 962 450 962 450 989 445 c 2,167,-1
 1000 444 l 1,168,-1
 1000 423 l 1,169,-1
 982 423 l 2,170,171
 974 423 974 423 964 420 c 0,172,173
 954 418 954 418 947 408 c 2,174,-1
 934 393 l 1,175,176
 914 400 914 400 883 414 c 0,177,178
 854 426 854 426 802 453 c 0,179,180
 749 482 749 482 715 505 c 0,181,182
 668 540 668 540 651 555 c 0,183,184
 621 582 621 582 594 610 c 0,185,186
 566 642 566 642 552 658 c 2,187,-1
 510 711 l 1,188,-1
 477 667 l 1,189,-1
 433 615 l 2,190,191
 404 583 404 583 369 552 c 0,192,193
 332 520 332 520 297 496 c 0,194,195
 265 472 265 472 219 447 c 0,196,197
 179 425 179 425 142 407 c 128,-1,198
 105 389 105 389 80 381 c 2,199,-1
 63 376 l 1,200,-1
 55 394 l 1,201,-1
 88 411 l 1,202,-1
 135 438 l 2,203,204
 151 448 151 448 198 478 c 0,205,206
 228 498 228 498 273 535 c 0,207,208
 321 575 321 575 342 596 c 0,209,210
 365 619 365 619 395 655 c 0,211,212
 423 689 423 689 442 719 c 128,-1,213
 461 749 461 749 468 769 c 2,214,-1
 477 790 l 1,147,-1
EndSplineSet
EndChar
StartChar: u2A72D
Encoding: 173869 173869 19
Width: 1024
Flags: W
LayerCount: 2
Back
Fore
SplineSet
236 780 m 1,0,-1
 310 751 l 2,1,2
 324 746 324 746 327 738 c 128,-1,3
 330 730 330 730 325 725 c 0,4,5
 321 721 321 721 308 718 c 2,6,-1
 278 714 l 1,7,-1
 263 669 l 2,8,9
 261 661 261 661 244 618 c 0,10,11
 233 584 233 584 226 574 c 2,12,-1
 196 513 l 1,13,-1
 242 496 l 2,14,15
 255 492 255 492 255 481 c 0,16,17
 255 472 255 472 244 467 c 2,18,-1
 220 458 l 1,19,-1
 220 -55 l 1,20,-1
 220 -81 l 2,21,22
 220 -93 220 -93 221 -105 c 0,23,24
 221 -109 221 -109 221.5 -117.5 c 128,-1,25
 222 -126 222 -126 223 -130 c 0,26,27
 224 -136 224 -136 224 -144 c 0,28,29
 224 -150 224 -150 221 -154 c 0,30,31
 218 -156 218 -156 211 -161 c 0,32,33
 201 -165 201 -165 192 -165 c 0,34,35
 184 -165 184 -165 180 -162 c 0,36,37
 177 -160 177 -160 174 -156 c 0,38,39
 171 -147 171 -147 171 -142 c 2,40,-1
 171 471 l 1,41,-1
 147 432 l 1,42,-1
 122 393 l 2,43,44
 114 380 114 380 98 359 c 0,45,46
 71 326 71 326 64 318 c 2,47,-1
 40 292 l 1,48,-1
 27 305 l 1,49,-1
 52 340 l 1,50,-1
 77 379 l 2,51,52
 83 388 83 388 105 426 c 0,53,54
 122 454 122 454 135 483 c 0,55,56
 150 515 150 515 162 544 c 0,57,58
 180 588 180 588 188 610 c 0,59,60
 204 653 204 653 208 667 c 0,61,62
 216 691 216 691 223 718 c 0,63,64
 231 745 231 745 232 758 c 2,65,-1
 236 780 l 1,0,-1
373 741 m 1,66,-1
 434 697 l 1,67,-1
 880 697 l 1,68,-1
 915 735 l 1,69,-1
 956 708 l 2,70,71
 969 698 969 698 972 695 c 0,72,73
 976 691 976 691 976 683 c 0,74,75
 976 676 976 676 971 671 c 0,76,77
 965 665 965 665 956 661 c 2,78,-1
 937 653 l 1,79,-1
 939 9 l 2,80,81
 940 -7 940 -7 940 -44 c 2,82,-1
 940 -73 l 1,83,-1
 941 -95 l 1,84,-1
 942 -120 l 2,85,86
 944 -140 944 -140 940 -146 c 0,87,88
 939 -152 939 -152 930 -157 c 0,89,90
 925 -161 925 -161 919 -162 c 2,91,-1
 909 -162 l 2,92,93
 898 -162 898 -162 895 -160 c 2,94,-1
 890 -155 l 2,95,96
 888 -153 888 -153 888 -149 c 2,97,-1
 888 -102 l 1,98,-1
 429 -102 l 1,99,-1
 429 -149 l 2,100,101
 429 -153 429 -153 425 -160 c 0,102,103
 423 -167 423 -167 399 -162 c 0,104,105
 394 -161 394 -161 386 -156 c 0,106,107
 380 -152 380 -152 377 -138 c 0,108,109
 376 -125 376 -125 377 -106 c 0,110,111
 378 -93 378 -93 380 -69 c 0,112,113
 381 -57 381 -57 381 9 c 2,114,-1
 381 674 l 2,115,116
 381 699 381 699 379 709 c 0,117,118
 379 716 379 716 374 734 c 2,119,-1
 373 741 l 1,66,-1
429 157 m 1,120,-1
 429 -75 l 1,121,-1
 888 -75 l 1,122,-1
 888 670 l 1,123,-1
 429 670 l 1,124,-1
 429 448 l 1,125,-1
 691 448 l 1,126,-1
 725 486 l 1,127,-1
 767 459 l 2,128,129
 777 452 777 452 781 447 c 0,130,131
 785 443 785 443 787 434 c 0,132,133
 787 427 787 427 781 421 c 0,134,135
 776 416 776 416 766 412 c 2,136,-1
 748 404 l 1,137,-1
 748 197 l 1,138,-1
 769 181 l 2,139,140
 782 172 782 172 777 164 c 0,141,142
 774 156 774 156 758 156 c 2,143,-1
 429 157 l 1,120,-1
429 183 m 1,144,-1
 700 183 l 1,145,-1
 700 420 l 1,146,-1
 429 420 l 1,147,-1
 429 183 l 1,144,-1
EndSplineSet
EndChar
StartChar: u2A72E
Encoding: 173870 173870 20
Width: 1024
Flags: W
LayerCount: 2
Back
Fore
SplineSet
874 -83 m 1,0,-1
 473 -83 l 1,1,-1
 474 -129 l 2,2,3
 474 -141 474 -141 472 -144 c 0,4,5
 471 -146 471 -146 463 -151 c 0,6,7
 454 -154 454 -154 449 -154 c 0,8,9
 439 -154 439 -154 432 -150 c 0,10,11
 426 -146 426 -146 423 -141 c 0,12,13
 421 -134 421 -134 422 -127 c 2,14,-1
 423 -104 l 1,15,-1
 424 -69 l 1,16,-1
 425 -40 l 2,17,18
 426 -27 426 -27 426 0 c 2,19,-1
 426 664 l 2,20,21
 426 694 426 694 424 704 c 2,22,-1
 420 738 l 1,23,-1
 480 697 l 1,24,-1
 868 697 l 1,25,-1
 899 735 l 1,26,-1
 941 708 l 2,27,28
 957 698 957 698 960 693 c 0,29,30
 963 690 963 690 963 682 c 0,31,32
 963 676 963 676 957 671 c 0,33,34
 954 668 954 668 943 663 c 2,35,-1
 921 653 l 1,36,-1
 921 4 l 1,37,-1
 922 -28 l 1,38,-1
 923 -65 l 2,39,40
 923 -77 923 -77 924 -92.5 c 128,-1,41
 925 -108 925 -108 925 -111 c 0,42,43
 925 -119 925 -119 926 -124 c 0,44,45
 927 -127 927 -127 927 -131 c 128,-1,46
 927 -135 927 -135 922 -140 c 0,47,48
 919 -143 919 -143 913 -147 c 0,49,50
 906 -149 906 -149 898 -148 c 0,51,52
 890 -148 890 -148 884 -146 c 0,53,54
 880 -145 880 -145 876 -142 c 0,55,56
 874 -138 874 -138 874 -131 c 2,57,-1
 874 -83 l 1,0,-1
473 451 m 1,58,-1
 874 451 l 1,59,-1
 874 668 l 1,60,-1
 473 668 l 1,61,-1
 473 451 l 1,58,-1
473 203 m 1,62,-1
 874 203 l 1,63,-1
 874 422 l 1,64,-1
 473 422 l 1,65,-1
 473 203 l 1,62,-1
473 -55 m 1,66,-1
 874 -55 l 1,67,-1
 874 173 l 1,68,-1
 473 173 l 1,69,-1
 473 -55 l 1,66,-1
239 776 m 1,70,-1
 312 747 l 2,71,72
 327 743 327 743 330 734 c 0,73,74
 332 727 332 727 328 722 c 0,75,76
 322 716 322 716 310 715 c 2,77,-1
 281 710 l 1,78,79
 269 674 269 674 260 650 c 0,80,81
 252 628 252 628 236 590 c 0,82,83
 221 554 221 554 212 536 c 2,84,-1
 198 509 l 1,85,-1
 245 492 l 2,86,87
 258 488 258 488 257 477 c 0,88,89
 257 468 257 468 247 464 c 2,90,-1
 222 454 l 1,91,-1
 222 -63 l 2,92,93
 222 -83 222 -83 223 -89 c 0,94,95
 223 -102 223 -102 224 -113 c 0,96,97
 224 -117 224 -117 224.5 -125.5 c 128,-1,98
 225 -134 225 -134 226 -138 c 0,99,100
 227 -143 227 -143 227 -151 c 0,101,102
 227 -158 227 -158 223 -162 c 0,103,104
 221 -164 221 -164 212 -168 c 0,105,106
 202 -172 202 -172 194 -172 c 128,-1,107
 186 -172 186 -172 183 -170 c 2,108,-1
 176 -163 l 2,109,110
 174 -157 174 -157 174 -150 c 2,111,-1
 174 467 l 1,112,-1
 157 438 l 2,113,114
 156 435 156 435 116 377 c 0,115,116
 82 328 82 328 69 315 c 2,117,-1
 43 288 l 1,118,-1
 30 302 l 1,119,-1
 60 344 l 2,120,121
 75 363 75 363 99 403 c 128,-1,122
 123 443 123 443 138 473 c 0,123,124
 155 509 155 509 167 538 c 0,125,126
 176 558 176 558 189 596 c 0,127,128
 200 628 200 628 209 659 c 0,129,130
 223 702 223 702 226 716 c 2,131,-1
 235 754 l 1,132,-1
 239 776 l 1,70,-1
EndSplineSet
EndChar
StartChar: u2A733
Encoding: 173875 173875 21
Width: 1024
Flags: W
LayerCount: 2
Back
Fore
SplineSet
239 776 m 1,0,-1
 313 747 l 2,1,2
 327 742 327 742 330 734 c 0,3,4
 333 727 333 727 328 722 c 0,5,6
 322 716 322 716 311 715 c 2,7,-1
 281 710 l 1,8,-1
 265 663 l 1,9,-1
 247 613 l 2,10,11
 235 582 235 582 229 570 c 2,12,-1
 199 509 l 1,13,-1
 245 492 l 2,14,15
 258 488 258 488 258 477 c 0,16,17
 258 469 258 469 247 464 c 2,18,-1
 223 454 l 1,19,-1
 223 -63 l 1,20,-1
 223 -89 l 2,21,22
 223 -102 223 -102 224 -113 c 0,23,24
 224 -117 224 -117 224.5 -125.5 c 128,-1,25
 225 -134 225 -134 226 -138 c 0,26,27
 227 -143 227 -143 227 -151 c 0,28,29
 227 -158 227 -158 224 -162 c 0,30,31
 223 -163 223 -163 213 -168 c 0,32,33
 203 -172 203 -172 195 -172 c 0,34,35
 186 -172 186 -172 183 -170 c 0,36,37
 181 -169 181 -169 177 -163 c 0,38,39
 174 -154 174 -154 174 -150 c 2,40,-1
 174 467 l 1,41,-1
 154 435 l 1,42,-1
 130 396 l 2,43,44
 115 374 115 374 100 354 c 0,45,46
 89 340 89 340 67 314 c 2,47,-1
 43 288 l 1,48,-1
 30 302 l 1,49,-1
 52 333 l 1,50,-1
 78 372 l 1,51,-1
 109 423 l 2,52,53
 123 446 123 446 138 479 c 0,54,55
 153 511 153 511 165 540 c 0,56,57
 167 545 167 545 191 606 c 0,58,59
 196 618 196 618 211 664 c 0,60,61
 218 684 218 684 226 714 c 0,62,63
 234 743 234 743 235 754 c 2,64,-1
 239 776 l 1,0,-1
443 274 m 1,65,-1
 443 -68 l 1,66,67
 454 -65 454 -65 472 -61 c 2,68,-1
 516 -47 l 2,69,70
 558 -33 558 -33 579 -25 c 0,71,72
 613 -12 613 -12 625 -6 c 2,73,-1
 667 13 l 1,74,-1
 677 -3 l 1,75,-1
 633 -32 l 1,76,-1
 590 -57 l 2,77,78
 558 -74 558 -74 544 -82 c 2,79,-1
 498 -103 l 1,80,-1
 448 -124 l 1,81,-1
 443 -144 l 2,82,83
 440 -157 440 -157 433 -160 c 0,84,85
 428 -162 428 -162 423 -159 c 0,86,87
 418 -154 418 -154 414 -144 c 2,88,-1
 389 -80 l 1,89,-1
 396 -79 l 1,90,-1
 396 627 l 1,91,-1
 394 680 l 2,92,93
 394 690 394 690 394 698.5 c 128,-1,94
 394 707 394 707 394 712 c 2,95,-1
 393 716 l 1,96,-1
 388 753 l 1,97,-1
 443 715 l 1,98,-1
 828 715 l 1,99,-1
 862 753 l 1,100,-1
 904 726 l 2,101,102
 915 720 915 720 919 713 c 0,103,104
 922 710 922 710 924 701 c 0,105,106
 924 694 924 694 918 688 c 0,107,108
 914 684 914 684 903 679 c 2,109,-1
 885 671 l 1,110,-1
 885 505 l 1,111,-1
 900 495 l 2,112,113
 908 491 908 491 910 480 c 0,114,115
 910 472 910 472 905 469 c 2,116,-1
 899 467 l 1,117,-1
 688 467 l 1,118,119
 688 439 688 439 689 429 c 0,120,121
 689 416 689 416 692 377 c 0,122,123
 693 349 693 349 696 329 c 2,124,-1
 700 303 l 1,125,-1
 847 303 l 1,126,-1
 896 354 l 1,127,-1
 957 300 l 1,128,-1
 964 293 l 2,129,130
 966 291 966 291 965 284 c 0,131,132
 963 279 963 279 959 276 c 0,133,134
 955 274 955 274 952 274 c 2,135,-1
 704 274 l 1,136,137
 708 253 708 253 715 223 c 0,138,139
 718 210 718 210 729 170 c 0,140,141
 740 135 740 135 751 112 c 0,142,143
 768 77 768 77 783 52 c 0,144,145
 799 25 799 25 818 1 c 0,146,147
 829 -12 829 -12 853 -36 c 0,148,149
 871 -52 871 -52 886 -60 c 0,150,151
 903 -67 903 -67 910 -63 c 0,152,153
 916 -59 916 -59 920 -52 c 0,154,155
 923 -46 923 -46 930 -23 c 2,156,-1
 965 86 l 1,157,-1
 982 81 l 1,158,-1
 965 -17 l 2,159,160
 962 -40 962 -40 959 -56 c 0,161,162
 957 -73 957 -73 958 -77 c 0,163,164
 960 -84 960 -84 964 -95 c 2,165,-1
 975 -112 l 2,166,167
 980 -120 980 -120 977 -129 c 0,168,169
 975 -137 975 -137 961 -143 c 0,170,171
 947 -148 947 -148 920 -138 c 0,172,173
 891 -128 891 -128 872 -118 c 0,174,175
 857 -110 857 -110 836 -94 c 0,176,177
 810 -72 810 -72 800 -62 c 0,178,179
 777 -34 777 -34 769 -23 c 2,180,-1
 741 20 l 1,181,-1
 715 72 l 2,182,183
 710 84 710 84 702 104 c 128,-1,184
 694 124 694 124 692 129 c 0,185,186
 683 156 683 156 677 177 c 0,187,188
 674 193 674 193 665 229 c 2,189,-1
 656 274 l 1,190,-1
 443 274 l 1,65,-1
443 303 m 1,191,-1
 652 303 l 1,192,193
 650 327 650 327 648 340 c 2,194,-1
 645 387 l 2,195,196
 645 395 645 395 643.5 410.5 c 128,-1,197
 642 426 642 426 642 432 c 2,198,-1
 641 467 l 1,199,-1
 443 467 l 1,200,-1
 443 303 l 1,191,-1
443 686 m 1,201,-1
 443 495 l 1,202,-1
 837 495 l 1,203,-1
 837 686 l 1,204,-1
 443 686 l 1,201,-1
EndSplineSet
EndChar
StartChar: u2A735
Encoding: 173877 173877 22
Width: 1024
Flags: W
LayerCount: 2
Back
Fore
SplineSet
210 500 m 1,0,-1
 235 494 l 2,1,2
 250 490 250 490 260 485 c 0,3,4
 268 482 268 482 269 475 c 0,5,6
 271 468 271 468 264 463 c 0,7,8
 261 460 261 460 249 455 c 2,9,-1
 224 445 l 1,10,-1
 224 -19 l 2,11,12
 224 -20 224 -20 226 -72 c 0,13,14
 227 -92 227 -92 230 -127 c 0,15,16
 232 -147 232 -147 232 -151 c 0,17,18
 232 -156 232 -156 229 -160 c 0,19,20
 228 -164 228 -164 222 -168 c 0,21,22
 212 -171 212 -171 207 -172 c 0,23,24
 195 -172 195 -172 190 -170 c 0,25,26
 186 -168 186 -168 180 -163 c 0,27,28
 176 -157 176 -157 176 -151 c 2,29,-1
 176 450 l 1,30,-1
 160 427 l 2,31,32
 149 413 149 413 120 381 c 128,-1,33
 91 349 91 349 73 334 c 2,34,-1
 46 312 l 1,35,-1
 34 327 l 1,36,-1
 67 365 l 2,37,38
 84 384 84 384 100 407 c 0,39,40
 125 442 125 442 141 466 c 0,41,42
 167 506 167 506 183 536 c 0,43,44
 199 563 199 563 220 611 c 0,45,46
 239 653 239 653 248 682 c 0,47,48
 260 719 260 719 262 729 c 2,49,-1
 271 770 l 1,50,-1
 324 747 l 2,51,52
 344 739 344 739 355 730 c 0,53,54
 365 723 365 723 362 715 c 0,55,56
 360 707 360 707 351 703 c 0,57,58
 336 700 336 700 328 700 c 2,59,-1
 311 700 l 1,60,-1
 287 645 l 2,61,62
 276 619 276 619 261 590 c 0,63,64
 246 560 246 560 216 510 c 2,65,-1
 210 500 l 1,0,-1
858 -92 m 1,66,-1
 510 -92 l 1,67,-1
 510 -137 l 2,68,69
 510 -145 510 -145 508 -148 c 256,70,71
 506 -151 506 -151 499 -154 c 0,72,73
 491 -156 491 -156 484 -155 c 0,74,75
 475 -155 475 -155 468 -151 c 0,76,77
 464 -148 464 -148 459 -142 c 0,78,79
 456 -131 456 -131 457 -125 c 2,80,-1
 459 -97 l 1,81,-1
 460 -57 l 1,82,-1
 462 -19 l 1,83,-1
 462 236 l 1,84,-1
 460 273 l 1,85,-1
 459 302 l 1,86,-1
 456 324 l 1,87,-1
 515 279 l 1,88,-1
 848 279 l 1,89,-1
 882 317 l 1,90,-1
 924 290 l 2,91,92
 934 284 934 284 939 278 c 0,93,94
 944 273 944 273 944 265 c 0,95,96
 944 259 944 259 938 253 c 128,-1,97
 932 247 932 247 923 243 c 2,98,-1
 905 235 l 1,99,-1
 905 -6 l 2,100,101
 905 -25 905 -25 906 -43 c 0,102,103
 907 -66 907 -66 909 -89 c 0,104,105
 909 -112 909 -112 910 -117 c 0,106,107
 911 -124 911 -124 910 -127 c 0,108,109
 910 -133 910 -133 902 -139 c 0,110,111
 895 -145 895 -145 879 -146 c 0,112,113
 868 -146 868 -146 865 -145 c 0,114,115
 863 -144 863 -144 859 -140 c 0,116,117
 859 -139 859 -139 858.5 -137 c 128,-1,118
 858 -135 858 -135 858 -134 c 2,119,-1
 858 -92 l 1,66,-1
858 -64 m 1,120,-1
 858 84 l 1,121,-1
 510 84 l 1,122,-1
 510 -64 l 1,123,-1
 858 -64 l 1,120,-1
858 112 m 1,124,-1
 858 250 l 1,125,-1
 510 250 l 1,126,-1
 510 112 l 1,127,-1
 858 112 l 1,124,-1
491 603 m 1,128,-1
 491 510 l 2,129,130
 491 494 491 494 493 486 c 0,131,132
 496 474 496 474 505 467 c 128,-1,133
 514 460 514 460 534 455 c 0,134,135
 547 452 547 452 575 448 c 0,136,137
 594 446 594 446 635 445 c 0,138,139
 672 444 672 444 702 442 c 0,140,141
 739 442 739 442 758 443 c 0,142,143
 775 443 775 443 817 445 c 0,144,145
 833 446 833 446 862 449 c 0,146,147
 877 450 877 450 895 455 c 0,148,149
 901 456 901 456 909 457.5 c 128,-1,150
 917 459 917 459 919 459 c 0,151,152
 934 461 934 461 942 456 c 0,153,154
 951 453 951 453 955 443 c 0,155,156
 960 433 960 433 959 427 c 0,157,158
 957 419 957 419 951 414 c 0,159,160
 943 410 943 410 935 409 c 0,161,162
 933 409 933 409 895 405 c 2,163,-1
 862 402 l 2,164,165
 840 400 840 400 812 400 c 0,166,167
 803 400 803 400 777 399.5 c 128,-1,168
 751 399 751 399 735 399 c 0,169,170
 688 399 688 399 667 400 c 0,171,172
 656 401 656 401 632.5 401.5 c 128,-1,173
 609 402 609 402 597 402 c 0,174,175
 557 404 557 404 529 408 c 0,176,177
 500 413 500 413 484 421 c 0,178,179
 468 430 468 430 457 444 c 0,180,181
 448 460 448 460 446 470 c 0,182,183
 443 494 443 494 443 502 c 2,184,-1
 443 699 l 2,185,186
 443 708 443 708 442.5 724.5 c 128,-1,187
 442 741 442 741 442 748 c 0,188,189
 442 768 442 768 440 772 c 2,190,-1
 439 779 l 1,191,-1
 493 767 l 2,192,193
 519 762 519 762 527 757 c 0,194,195
 534 752 534 752 536 745 c 0,196,197
 537 739 537 739 530 732 c 0,198,199
 524 727 524 727 511 723 c 2,200,-1
 492 718 l 1,201,-1
 491 631 l 1,202,-1
 803 631 l 1,203,-1
 852 682 l 1,204,-1
 912 629 l 2,205,206
 915 627 915 627 919 621 c 0,207,208
 923 617 923 617 920 612 c 0,209,210
 920 608 920 608 915 605 c 0,211,212
 911 603 911 603 907 603 c 2,213,-1
 491 603 l 1,128,-1
EndSplineSet
EndChar
StartChar: u2A736
Encoding: 173878 173878 23
Width: 1024
Flags: W
LayerCount: 2
Back
Fore
SplineSet
461 438 m 1,0,1
 471 436 471 436 477 434 c 0,2,3
 479 434 479 434 489.5 432.5 c 128,-1,4
 500 431 500 431 510 429 c 0,5,6
 544 425 544 425 577 425 c 2,7,-1
 627 425 l 2,8,9
 628 428 628 428 628 433 c 128,-1,10
 628 438 628 438 629 441 c 0,11,12
 629 442 629 442 631 476 c 2,13,-1
 633 543 l 1,14,-1
 633 588 l 1,15,-1
 631 618 l 1,16,-1
 674 611 l 2,17,18
 689 609 689 609 705 604 c 0,19,20
 723 599 723 599 724 592 c 0,21,22
 726 586 726 586 722 581 c 0,23,24
 719 577 719 577 703 571 c 2,25,-1
 684 566 l 1,26,-1
 684 547 l 2,27,28
 684 534 684 534 681 504 c 2,29,-1
 675 425 l 1,30,-1
 748 425 l 1,31,-1
 795 474 l 1,32,-1
 858 423 l 2,33,34
 864 420 864 420 865 413 c 0,35,36
 865 407 865 407 862 403 c 0,37,38
 862 402 862 402 859 400 c 0,39,40
 857 398 857 398 854 398 c 2,41,-1
 671 398 l 1,42,-1
 663 343 l 1,43,-1
 681 325 l 1,44,-1
 710 297 l 2,45,46
 726 282 726 282 744 260 c 0,47,48
 761 240 761 240 787 205 c 0,49,50
 810 175 810 175 827 143 c 0,51,52
 842 116 842 116 851 92 c 0,53,54
 859 67 859 67 858 49 c 0,55,56
 858 30 858 30 844 24 c 0,57,58
 830 20 830 20 817 30 c 0,59,60
 804 41 804 41 797 69 c 0,61,62
 789 98 789 98 775 128 c 0,63,64
 762 160 762 160 751 176 c 0,65,66
 745 190 745 190 723 224 c 0,67,68
 705 254 705 254 699 260 c 2,69,-1
 657 313 l 1,70,71
 652 284 652 284 643 256 c 0,72,73
 636 229 636 229 621 198 c 0,74,75
 605 162 605 162 584 132 c 0,76,77
 566 103 566 103 534 71 c 128,-1,78
 502 39 502 39 481 23 c 2,79,-1
 463 10 l 1,80,-1
 451 25 l 1,81,-1
 480 53 l 2,82,83
 498 70 498 70 517 96 c 0,84,85
 541 128 541 128 554 152 c 0,86,87
 571 185 571 185 584 219 c 0,88,89
 598 256 598 256 608 295 c 0,90,91
 616 330 616 330 621 370 c 2,92,-1
 625 398 l 1,93,-1
 577 398 l 2,94,95
 510 398 510 398 489 395 c 2,96,-1
 482 394 l 1,97,-1
 461 438 l 1,0,1
878 704 m 1,98,-1
 912 742 l 1,99,-1
 954 715 l 2,100,101
 964 709 964 709 969 703 c 0,102,103
 974 698 974 698 974 691 c 128,-1,104
 974 684 974 684 969 679 c 0,105,106
 967 676 967 676 953 668 c 2,107,-1
 936 660 l 1,108,-1
 935 7 l 2,109,110
 935 -55 935 -55 936 -72 c 0,111,112
 937 -80 937 -80 937.5 -88 c 128,-1,113
 938 -96 938 -96 938 -97 c 2,114,-1
 939 -116 l 1,115,-1
 939 -137 l 2,116,117
 939 -145 939 -145 936 -150 c 0,118,119
 935 -155 935 -155 927 -160 c 0,120,121
 921 -164 921 -164 916 -164 c 0,122,123
 915 -164 915 -164 911 -164.5 c 128,-1,124
 907 -165 907 -165 904 -165 c 0,125,126
 896 -165 896 -165 890 -163 c 0,127,128
 887 -160 887 -160 886 -158 c 0,129,130
 884 -156 884 -156 884 -152 c 2,131,-1
 884 -93 l 1,132,-1
 438 -93 l 1,133,-1
 438 -152 l 2,134,135
 438 -154 438 -154 436 -158 c 2,136,-1
 431 -163 l 2,137,138
 425 -165 425 -165 415 -165 c 0,139,140
 414 -165 414 -165 406 -163 c 0,141,142
 401 -163 401 -163 396 -158 c 2,143,-1
 390 -149 l 2,144,145
 388 -143 388 -143 388 -137 c 2,146,-1
 388 -116 l 2,147,148
 389 -111 389 -111 389.5 -100 c 128,-1,149
 390 -89 390 -89 390 -84 c 2,150,-1
 390 -76 l 2,151,152
 392 -30 392 -30 392 7 c 2,153,-1
 392 683 l 2,154,155
 392 710 392 710 389 723 c 0,156,157
 389 734 389 734 386 745 c 2,158,-1
 384 752 l 1,159,-1
 444 704 l 1,160,-1
 878 704 l 1,98,-1
438 -64 m 1,161,-1
 884 -64 l 1,162,-1
 884 675 l 1,163,-1
 438 675 l 1,164,-1
 438 -64 l 1,161,-1
240 786 m 1,165,-1
 314 757 l 2,166,167
 329 753 329 753 332 743 c 0,168,169
 334 736 334 736 330 731 c 0,170,171
 324 725 324 725 312 724 c 2,172,-1
 283 719 l 1,173,-1
 267 674 l 2,174,175
 262 658 262 658 249 623 c 0,176,177
 236 589 236 589 231 579 c 2,178,-1
 200 518 l 1,179,-1
 247 502 l 2,180,181
 260 498 260 498 259 487 c 0,182,183
 259 477 259 477 249 473 c 2,184,-1
 224 463 l 1,185,-1
 224 -53 l 2,186,187
 224 -74 224 -74 225 -80 c 0,188,189
 225 -93 225 -93 226 -104 c 0,190,191
 226 -108 226 -108 226.5 -116 c 128,-1,192
 227 -124 227 -124 228 -128 c 0,193,194
 229 -134 229 -134 229 -142 c 0,195,196
 229 -149 229 -149 225 -153 c 128,-1,197
 221 -157 221 -157 215 -160 c 0,198,199
 204 -164 204 -164 196 -163 c 0,200,201
 191 -163 191 -163 185 -161 c 2,202,-1
 178 -154 l 2,203,204
 176 -148 176 -148 176 -140 c 2,205,-1
 176 476 l 1,206,-1
 151 437 l 1,207,-1
 127 399 l 2,208,209
 124 395 124 395 103 364 c 0,210,211
 80 336 80 336 68 324 c 2,212,-1
 45 298 l 1,213,-1
 32 311 l 1,214,-1
 56 346 l 1,215,-1
 81 383 l 2,216,217
 91 398 91 398 110 432 c 2,218,-1
 140 489 l 2,219,220
 146 502 146 502 167 550 c 2,221,-1
 193 616 l 2,222,223
 207 653 207 653 213 672 c 2,224,-1
 228 724 l 2,225,226
 236 751 236 751 237 763 c 2,227,-1
 240 786 l 1,165,-1
EndSplineSet
EndChar
StartChar: u2A737
Encoding: 173879 173879 24
Width: 1024
Flags: W
LayerCount: 2
Back
Fore
SplineSet
777 697 m 1,0,-1
 574 697 l 1,1,-1
 569 651 l 2,2,3
 567 626 567 626 562 601 c 0,4,5
 559 573 559 573 549 544 c 0,6,7
 540 508 540 508 529 486 c 0,8,9
 516 458 516 458 495 429 c 0,10,11
 472 397 472 397 443 370 c 0,12,13
 411 341 411 341 386 326 c 2,14,-1
 353 306 l 1,15,-1
 341 324 l 1,16,17
 353 332 353 332 377 350 c 0,18,19
 396 365 396 365 419 390 c 0,20,21
 441 413 441 413 461 445 c 0,22,23
 477 472 477 472 488 498 c 0,24,25
 496 516 496 516 505 551 c 0,26,27
 513 589 513 589 516 608 c 0,28,29
 521 637 521 637 522 660 c 2,30,-1
 525 697 l 1,31,-1
 507 697 l 1,32,-1
 471 695 l 1,33,-1
 457 695 l 1,34,-1
 445 693 l 1,35,-1
 433 692 l 1,36,-1
 413 735 l 1,37,-1
 437 731 l 2,38,39
 460 728 460 728 464 727 c 0,40,41
 486 725 486 725 507 725 c 2,42,-1
 765 725 l 1,43,-1
 799 763 l 1,44,-1
 841 736 l 2,45,46
 852 732 852 732 856 724 c 0,47,48
 861 719 861 719 861 712 c 128,-1,49
 861 705 861 705 856 699 c 0,50,51
 850 694 850 694 840 689 c 2,52,-1
 822 681 l 1,53,-1
 786 582 l 1,54,-1
 880 582 l 1,55,-1
 914 620 l 1,56,-1
 956 593 l 2,57,58
 966 586 966 586 970 581 c 0,59,60
 974 577 974 577 976 568 c 0,61,62
 976 561 976 561 970 555 c 0,63,64
 966 550 966 550 955 546 c 2,65,-1
 937 538 l 1,66,67
 935 501 935 501 932 486 c 0,68,69
 930 458 930 458 924 433 c 0,70,71
 918 406 918 406 913 389 c 0,72,73
 910 378 910 378 899 358 c 0,74,75
 889 342 889 342 865 324 c 0,76,77
 842 308 842 308 829 303 c 2,78,-1
 788 291 l 1,79,80
 786 303 786 303 784 307 c 0,81,82
 782 314 782 314 776 321 c 0,83,84
 772 327 772 327 761 333 c 0,85,86
 750 340 750 340 739 344 c 0,87,88
 726 349 726 349 711 353 c 2,89,-1
 692 359 l 1,90,-1
 696 378 l 1,91,-1
 719 371 l 2,92,93
 734 368 734 368 751 363 c 0,94,95
 782 356 782 356 788 355 c 0,96,97
 803 355 803 355 811 356 c 0,98,99
 822 357 822 357 836 365 c 0,100,101
 848 373 848 373 857 387 c 0,102,103
 866 400 866 400 872 422 c 0,104,105
 879 445 879 445 880 476 c 2,106,-1
 887 556 l 1,107,-1
 780 555 l 1,108,-1
 762 552 l 2,109,110
 753 550 753 550 749 551 c 0,111,112
 742 551 742 551 737 554 c 0,113,114
 737 555 737 555 736 556 c 0,115,116
 734 559 734 559 733 561 c 0,117,118
 733 567 733 567 737 576 c 0,119,120
 742 586 742 586 749 609 c 2,121,-1
 777 697 l 1,0,-1
488 134 m 1,122,-1
 530 116 l 2,123,124
 556 106 556 106 563 98 c 0,125,126
 570 92 570 92 569 83 c 0,127,128
 568 76 568 76 561 73 c 0,129,130
 556 71 556 71 541 70 c 2,131,-1
 521 68 l 1,132,-1
 478 20 l 2,133,134
 458 -2 458 -2 424 -31 c 0,135,136
 394 -57 394 -57 356 -80 c 2,137,-1
 323 -99 l 1,138,-1
 312 -85 l 1,139,-1
 360 -44 l 2,140,141
 384 -23 384 -23 407 6 c 0,142,143
 422 25 422 25 448 63 c 0,144,145
 459 79 459 79 474 106 c 2,146,-1
 488 134 l 1,122,-1
768 109 m 1,147,-1
 798 93 l 1,148,-1
 831 75 l 2,149,150
 847 66 847 66 878 44 c 0,151,152
 908 23 908 23 927 5 c 0,153,154
 949 -14 949 -14 958 -31 c 0,155,156
 966 -49 966 -49 965 -62 c 0,157,158
 965 -73 965 -73 958 -80 c 0,159,160
 952 -88 952 -88 942 -89 c 0,161,162
 932 -91 932 -91 924 -85 c 0,163,164
 917 -80 917 -80 903 -59 c 2,165,-1
 876 -19 l 2,166,167
 867 -5 867 -5 848 14 c 0,168,169
 840 23 840 23 807 52 c 0,170,171
 786 73 786 73 774 80 c 2,172,-1
 756 91 l 1,173,-1
 768 109 l 1,147,-1
628 169 m 1,174,-1
 423 169 l 2,175,176
 406 169 406 169 394 168 c 0,177,178
 390 168 390 168 383 167 c 0,179,180
 377 166 377 166 375 166 c 0,181,182
 369 166 369 166 361 165 c 2,183,-1
 348 163 l 1,184,-1
 329 206 l 1,185,186
 342 204 342 204 350 203 c 0,187,188
 354 203 354 203 372 201 c 128,-1,189
 390 199 390 199 399 199 c 0,190,191
 404 199 404 199 412 198.5 c 128,-1,192
 420 198 420 198 423 198 c 2,193,-1
 628 198 l 1,194,-1
 628 240 l 1,195,-1
 626 301 l 2,196,197
 626 312 626 312 625 313 c 2,198,-1
 624 320 l 1,199,-1
 678 308 l 2,200,201
 700 304 700 304 712 298 c 0,202,203
 720 294 720 294 721 286 c 0,204,205
 722 280 722 280 715 273 c 0,206,207
 709 268 709 268 696 264 c 2,208,-1
 676 259 l 1,209,-1
 676 198 l 1,210,-1
 879 198 l 1,211,-1
 929 248 l 1,212,-1
 989 195 l 1,213,-1
 995 190 l 2,214,215
 998 185 998 185 997 178 c 0,216,217
 996 174 996 174 991 171 c 0,218,219
 987 169 987 169 984 169 c 2,220,-1
 676 169 l 1,221,-1
 676 -17 l 2,222,223
 676 -22 676 -22 678 -70 c 0,224,225
 678 -72 678 -72 682 -123 c 0,226,227
 684 -145 684 -145 684 -148 c 0,228,229
 684 -154 684 -154 681 -158 c 0,230,231
 680 -162 680 -162 674 -166 c 0,232,233
 665 -169 665 -169 659 -169 c 0,234,235
 647 -169 647 -169 642 -167 c 0,236,237
 638 -166 638 -166 632 -160 c 0,238,239
 628 -154 628 -154 628 -148 c 2,240,-1
 628 169 l 1,174,-1
210 500 m 1,241,-1
 235 494 l 2,242,243
 250 490 250 490 260 485 c 0,244,245
 268 482 268 482 269 475 c 0,246,247
 271 468 271 468 264 463 c 0,248,249
 261 460 261 460 249 455 c 2,250,-1
 224 445 l 1,251,-1
 224 -19 l 2,252,253
 224 -20 224 -20 226 -72 c 0,254,255
 227 -92 227 -92 230 -127 c 0,256,257
 232 -147 232 -147 232 -151 c 0,258,259
 232 -156 232 -156 229 -160 c 0,260,261
 228 -164 228 -164 222 -168 c 0,262,263
 212 -171 212 -171 207 -172 c 0,264,265
 195 -172 195 -172 190 -170 c 0,266,267
 186 -168 186 -168 180 -163 c 0,268,269
 176 -157 176 -157 176 -151 c 2,270,-1
 176 450 l 1,271,-1
 160 427 l 2,272,273
 149 413 149 413 120 381 c 128,-1,274
 91 349 91 349 73 334 c 2,275,-1
 46 312 l 1,276,-1
 34 327 l 1,277,-1
 67 365 l 2,278,279
 84 384 84 384 100 407 c 0,280,281
 125 442 125 442 141 466 c 0,282,283
 167 506 167 506 183 536 c 0,284,285
 199 563 199 563 220 611 c 0,286,287
 239 653 239 653 248 682 c 0,288,289
 260 719 260 719 262 729 c 2,290,-1
 271 770 l 1,291,-1
 324 747 l 2,292,293
 344 739 344 739 355 730 c 0,294,295
 365 723 365 723 362 715 c 0,296,297
 360 707 360 707 351 703 c 0,298,299
 336 700 336 700 328 700 c 2,300,-1
 311 700 l 1,301,-1
 287 645 l 2,302,303
 276 619 276 619 261 590 c 0,304,305
 246 560 246 560 216 510 c 2,306,-1
 210 500 l 1,241,-1
EndSplineSet
EndChar
StartChar: u2A738
Encoding: 173880 173880 25
Width: 1024
Flags: W
LayerCount: 2
Back
Fore
SplineSet
662 346 m 1,0,1
 671 355 671 355 679 364 c 0,2,3
 692 378 692 378 706 397 c 2,4,-1
 748 452 l 1,5,-1
 515 452 l 2,6,7
 494 452 494 452 480 450 c 2,8,-1
 466 449 l 2,9,10
 462 449 462 449 458 448 c 2,11,-1
 453 448 l 1,12,-1
 441 447 l 1,13,-1
 421 489 l 1,14,-1
 449 486 l 2,15,16
 464 484 464 484 468 483 c 0,17,18
 479 483 479 483 490 482 c 0,19,20
 496 482 496 482 504.5 481.5 c 128,-1,21
 513 481 513 481 515 481 c 2,22,-1
 752 480 l 1,23,-1
 788 518 l 1,24,-1
 824 488 l 2,25,26
 840 473 840 473 844 466 c 0,27,28
 849 457 849 457 847 452 c 0,29,30
 845 444 845 444 820 438 c 2,31,-1
 796 433 l 1,32,-1
 714 360 l 1,33,-1
 690 339 l 1,34,35
 698 338 698 338 704 332 c 0,36,37
 706 330 706 330 708 323 c 0,38,39
 708 318 708 318 701 312 c 0,40,41
 696 306 696 306 682 302 c 2,42,-1
 662 296 l 1,43,-1
 663 208 l 1,44,-1
 866 208 l 1,45,-1
 916 259 l 1,46,-1
 976 206 l 2,47,48
 982 200 982 200 983 198 c 0,49,50
 987 196 987 196 984 189 c 0,51,52
 983 185 983 185 978 182 c 2,53,-1
 971 180 l 1,54,-1
 663 180 l 1,55,-1
 663 -81 l 2,56,57
 663 -103 663 -103 658 -114 c 0,58,59
 654 -126 654 -126 643 -137 c 0,60,61
 633 -145 633 -145 620 -154 c 0,62,63
 608 -162 608 -162 601 -163 c 2,64,-1
 586 -166 l 1,65,66
 583 -153 583 -153 582 -148 c 0,67,68
 580 -138 580 -138 573 -131 c 0,69,70
 569 -123 569 -123 552 -115 c 0,71,72
 541 -109 541 -109 513 -104 c 2,73,-1
 483 -98 l 1,74,-1
 487 -75 l 1,75,76
 513 -80 513 -80 521 -81 c 0,77,78
 524 -81 524 -81 533.5 -82.5 c 128,-1,79
 543 -84 543 -84 550 -85 c 128,-1,80
 557 -86 557 -86 569.5 -87.5 c 128,-1,81
 582 -89 582 -89 585 -89 c 0,82,83
 601 -89 601 -89 607 -83 c 0,84,85
 614 -76 614 -76 614 -60 c 2,86,-1
 614 180 l 1,87,-1
 423 180 l 2,88,89
 406 180 406 180 395 179 c 0,90,91
 388 179 388 179 382 178.5 c 128,-1,92
 376 178 376 178 375 178 c 2,93,-1
 370 178 l 2,94,95
 365 177 365 177 361 176 c 2,96,-1
 349 175 l 1,97,-1
 329 218 l 1,98,99
 349 216 349 216 357 214 c 0,100,101
 362 214 362 214 367 213 c 128,-1,102
 372 212 372 212 373 212 c 2,103,-1
 399 210 l 2,104,105
 406 210 406 210 414 209.5 c 128,-1,106
 422 209 422 209 423 209 c 2,107,-1
 614 208 l 1,108,-1
 614 278 l 2,109,110
 614 328 614 328 613 335 c 0,111,112
 613 345 613 345 611 351 c 2,113,-1
 610 358 l 1,114,-1
 662 346 l 1,0,1
444 620 m 1,115,-1
 441 600 l 2,116,117
 439 586 439 586 437 579 c 0,118,119
 436 570 436 570 426 552 c 0,120,121
 418 536 418 536 405 529 c 0,122,123
 391 522 391 522 381 522 c 0,124,125
 373 522 373 522 366 526 c 0,126,127
 360 531 360 531 357 540 c 0,128,129
 355 550 355 550 359 558 c 0,130,131
 362 566 362 566 372 573 c 2,132,-1
 389 587 l 2,133,134
 402 599 402 599 406 607 c 0,135,136
 409 614 409 614 415 630 c 0,137,138
 417 639 417 639 421 655 c 0,139,140
 423 671 423 671 424 680 c 2,141,-1
 425 698 l 1,142,-1
 444 697 l 1,143,-1
 444 648 l 1,144,-1
 640 648 l 1,145,146
 639 652 639 652 637.5 657.5 c 128,-1,147
 636 663 636 663 636 665 c 0,148,149
 634 673 634 673 629 685 c 0,150,151
 626 700 626 700 616 718 c 0,152,153
 608 735 608 735 598 747 c 2,154,-1
 581 771 l 1,155,-1
 595 783 l 1,156,-1
 627 758 l 1,157,-1
 656 734 l 2,158,159
 670 723 670 723 678 708 c 0,160,161
 686 698 686 698 687 681 c 0,162,163
 689 665 689 665 683 660 c 2,164,-1
 672 648 l 1,165,-1
 885 648 l 1,166,-1
 912 679 l 1,167,-1
 956 648 l 2,168,169
 963 644 963 644 970 635 c 0,170,171
 976 629 976 629 975 622 c 128,-1,172
 974 615 974 615 969 612 c 0,173,174
 960 609 960 609 950 607 c 2,175,-1
 931 603 l 1,176,-1
 897 561 l 1,177,-1
 861 521 l 1,178,-1
 849 529 l 1,179,180
 854 542 854 542 861 557 c 128,-1,181
 868 572 868 572 869 574 c 2,182,-1
 885 620 l 1,183,-1
 444 620 l 1,115,-1
210 500 m 1,184,-1
 235 494 l 2,185,186
 250 490 250 490 260 485 c 0,187,188
 268 482 268 482 269 475 c 0,189,190
 271 468 271 468 264 463 c 0,191,192
 261 460 261 460 249 455 c 2,193,-1
 224 445 l 1,194,-1
 224 -19 l 2,195,196
 224 -20 224 -20 226 -72 c 0,197,198
 227 -92 227 -92 230 -127 c 0,199,200
 232 -147 232 -147 232 -151 c 0,201,202
 232 -156 232 -156 229 -160 c 0,203,204
 228 -164 228 -164 222 -168 c 0,205,206
 212 -171 212 -171 207 -172 c 0,207,208
 195 -172 195 -172 190 -170 c 0,209,210
 186 -168 186 -168 180 -163 c 0,211,212
 176 -157 176 -157 176 -151 c 2,213,-1
 176 450 l 1,214,-1
 160 427 l 2,215,216
 149 413 149 413 120 381 c 128,-1,217
 91 349 91 349 73 334 c 2,218,-1
 46 312 l 1,219,-1
 34 327 l 1,220,-1
 67 365 l 2,221,222
 84 384 84 384 100 407 c 0,223,224
 125 442 125 442 141 466 c 0,225,226
 167 506 167 506 183 536 c 0,227,228
 199 563 199 563 220 611 c 0,229,230
 239 653 239 653 248 682 c 0,231,232
 260 719 260 719 262 729 c 2,233,-1
 271 770 l 1,234,-1
 324 747 l 2,235,236
 344 739 344 739 355 730 c 0,237,238
 365 723 365 723 362 715 c 0,239,240
 360 707 360 707 351 703 c 0,241,242
 336 700 336 700 328 700 c 2,243,-1
 311 700 l 1,244,-1
 287 645 l 2,245,246
 276 619 276 619 261 590 c 0,247,248
 246 560 246 560 216 510 c 2,249,-1
 210 500 l 1,184,-1
EndSplineSet
EndChar
StartChar: u2A739
Encoding: 173881 173881 26
Width: 1024
Flags: W
LayerCount: 2
Back
Fore
SplineSet
900 233 m 1,0,-1
 879 224 l 1,1,-1
 854 222 l 1,2,3
 849 213 849 213 837 195 c 0,4,5
 834 191 834 191 825 180 c 128,-1,6
 816 169 816 169 811 163 c 0,7,8
 796 146 796 146 775 126 c 0,9,10
 758 108 758 108 732 89 c 0,11,12
 711 72 711 72 686 57 c 2,13,-1
 675 51 l 1,14,-1
 664 64 l 1,15,-1
 689 87 l 1,16,-1
 715 113 l 2,17,18
 730 128 730 128 742 144 c 0,19,20
 760 168 760 168 767 179 c 0,21,22
 784 206 784 206 789 215 c 0,23,24
 803 242 803 242 812 260 c 2,25,-1
 824 285 l 1,26,-1
 884 257 l 1,27,-1
 900 245 l 1,28,-1
 900 537 l 1,29,-1
 879 529 l 1,30,-1
 854 527 l 1,31,32
 847 514 847 514 837 501 c 0,33,34
 825 484 825 484 811 468 c 0,35,36
 791 445 791 445 775 430 c 0,37,38
 761 416 761 416 733 393 c 0,39,40
 710 375 710 375 686 361 c 2,41,-1
 675 355 l 1,42,-1
 664 369 l 1,43,-1
 691 394 l 1,44,-1
 717 419 l 2,45,46
 734 439 734 439 742 449 c 0,47,48
 757 468 757 468 767 483 c 0,49,50
 780 503 780 503 790 521 c 0,51,52
 792 526 792 526 800 540.5 c 128,-1,53
 808 555 808 555 812 564 c 2,54,-1
 824 589 l 1,55,-1
 884 562 l 1,56,-1
 900 550 l 1,57,-1
 900 688 l 1,58,-1
 780 688 l 1,59,-1
 744 687 l 2,60,61
 740 687 740 687 736 686 c 2,62,-1
 731 686 l 2,63,64
 726 686 726 686 718 685 c 2,65,-1
 706 683 l 1,66,-1
 686 726 l 1,67,68
 702 724 702 724 710 722 c 0,69,70
 716 722 716 722 730 720 c 0,71,72
 735 720 735 720 755 718 c 0,73,74
 760 718 760 718 768.5 717.5 c 128,-1,75
 777 717 777 717 780 717 c 2,76,-1
 891 715 l 1,77,-1
 925 754 l 1,78,-1
 967 727 l 2,79,80
 978 719 978 719 982 714 c 0,81,82
 987 709 987 709 987 702 c 0,83,84
 987 696 987 696 981 690 c 128,-1,85
 975 684 975 684 966 680 c 2,86,-1
 948 672 l 1,87,-1
 948 -72 l 2,88,89
 948 -95 948 -95 943 -106 c 0,90,91
 938 -119 938 -119 929 -128 c 0,92,93
 918 -137 918 -137 905 -145 c 0,94,95
 889 -154 889 -154 886 -154 c 2,96,-1
 871 -158 l 1,97,98
 869 -146 869 -146 867 -140 c 0,99,100
 866 -131 866 -131 858 -122 c 0,101,102
 852 -113 852 -113 839 -107 c 0,103,104
 827 -101 827 -101 798 -95 c 2,105,-1
 767 -89 l 1,106,-1
 771 -67 l 1,107,108
 781 -68 781 -68 793.5 -70 c 128,-1,109
 806 -72 806 -72 808 -72 c 2,110,-1
 835 -76 l 2,111,112
 842 -77 842 -77 853.5 -78.5 c 128,-1,113
 865 -80 865 -80 870 -80 c 0,114,115
 887 -80 887 -80 893 -74 c 0,116,117
 900 -67 900 -67 900 -51 c 2,118,-1
 900 233 l 1,0,-1
568 232 m 1,119,-1
 547 224 l 1,120,-1
 523 222 l 1,121,-1
 505 194 l 2,122,123
 496 181 496 181 479 163 c 0,124,125
 463 142 463 142 445 127 c 0,126,127
 437 119 437 119 401 89 c 0,128,129
 376 70 376 70 355 57 c 2,130,-1
 344 51 l 1,131,-1
 333 64 l 1,132,-1
 357 86 l 1,133,-1
 384 113 l 2,134,135
 403 134 403 134 411 145 c 0,136,137
 423 160 423 160 435 178 c 0,138,139
 452 204 452 204 460 219 c 0,140,141
 472 241 472 241 481 260 c 2,142,-1
 492 285 l 1,143,-1
 553 257 l 1,144,-1
 568 246 l 1,145,-1
 568 536 l 1,146,-1
 547 529 l 1,147,-1
 523 527 l 1,148,-1
 505 500 l 2,149,150
 499 490 499 490 479 467 c 0,151,152
 461 445 461 445 445 431 c 0,153,154
 430 416 430 416 401 393 c 0,155,156
 376 374 376 374 355 361 c 2,157,-1
 344 355 l 1,158,-1
 333 369 l 1,159,-1
 359 392 l 1,160,-1
 385 419 l 2,161,162
 400 434 400 434 411 449 c 0,163,164
 425 466 425 466 434 482 c 0,165,166
 449 505 449 505 460 524 c 2,167,-1
 481 564 l 1,168,-1
 492 589 l 1,169,-1
 553 562 l 1,170,-1
 568 551 l 1,171,-1
 568 690 l 1,172,-1
 450 691 l 1,173,-1
 414 689 l 1,174,-1
 401 688 l 2,175,176
 395 688 395 688 387 687 c 2,177,-1
 375 685 l 1,178,-1
 356 728 l 1,179,180
 365 727 365 727 379 725 c 2,181,-1
 400 722 l 2,182,183
 406 722 406 722 424 720 c 0,184,185
 429 720 429 720 437.5 719.5 c 128,-1,186
 446 719 446 719 450 719 c 2,187,-1
 559 717 l 1,188,-1
 593 756 l 1,189,-1
 635 729 l 2,190,191
 646 721 646 721 650 716 c 0,192,193
 655 711 655 711 655 704 c 0,194,195
 655 699 655 699 650 692 c 0,196,197
 646 688 646 688 634 682 c 2,198,-1
 616 674 l 1,199,-1
 616 -70 l 2,200,201
 616 -92 616 -92 611 -103 c 0,202,203
 607 -115 607 -115 596 -126 c 0,204,205
 588 -134 588 -134 573 -143 c 0,206,207
 561 -151 561 -151 554 -152 c 2,208,-1
 538 -156 l 1,209,210
 538 -147 538 -147 535 -138 c 0,211,212
 534 -128 534 -128 526 -119 c 0,213,214
 520 -111 520 -111 506 -105 c 0,215,216
 494 -99 494 -99 466 -93 c 2,217,-1
 435 -87 l 1,218,-1
 439 -65 l 1,219,220
 449 -66 449 -66 461.5 -68 c 128,-1,221
 474 -70 474 -70 476 -70 c 2,222,-1
 503 -74 l 2,223,224
 510 -75 510 -75 521.5 -76.5 c 128,-1,225
 533 -78 533 -78 538 -78 c 0,226,227
 555 -78 555 -78 561 -72 c 0,228,229
 568 -65 568 -65 568 -49 c 2,230,-1
 568 232 l 1,119,-1
240 786 m 1,231,-1
 314 757 l 2,232,233
 329 753 329 753 332 743 c 0,234,235
 334 736 334 736 330 731 c 0,236,237
 324 725 324 725 312 724 c 2,238,-1
 283 719 l 1,239,-1
 267 674 l 2,240,241
 262 658 262 658 249 623 c 0,242,243
 236 589 236 589 231 579 c 2,244,-1
 200 518 l 1,245,-1
 247 502 l 2,246,247
 260 498 260 498 259 487 c 0,248,249
 259 477 259 477 249 473 c 2,250,-1
 224 463 l 1,251,-1
 224 -53 l 2,252,253
 224 -74 224 -74 225 -80 c 0,254,255
 225 -93 225 -93 226 -104 c 0,256,257
 226 -108 226 -108 226.5 -116 c 128,-1,258
 227 -124 227 -124 228 -128 c 0,259,260
 229 -134 229 -134 229 -142 c 0,261,262
 229 -149 229 -149 225 -153 c 128,-1,263
 221 -157 221 -157 215 -160 c 0,264,265
 204 -164 204 -164 196 -163 c 0,266,267
 191 -163 191 -163 185 -161 c 2,268,-1
 178 -154 l 2,269,270
 176 -148 176 -148 176 -140 c 2,271,-1
 176 476 l 1,272,-1
 151 437 l 1,273,-1
 127 399 l 2,274,275
 124 395 124 395 103 364 c 0,276,277
 80 336 80 336 68 324 c 2,278,-1
 45 298 l 1,279,-1
 32 311 l 1,280,-1
 56 346 l 1,281,-1
 81 383 l 2,282,283
 91 398 91 398 110 432 c 2,284,-1
 140 489 l 2,285,286
 146 502 146 502 167 550 c 2,287,-1
 193 616 l 2,288,289
 207 653 207 653 213 672 c 2,290,-1
 228 724 l 2,291,292
 236 751 236 751 237 763 c 2,293,-1
 240 786 l 1,231,-1
EndSplineSet
EndChar
StartChar: u2A73B
Encoding: 173883 173883 27
Width: 1024
Flags: W
LayerCount: 2
Back
Fore
SplineSet
684 -161 m 1,0,-1
 680 -144 l 2,1,2
 678 -135 678 -135 673 -127 c 0,3,4
 669 -119 669 -119 651 -111 c 0,5,6
 638 -104 638 -104 611 -99 c 2,7,-1
 580 -93 l 1,8,-1
 584 -70 l 1,9,10
 594 -72 594 -72 609.5 -74 c 128,-1,11
 625 -76 625 -76 631 -77 c 0,12,13
 653 -79 653 -79 663 -81 c 0,14,15
 665 -81 665 -81 675.5 -82.5 c 128,-1,16
 686 -84 686 -84 691 -84 c 0,17,18
 705 -84 705 -84 711 -78 c 0,19,20
 718 -72 718 -72 719 -55 c 2,21,-1
 719 404 l 1,22,-1
 577 404 l 1,23,-1
 577 330 l 2,24,25
 577 290 577 290 573 245 c 0,26,27
 568 192 568 192 557 140 c 0,28,29
 547 90 547 90 523 38 c 0,30,31
 502 -8 502 -8 462 -57 c 0,32,33
 424 -102 424 -102 387 -127 c 2,34,-1
 344 -158 l 1,35,-1
 330 -140 l 1,36,-1
 380 -95 l 2,37,38
 408 -70 408 -70 435 -32 c 0,39,40
 465 11 465 11 482 54 c 0,41,42
 500 97 500 97 511 149 c 0,43,44
 521 198 521 198 523 240 c 0,45,46
 524 277 524 277 526 334 c 2,47,-1
 526 404 l 1,48,-1
 423 404 l 2,49,50
 363 404 363 404 351 402 c 2,51,-1
 333 400 l 1,52,-1
 326 400 l 1,53,-1
 307 448 l 2,54,55
 310 448 310 448 314 446 c 128,-1,56
 318 444 318 444 321 444 c 2,57,-1
 353 438 l 1,58,59
 398 435 398 435 423 435 c 2,60,-1
 618 435 l 1,61,-1
 618 599 l 1,62,-1
 488 599 l 2,63,64
 435 601 435 601 399 596 c 2,65,-1
 392 595 l 1,66,-1
 371 641 l 1,67,68
 379 639 379 639 385 637 c 0,69,70
 387 637 387 637 397.5 635.5 c 128,-1,71
 408 634 408 634 418 632 c 0,72,73
 469 629 469 629 488 629 c 2,74,-1
 618 629 l 1,75,-1
 618 692 l 2,76,77
 618 724 618 724 617 739 c 0,78,79
 616 747 616 747 615.5 755.5 c 128,-1,80
 615 764 615 764 615 765 c 2,81,-1
 614 772 l 1,82,-1
 674 759 l 2,83,84
 690 758 690 758 701 750 c 0,85,86
 710 746 710 746 712 738 c 0,87,88
 712 731 712 731 706 726 c 0,89,90
 703 723 703 723 687 716 c 2,91,-1
 668 710 l 1,92,-1
 668 629 l 1,93,-1
 810 630 l 1,94,-1
 862 681 l 1,95,-1
 928 628 l 1,96,-1
 938 621 l 2,97,98
 944 613 944 613 943 607 c 0,99,100
 943 605 943 605 939 602 c 0,101,102
 936 599 936 599 928 599 c 2,103,-1
 668 599 l 1,104,-1
 668 435 l 1,105,-1
 860 435 l 1,106,-1
 914 488 l 1,107,-1
 979 437 l 2,108,109
 987 432 987 432 990 424 c 0,110,111
 993 418 993 418 993 414 c 0,112,113
 993 412 993 412 988 407 c 0,114,115
 982 404 982 404 978 404 c 2,116,-1
 767 404 l 1,117,-1
 767 -76 l 2,118,119
 767 -94 767 -94 761 -109 c 0,120,121
 756 -122 756 -122 746 -133 c 0,122,123
 738 -141 738 -141 725 -149 c 0,124,125
 713 -154 713 -154 699 -158 c 2,126,-1
 684 -161 l 1,0,-1
395 346 m 1,127,-1
 470 319 l 2,128,129
 480 316 480 316 484 309 c 0,130,131
 489 302 489 302 485 296 c 0,132,133
 483 289 483 289 473 289 c 2,134,-1
 436 283 l 1,135,-1
 416 218 l 2,136,137
 408 191 408 191 392 149 c 0,138,139
 375 104 375 104 358 72 c 0,140,141
 341 37 341 37 326 17 c 2,142,-1
 313 -2 l 1,143,-1
 295 10 l 1,144,-1
 306 30 l 2,145,146
 316 50 316 50 329 85 c 0,147,148
 344 121 344 121 354 155 c 0,149,150
 365 192 365 192 371 224 c 0,151,152
 374 237 374 237 379 263 c 128,-1,153
 384 289 384 289 387 302 c 2,154,-1
 395 346 l 1,127,-1
833 338 m 1,155,-1
 851 319 l 2,156,157
 860 310 860 310 877 287 c 0,158,159
 894 267 894 267 908 243 c 2,160,-1
 938 188 l 2,161,162
 952 165 952 165 961 140 c 0,163,164
 965 129 965 129 974 93 c 0,165,166
 980 64 980 64 976 49 c 0,167,168
 971 33 971 33 964 29 c 0,169,170
 954 25 954 25 951 26 c 0,171,172
 942 26 942 26 934 34 c 0,173,174
 929 40 929 40 924 55 c 2,175,-1
 917 97 l 2,176,177
 913 121 913 121 902 152 c 0,178,179
 894 177 894 177 879 214 c 0,180,181
 866 247 866 247 852 271 c 0,182,183
 843 291 843 291 826 315 c 2,184,-1
 819 326 l 1,185,-1
 833 338 l 1,155,-1
235 784 m 1,186,-1
 309 755 l 2,187,188
 323 750 323 750 326 742 c 128,-1,189
 329 734 329 734 324 729 c 0,190,191
 320 725 320 725 307 722 c 2,192,-1
 277 718 l 1,193,-1
 262 673 l 2,194,195
 260 665 260 665 243 622 c 0,196,197
 232 589 232 589 225 578 c 2,198,-1
 195 516 l 1,199,-1
 241 500 l 2,200,201
 254 496 254 496 254 485 c 0,202,203
 254 476 254 476 243 471 c 2,204,-1
 219 462 l 1,205,-1
 219 -55 l 1,206,-1
 219 -82 l 2,207,208
 219 -94 219 -94 220 -105 c 0,209,210
 220 -109 220 -109 220.5 -117.5 c 128,-1,211
 221 -126 221 -126 222 -130 c 0,212,213
 223 -136 223 -136 223 -144 c 0,214,215
 223 -151 223 -151 220 -154 c 128,-1,216
 217 -157 217 -157 209 -161 c 0,217,218
 199 -165 199 -165 191 -165 c 0,219,220
 185 -165 185 -165 179 -163 c 0,221,222
 175 -159 175 -159 173 -156 c 0,223,224
 170 -147 170 -147 170 -142 c 2,225,-1
 170 475 l 1,226,-1
 150 442 l 1,227,-1
 126 404 l 2,228,229
 106 374 106 374 95 360 c 0,230,231
 86 347 86 347 63 322 c 2,232,-1
 39 296 l 1,233,-1
 26 309 l 1,234,-1
 48 340 l 1,235,-1
 74 379 l 1,236,-1
 105 430 l 2,237,238
 116 449 116 449 134 487 c 0,239,240
 148 516 148 516 161 547 c 0,241,242
 166 559 166 559 175.5 584 c 128,-1,243
 185 609 185 609 187 614 c 0,244,245
 194 631 194 631 207 671 c 0,246,247
 214 694 214 694 222 722 c 0,248,249
 230 749 230 749 231 761 c 2,250,-1
 235 784 l 1,186,-1
EndSplineSet
EndChar
StartChar: u2A73C
Encoding: 173884 173884 28
Width: 1024
Flags: W
LayerCount: 2
Back
Fore
SplineSet
452 181 m 1,0,-1
 611 181 l 1,1,-1
 611 217 l 2,2,3
 611 249 611 249 610 265 c 0,4,5
 609 273 609 273 608.5 281.5 c 128,-1,6
 608 290 608 290 608 291 c 2,7,-1
 607 297 l 1,8,-1
 663 285 l 2,9,10
 689 280 689 280 697 275 c 0,11,12
 706 270 706 270 706 264 c 128,-1,13
 706 258 706 258 699 251 c 0,14,15
 690 244 690 244 681 241 c 2,16,-1
 660 235 l 1,17,-1
 660 181 l 1,18,-1
 800 181 l 1,19,-1
 844 226 l 1,20,-1
 901 179 l 2,21,22
 908 174 908 174 909 171 c 0,23,24
 912 168 912 168 909 162 c 0,25,26
 908 158 908 158 903 155 c 0,27,28
 899 153 899 153 896 153 c 2,29,-1
 660 153 l 1,30,-1
 660 46 l 1,31,-1
 874 46 l 1,32,-1
 915 86 l 1,33,-1
 973 43 l 2,34,35
 976 42 976 42 980 36 c 0,36,37
 984 32 984 32 981 26 c 0,38,39
 980 22 980 22 975 19 c 0,40,41
 971 17 971 17 968 17 c 2,42,-1
 660 17 l 1,43,-1
 660 -33 l 2,44,45
 660 -40 660 -40 663 -77 c 0,46,47
 664 -99 664 -99 667 -127 c 0,48,49
 669 -144 669 -144 668 -148 c 0,50,51
 668 -154 668 -154 666 -157 c 0,52,53
 665 -161 665 -161 658 -165 c 0,54,55
 652 -169 652 -169 643 -169 c 0,56,57
 636 -169 636 -169 626 -167 c 0,58,59
 620 -164 620 -164 615 -159 c 0,60,61
 611 -153 611 -153 611 -148 c 2,62,-1
 611 17 l 1,63,-1
 388 17 l 2,64,65
 370 17 370 17 359 16 c 0,66,67
 353 16 353 16 346 15.5 c 128,-1,68
 339 15 339 15 338 15 c 128,-1,69
 337 15 337 15 332.5 14 c 128,-1,70
 328 13 328 13 325 13 c 2,71,-1
 312 12 l 1,72,-1
 292 55 l 1,73,74
 306 54 306 54 313 52 c 2,75,-1
 337 49 l 2,76,77
 339 49 339 49 363 47 c 0,78,79
 369 47 369 47 377.5 46.5 c 128,-1,80
 386 46 386 46 388 46 c 2,81,-1
 611 46 l 1,82,-1
 611 153 l 1,83,-1
 432 153 l 1,84,85
 423 141 423 141 414 132 c 2,86,-1
 384 104 l 2,87,88
 360 83 360 83 349 77 c 2,89,-1
 342 72 l 1,90,-1
 330 86 l 1,91,-1
 346 103 l 2,92,93
 355 114 355 114 373 139 c 0,94,95
 389 162 389 162 401 184 c 2,96,-1
 416 215 l 2,97,98
 430 246 430 246 432 254 c 2,99,-1
 437 277 l 1,100,-1
 502 248 l 2,101,102
 522 240 522 240 520 227 c 0,103,104
 518 215 518 215 496 214 c 2,105,-1
 472 213 l 1,106,107
 466 201 466 201 463 198 c 2,108,-1
 452 181 l 1,0,-1
661 477 m 1,109,-1
 830 477 l 1,110,-1
 877 523 l 1,111,-1
 930 480 l 2,112,113
 937 476 937 476 940 471 c 0,114,115
 943 468 943 468 943 462 c 128,-1,116
 943 456 943 456 940 453 c 0,117,118
 934 450 934 450 930 450 c 2,119,-1
 661 450 l 1,120,-1
 661 426 l 2,121,122
 661 412 661 412 662 396 c 2,123,-1
 664 363 l 2,124,125
 664 360 664 360 665 353 c 128,-1,126
 666 346 666 346 666 342 c 0,127,128
 668 333 668 333 666 328 c 0,129,130
 664 321 664 321 659 317 c 0,131,132
 650 314 650 314 644 314 c 0,133,134
 632 314 632 314 627 316 c 128,-1,135
 622 318 622 318 617 323 c 0,136,137
 613 329 613 329 613 335 c 2,138,-1
 613 450 l 1,139,-1
 416 450 l 2,140,141
 412 449 412 449 404 445 c 0,142,143
 403 445 403 445 398 444.5 c 128,-1,144
 393 444 393 444 389 444 c 0,145,146
 377 444 377 444 374 447 c 0,147,148
 369 452 369 452 369 454 c 0,149,150
 369 458 369 458 370 461 c 2,151,-1
 416 630 l 1,152,153
 406 630 406 630 399 629 c 0,154,155
 387 629 387 629 382 628 c 0,156,157
 380 628 380 628 377 627.5 c 128,-1,158
 374 627 374 627 373 627 c 2,159,-1
 366 626 l 1,160,-1
 347 670 l 1,161,162
 352 670 352 670 363 667 c 0,163,164
 386 664 386 664 394 662 c 0,165,166
 433 659 433 659 462 659 c 2,167,-1
 613 659 l 1,168,-1
 613 696 l 2,169,170
 613 731 613 731 612 745 c 0,171,172
 611 753 611 753 610.5 760.5 c 128,-1,173
 610 768 610 768 610 769 c 2,174,-1
 609 776 l 1,175,-1
 664 764 l 2,176,177
 689 760 689 760 697 753 c 0,178,179
 704 750 704 750 706 742 c 0,180,181
 707 735 707 735 700 729 c 0,182,183
 696 725 696 725 681 720 c 2,184,-1
 661 713 l 1,185,-1
 661 659 l 1,186,-1
 796 659 l 1,187,-1
 845 710 l 1,188,-1
 906 656 l 1,189,-1
 913 649 l 2,190,191
 915 647 915 647 914 640 c 0,192,193
 912 635 912 635 908 632 c 0,194,195
 904 630 904 630 901 630 c 2,196,-1
 661 630 l 1,197,-1
 661 477 l 1,109,-1
613 477 m 1,198,-1
 613 630 l 1,199,-1
 461 630 l 1,200,-1
 422 478 l 1,201,-1
 613 477 l 1,198,-1
249 778 m 1,202,-1
 323 749 l 2,203,204
 338 745 338 745 341 736 c 0,205,206
 343 728 343 728 339 723 c 0,207,208
 335 719 335 719 321 716 c 2,209,-1
 292 712 l 1,210,-1
 276 667 l 2,211,212
 272 650 272 650 258 616 c 0,213,214
 245 582 245 582 240 572 c 2,215,-1
 209 510 l 1,216,-1
 256 494 l 2,217,218
 270 490 270 490 268 479 c 0,219,220
 268 469 268 469 258 465 c 2,221,-1
 233 456 l 1,222,-1
 233 -61 l 2,223,224
 233 -81 233 -81 234 -88 c 0,225,226
 234 -100 234 -100 235 -111 c 0,227,228
 235 -115 235 -115 235.5 -123.5 c 128,-1,229
 236 -132 236 -132 237 -136 c 0,230,231
 238 -142 238 -142 238 -150 c 0,232,233
 238 -157 238 -157 234 -160 c 0,234,235
 230 -164 230 -164 223 -167 c 0,236,237
 213 -171 213 -171 205 -171 c 0,238,239
 200 -171 200 -171 194 -169 c 2,240,-1
 187 -162 l 2,241,242
 185 -156 185 -156 185 -148 c 2,243,-1
 185 469 l 1,244,-1
 146 406 l 2,245,246
 130 380 130 380 111 356 c 0,247,248
 94 335 94 335 77 316 c 2,249,-1
 54 290 l 1,250,-1
 41 303 l 1,251,-1
 63 336 l 1,252,-1
 92 378 l 2,253,254
 111 408 111 408 121 426 c 0,255,256
 128 439 128 439 149 482 c 0,257,258
 155 495 155 495 177 544 c 2,259,-1
 201 607 l 2,260,261
 213 639 213 639 222 666 c 0,262,263
 226 678 226 678 236 716 c 0,264,265
 245 750 245 750 246 755 c 2,266,-1
 249 778 l 1,202,-1
EndSplineSet
EndChar
StartChar: u2A740
Encoding: 173888 173888 29
Width: 1024
Flags: W
LayerCount: 2
Back
Fore
SplineSet
480 649 m 1,0,-1
 471 637 l 2,1,2
 467 630 467 630 454 615 c 0,3,4
 443 600 443 600 423 580 c 0,5,6
 399 556 399 556 383 542 c 0,7,8
 360 522 360 522 350 515 c 2,9,-1
 322 496 l 1,10,-1
 310 511 l 1,11,-1
 345 545 l 2,12,13
 353 553 353 553 375 577 c 0,14,15
 381 584 381 584 410 622 c 0,16,17
 429 647 429 647 440 669 c 0,18,19
 452 691 452 691 466 725 c 0,20,21
 480 756 480 756 485 776 c 2,22,-1
 488 788 l 1,23,-1
 558 761 l 2,24,25
 561 761 561 761 566 756 c 0,26,27
 571 753 571 753 571 747 c 0,28,29
 571 744 571 744 566 739 c 0,30,31
 564 735 564 735 555 732 c 2,32,-1
 526 725 l 1,33,-1
 510 697 l 1,34,-1
 498 677 l 1,35,-1
 741 677 l 1,36,-1
 775 711 l 1,37,-1
 821 674 l 2,38,39
 828 668 828 668 833 662 c 0,40,41
 838 657 838 657 837 651 c 0,42,43
 837 646 837 646 831 642 c 0,44,45
 820 638 820 638 818 638 c 2,46,-1
 794 633 l 1,47,-1
 777 611 l 1,48,-1
 747 576 l 1,49,-1
 715 539 l 1,50,-1
 688 511 l 1,51,-1
 682 504 l 1,52,-1
 673 495 l 1,53,-1
 873 495 l 1,54,-1
 906 534 l 1,55,-1
 948 507 l 2,56,57
 958 501 958 501 963 495 c 0,58,59
 968 490 968 490 968 483 c 0,60,61
 968 477 968 477 963 470 c 0,62,63
 959 466 959 466 947 460 c 2,64,-1
 929 452 l 1,65,-1
 929 -65 l 2,66,67
 929 -87 929 -87 924 -98 c 0,68,69
 920 -112 920 -112 910 -121 c 0,70,71
 900 -129 900 -129 887 -138 c 0,72,73
 873 -146 873 -146 867 -147 c 2,74,-1
 852 -151 l 1,75,76
 850 -139 850 -139 848 -133 c 0,77,78
 847 -123 847 -123 839 -114 c 0,79,80
 835 -107 835 -107 819 -99 c 0,81,82
 804 -92 804 -92 779 -88 c 2,83,-1
 749 -83 l 1,84,-1
 753 -60 l 1,85,86
 761 -61 761 -61 773.5 -62.5 c 128,-1,87
 786 -64 786 -64 790 -65 c 2,88,-1
 816 -69 l 2,89,90
 823 -70 823 -70 835.5 -71.5 c 128,-1,91
 848 -73 848 -73 851 -73 c 0,92,93
 867 -73 867 -73 874 -66 c 0,94,95
 881 -60 881 -60 881 -44 c 2,96,-1
 882 113 l 1,97,-1
 423 113 l 1,98,99
 418 79 418 79 411 49 c 0,100,101
 405 19 405 19 390 -17 c 0,102,103
 376 -51 376 -51 356 -84 c 0,104,105
 335 -117 335 -117 322 -132 c 2,106,-1
 299 -159 l 1,107,-1
 284 -147 l 1,108,-1
 305 -110 l 2,109,110
 317 -88 317 -88 329 -62 c 0,111,112
 342 -34 342 -34 353 0 c 0,113,114
 365 40 365 40 370 73 c 0,115,116
 375 104 375 104 380 175 c 0,117,118
 383 240 383 240 383 271 c 2,119,-1
 383 455 l 2,120,121
 383 484 383 484 382 499 c 2,122,-1
 380 530 l 1,123,-1
 441 495 l 1,124,-1
 645 495 l 1,125,-1
 659 514 l 1,126,-1
 681 547 l 1,127,-1
 705 586 l 1,128,-1
 729 629 l 1,129,-1
 739 649 l 1,130,-1
 480 649 l 1,0,-1
674 325 m 1,131,-1
 882 325 l 1,132,-1
 882 468 l 1,133,-1
 674 468 l 1,134,-1
 674 325 l 1,131,-1
674 298 m 1,135,-1
 674 141 l 1,136,-1
 882 141 l 1,137,-1
 882 298 l 1,138,-1
 674 298 l 1,135,-1
627 141 m 1,139,-1
 627 298 l 1,140,-1
 432 298 l 1,141,-1
 432 264 l 1,142,-1
 429 196 l 1,143,-1
 427 141 l 1,144,-1
 627 141 l 1,139,-1
628 325 m 1,145,-1
 628 468 l 1,146,-1
 433 468 l 1,147,-1
 433 363 l 1,148,-1
 433 349 l 1,149,-1
 432 325 l 1,150,-1
 628 325 l 1,145,-1
235 784 m 1,151,-1
 309 755 l 2,152,153
 323 750 323 750 326 742 c 128,-1,154
 329 734 329 734 324 729 c 0,155,156
 320 725 320 725 307 722 c 2,157,-1
 277 718 l 1,158,-1
 262 673 l 2,159,160
 260 665 260 665 243 622 c 0,161,162
 232 589 232 589 225 578 c 2,163,-1
 195 516 l 1,164,-1
 241 500 l 2,165,166
 254 496 254 496 254 485 c 0,167,168
 254 476 254 476 243 471 c 2,169,-1
 219 462 l 1,170,-1
 219 -55 l 1,171,-1
 219 -82 l 2,172,173
 219 -94 219 -94 220 -105 c 0,174,175
 220 -109 220 -109 220.5 -117.5 c 128,-1,176
 221 -126 221 -126 222 -130 c 0,177,178
 223 -136 223 -136 223 -144 c 0,179,180
 223 -151 223 -151 220 -154 c 128,-1,181
 217 -157 217 -157 209 -161 c 0,182,183
 199 -165 199 -165 191 -165 c 0,184,185
 185 -165 185 -165 179 -163 c 0,186,187
 175 -159 175 -159 173 -156 c 0,188,189
 170 -147 170 -147 170 -142 c 2,190,-1
 170 475 l 1,191,-1
 150 442 l 1,192,-1
 126 404 l 2,193,194
 106 374 106 374 95 360 c 0,195,196
 86 347 86 347 63 322 c 2,197,-1
 39 296 l 1,198,-1
 26 309 l 1,199,-1
 48 340 l 1,200,-1
 74 379 l 1,201,-1
 105 430 l 2,202,203
 116 449 116 449 134 487 c 0,204,205
 148 516 148 516 161 547 c 0,206,207
 166 559 166 559 175.5 584 c 128,-1,208
 185 609 185 609 187 614 c 0,209,210
 194 631 194 631 207 671 c 0,211,212
 214 694 214 694 222 722 c 0,213,214
 230 749 230 749 231 761 c 2,215,-1
 235 784 l 1,151,-1
EndSplineSet
EndChar
StartChar: u2A742
Encoding: 173890 173890 30
Width: 1024
Flags: W
LayerCount: 2
Back
Fore
SplineSet
237 784 m 1,0,-1
 311 755 l 2,1,2
 326 751 326 751 329 742 c 0,3,4
 331 734 331 734 327 729 c 0,5,6
 323 725 323 725 309 722 c 2,7,-1
 280 718 l 1,8,-1
 264 673 l 2,9,10
 260 656 260 656 246 622 c 0,11,12
 233 588 233 588 228 578 c 2,13,-1
 197 516 l 1,14,-1
 244 500 l 2,15,16
 258 496 258 496 256 485 c 0,17,18
 256 475 256 475 246 471 c 2,19,-1
 221 462 l 1,20,-1
 221 -55 l 2,21,22
 221 -75 221 -75 222 -82 c 0,23,24
 222 -94 222 -94 223 -105 c 0,25,26
 223 -109 223 -109 223.5 -117.5 c 128,-1,27
 224 -126 224 -126 225 -130 c 0,28,29
 226 -136 226 -136 226 -144 c 0,30,31
 226 -151 226 -151 222 -154 c 0,32,33
 218 -158 218 -158 211 -161 c 0,34,35
 201 -165 201 -165 193 -165 c 0,36,37
 188 -165 188 -165 182 -163 c 2,38,-1
 175 -156 l 2,39,40
 173 -150 173 -150 173 -142 c 2,41,-1
 173 475 l 1,42,-1
 153 442 l 1,43,-1
 128 404 l 2,44,45
 113 379 113 379 98 360 c 0,46,47
 88 346 88 346 65 322 c 2,48,-1
 42 296 l 1,49,-1
 29 309 l 1,50,-1
 51 340 l 1,51,-1
 77 379 l 1,52,-1
 107 430 l 2,53,54
 124 458 124 458 137 487 c 128,-1,55
 150 516 150 516 164 547 c 0,56,57
 169 559 169 559 178.5 584 c 128,-1,58
 188 609 188 609 190 614 c 0,59,60
 193 623 193 623 200 643 c 128,-1,61
 207 663 207 663 210 671 c 128,-1,62
 213 679 213 679 224 722 c 0,63,64
 233 756 233 756 234 761 c 2,65,-1
 237 784 l 1,0,-1
573 778 m 1,66,67
 600 767 600 767 605 764 c 0,68,69
 613 761 613 761 643 741 c 0,70,71
 667 724 667 724 676 711 c 0,72,73
 684 700 684 700 686 684 c 0,74,75
 686 664 686 664 677 658 c 2,76,-1
 667 650 l 1,77,-1
 859 650 l 1,78,-1
 914 707 l 1,79,-1
 979 650 l 2,80,81
 985 647 985 647 989 640 c 0,82,83
 991 636 991 636 990 630 c 0,84,85
 989 626 989 626 984 623 c 0,86,87
 980 621 980 621 977 621 c 2,88,-1
 430 621 l 1,89,-1
 394 620 l 2,90,91
 390 620 390 620 386 620 c 2,92,-1
 381 619 l 1,93,-1
 368 618 l 1,94,-1
 355 616 l 1,95,-1
 336 659 l 1,96,97
 351 657 351 657 359 655 c 0,98,99
 365 655 365 655 379 653 c 0,100,101
 383 653 383 653 405 651 c 0,102,103
 410 651 410 651 418.5 650.5 c 128,-1,104
 427 650 427 650 430 650 c 2,105,-1
 644 650 l 1,106,-1
 638 656 l 2,107,108
 638 660 638 660 634 669 c 0,109,110
 633 678 633 678 624 692 c 0,111,112
 619 703 619 703 607 717 c 0,113,114
 598 729 598 729 582 745 c 2,115,-1
 563 763 l 1,116,-1
 573 778 l 1,66,67
840 478 m 1,117,-1
 874 516 l 1,118,-1
 916 489 l 2,119,120
 926 484 926 484 931 477 c 0,121,122
 936 472 936 472 936 465 c 128,-1,123
 936 458 936 458 931 452 c 128,-1,124
 926 446 926 446 915 442 c 2,125,-1
 897 434 l 1,126,-1
 898 175 l 2,127,128
 898 134 898 134 899 117 c 0,129,130
 901 91 901 91 902 77 c 0,131,132
 904 60 904 60 903 56 c 0,133,134
 903 46 903 46 897 40 c 0,135,136
 895 36 895 36 883 33 c 0,137,138
 867 31 867 31 865 31 c 0,139,140
 857 34 857 34 855 35 c 0,141,142
 852 36 852 36 849 39 c 2,143,-1
 848 42 l 2,144,145
 848 44 848 44 848 46 c 2,146,-1
 848 81 l 1,147,-1
 484 81 l 1,148,-1
 484 56 l 2,149,150
 484 46 484 46 481 43 c 0,151,152
 480 40 480 40 469 37 c 0,153,154
 454 34 454 34 451 35 c 0,155,156
 442 35 442 35 437 39 c 0,157,158
 432 42 432 42 431 49 c 0,159,160
 429 59 429 59 430 65 c 0,161,162
 431 70 431 70 431.5 84 c 128,-1,163
 432 98 432 98 432 105 c 0,164,165
 434 132 434 132 435 150 c 0,166,167
 436 162 436 162 436 175 c 2,168,-1
 436 453 l 2,169,170
 436 479 436 479 434 485 c 2,171,-1
 430 519 l 1,172,-1
 488 478 l 1,173,-1
 840 478 l 1,117,-1
484 109 m 1,174,-1
 848 109 l 1,175,-1
 848 266 l 1,176,-1
 484 266 l 1,177,-1
 484 109 l 1,174,-1
484 294 m 1,178,-1
 848 294 l 1,179,-1
 848 449 l 1,180,-1
 484 449 l 1,181,-1
 484 294 l 1,178,-1
878 -80 m 1,182,-1
 927 -29 l 1,183,-1
 987 -82 l 1,184,-1
 995 -90 l 2,185,186
 998 -93 998 -93 995 -99 c 0,187,188
 994 -103 994 -103 989 -106 c 0,189,190
 985 -108 985 -108 982 -108 c 2,191,-1
 400 -109 l 2,192,193
 379 -109 379 -109 364 -110 c 2,194,-1
 351 -111 l 2,195,196
 347 -111 347 -111 342 -112 c 2,197,-1
 338 -112 l 1,198,-1
 325 -114 l 1,199,-1
 306 -71 l 1,200,201
 322 -73 322 -73 330 -75 c 0,202,203
 336 -75 336 -75 350 -77 c 0,204,205
 353 -77 353 -77 375 -79 c 0,206,207
 381 -79 381 -79 389.5 -79.5 c 128,-1,208
 398 -80 398 -80 400 -80 c 2,209,-1
 878 -80 l 1,182,-1
EndSplineSet
EndChar
StartChar: u2A743
Encoding: 173891 173891 31
Width: 1024
Flags: W
LayerCount: 2
Back
Fore
SplineSet
308 709 m 1,0,-1
 322 702 l 1,1,-1
 334 696 l 1,2,-1
 384 670 l 2,3,4
 418 650 418 650 438 635 c 0,5,6
 461 620 461 620 481 600 c 0,7,8
 499 585 499 585 508 570 c 0,9,10
 518 556 518 556 519 543 c 0,11,12
 521 531 521 531 515 521 c 0,13,14
 510 511 510 511 500 510 c 0,15,16
 490 510 490 510 480 517 c 0,17,18
 472 524 472 524 459 542 c 0,19,20
 449 558 449 558 438 571 c 2,21,-1
 407 602 l 2,22,23
 383 626 383 626 377 631 c 0,24,25
 371 637 371 637 344 656 c 2,26,-1
 311 680 l 1,27,-1
 298 688 l 2,28,29
 297 684 297 684 290 670 c 0,30,31
 282 652 282 652 279 646 c 0,32,33
 261 615 261 615 257 608 c 2,34,-1
 228 561 l 2,35,36
 219 548 219 548 192 512 c 0,37,38
 166 479 166 479 157 470 c 2,39,-1
 147 460 l 1,40,-1
 159 458 l 2,41,42
 160 458 160 458 163 457.5 c 128,-1,43
 166 457 166 457 168 457 c 2,44,-1
 188 455 l 2,45,46
 208 453 208 453 216 453 c 0,47,48
 221 453 221 453 228.5 452.5 c 128,-1,49
 236 452 236 452 239 452 c 2,50,-1
 386 452 l 1,51,-1
 426 492 l 1,52,-1
 483 449 l 2,53,54
 487 446 487 446 490 442 c 0,55,56
 494 438 494 438 491 432 c 0,57,58
 491 428 491 428 486 425 c 0,59,60
 480 423 480 423 478 423 c 2,61,-1
 334 423 l 1,62,-1
 334 275 l 1,63,-1
 442 275 l 1,64,-1
 482 315 l 1,65,-1
 539 272 l 2,66,67
 542 271 542 271 546 265 c 0,68,69
 548 261 548 261 547 256 c 0,70,71
 545 251 545 251 541 248 c 0,72,73
 537 246 537 246 534 246 c 2,74,-1
 334 246 l 1,75,-1
 334 -52 l 2,76,77
 334 -72 334 -72 329 -85 c 128,-1,78
 324 -98 324 -98 315 -107 c 128,-1,79
 306 -116 306 -116 292 -124 c 0,80,81
 280 -131 280 -131 272 -133 c 2,82,-1
 257 -137 l 1,83,84
 255 -125 255 -125 253 -119 c 0,85,86
 252 -110 252 -110 244 -101 c 0,87,88
 240 -94 240 -94 223 -86 c 0,89,90
 210 -78 210 -78 184 -74 c 2,91,-1
 154 -69 l 1,92,-1
 158 -46 l 1,93,94
 181 -49 181 -49 195 -52 c 2,95,-1
 221 -55 l 2,96,97
 230 -56 230 -56 242.5 -58 c 128,-1,98
 255 -60 255 -60 259 -60 c 0,99,100
 272 -60 272 -60 279 -53 c 0,101,102
 287 -45 287 -45 287 -31 c 2,103,-1
 287 246 l 1,104,-1
 155 246 l 2,105,106
 138 246 138 246 127 245 c 0,107,108
 121 245 121 245 114 244.5 c 128,-1,109
 107 244 107 244 106 244 c 128,-1,110
 105 244 105 244 100.5 243 c 128,-1,111
 96 242 96 242 93 242 c 2,112,-1
 81 241 l 1,113,-1
 61 284 l 1,114,115
 66 284 66 284 83 280 c 0,116,117
 87 280 87 280 105 278 c 0,118,119
 114 278 114 278 132 276 c 0,120,121
 137 276 137 276 144.5 275.5 c 128,-1,122
 152 275 152 275 155 275 c 2,123,-1
 287 275 l 1,124,-1
 287 423 l 1,125,-1
 239 423 l 2,126,127
 221 423 221 423 210 422 c 0,128,129
 192 420 192 420 189 420 c 0,130,131
 188 420 188 420 184 419.5 c 128,-1,132
 180 419 180 419 177 419 c 2,133,-1
 165 417 l 1,134,-1
 146 459 l 1,135,-1
 123 436 l 1,136,-1
 93 406 l 2,137,138
 81 394 81 394 57 376 c 2,139,-1
 36 359 l 1,140,-1
 25 372 l 1,141,-1
 51 399 l 2,142,143
 58 406 58 406 84 436 c 0,144,145
 113 471 113 471 124 487 c 0,146,147
 147 517 147 517 160 536 c 0,148,149
 172 552 172 552 192 587 c 0,150,151
 197 595 197 595 221 641 c 0,152,153
 224 647 224 647 241 684 c 2,154,-1
 259 735 l 2,155,156
 271 772 271 772 272 776 c 2,157,-1
 275 792 l 1,158,-1
 352 759 l 2,159,160
 361 756 361 756 365 752 c 0,161,162
 368 749 368 749 367 743 c 0,163,164
 367 740 367 740 362 735 c 0,165,166
 352 732 352 732 346 731 c 2,167,-1
 316 727 l 1,168,-1
 308 709 l 1,0,-1
162 176 m 1,169,-1
 215 154 l 2,170,171
 229 149 229 149 235 144 c 0,172,173
 242 140 242 140 241 131 c 0,174,175
 241 124 241 124 235 121 c 0,176,177
 228 118 228 118 215 116 c 2,178,-1
 198 113 l 1,179,-1
 176 75 l 2,180,181
 171 67 171 67 148 33 c 0,182,183
 133 12 133 12 107 -17 c 0,184,185
 79 -48 79 -48 69 -56 c 2,186,-1
 45 -76 l 1,187,-1
 31 -63 l 1,188,-1
 50 -40 l 2,189,190
 60 -28 60 -28 74 -7 c 0,191,192
 91 18 91 18 105 43 c 0,193,194
 125 77 125 77 133 97 c 0,195,196
 144 121 144 121 151 142 c 2,197,-1
 162 176 l 1,169,-1
410 183 m 1,198,199
 427 172 427 172 433 167 c 2,200,-1
 459 148 l 2,201,202
 482 130 482 130 487 125 c 0,203,204
 502 111 502 111 513 98 c 0,205,206
 524 86 524 86 531 70 c 0,207,208
 536 59 536 59 538 44 c 0,209,210
 540 32 540 32 532 20 c 0,211,212
 525 8 525 8 513 8 c 0,213,214
 500 8 500 8 493 16 c 0,215,216
 489 20 489 20 486 30 c 2,217,-1
 480 51 l 2,218,219
 475 69 475 69 469 80 c 0,220,221
 464 90 464 90 454 106 c 0,222,223
 448 117 448 117 433 132 c 0,224,225
 421 147 421 147 412 155 c 2,226,-1
 398 169 l 1,227,-1
 410 183 l 1,198,199
701 97 m 1,228,229
 699 101 699 101 684 121 c 0,230,231
 672 139 672 139 652 180 c 0,232,233
 632 222 632 222 613 276 c 0,234,235
 597 322 597 322 581 382 c 0,236,237
 570 427 570 427 562 481 c 0,238,239
 556 530 556 530 553 563 c 2,240,-1
 549 613 l 1,241,-1
 571 615 l 1,242,243
 574 584 574 584 577 558 c 0,244,245
 580 534 580 534 589 483 c 0,246,247
 598 434 598 434 610 387 c 0,248,249
 620 346 620 346 642 290 c 0,250,251
 662 240 662 240 681 206 c 0,252,253
 699 173 699 173 717 146 c 2,254,-1
 728 131 l 1,255,-1
 746 156 l 2,256,257
 757 173 757 173 777 210 c 0,258,259
 799 251 799 251 809 278 c 0,260,261
 819 302 819 302 835 354 c 0,262,263
 846 389 846 389 855 431 c 0,264,265
 861 456 861 456 871 528 c 2,266,-1
 883 627 l 1,267,-1
 889 675 l 1,268,-1
 583 675 l 2,269,270
 563 675 563 675 550 674 c 2,271,-1
 537 673 l 2,272,273
 533 673 533 673 529 672 c 2,274,-1
 525 672 l 1,275,-1
 513 670 l 1,276,-1
 495 713 l 1,277,-1
 520 709 l 2,278,279
 524 708 524 708 529.5 707.5 c 128,-1,280
 535 707 535 707 536 707 c 0,281,282
 545 707 545 707 559 705 c 0,283,284
 567 705 567 705 575.5 704.5 c 128,-1,285
 584 704 584 704 585 704 c 2,286,-1
 881 703 l 1,287,-1
 913 741 l 1,288,-1
 953 714 l 2,289,290
 961 710 961 710 966 702 c 0,291,292
 971 697 971 697 971 690 c 128,-1,293
 971 683 971 683 966 677 c 0,294,295
 963 672 963 672 954 668 c 2,296,-1
 945 664 l 1,297,-1
 935 659 l 1,298,-1
 926 585 l 2,299,300
 922 550 922 550 915 509 c 0,301,302
 910 476 910 476 900 425 c 0,303,304
 889 373 889 373 878 336 c 0,305,306
 867 296 867 296 851 259 c 0,307,308
 832 219 832 219 811 181 c 0,309,310
 787 139 787 139 764 111 c 2,311,-1
 754 97 l 1,312,-1
 774 75 l 1,313,-1
 807 40 l 2,314,315
 826 23 826 23 854 -1 c 0,316,317
 884 -24 884 -24 920 -46 c 0,318,319
 953 -67 953 -67 973 -74 c 2,320,-1
 997 -81 l 1,321,-1
 996 -100 l 1,322,-1
 979 -100 l 2,323,324
 966 -100 966 -100 958 -103 c 0,325,326
 947 -106 947 -106 940 -116 c 2,327,-1
 929 -129 l 1,328,329
 905 -113 905 -113 875 -91 c 0,330,331
 854 -74 854 -74 824 -46 c 0,332,333
 794 -16 794 -16 769 12 c 0,334,335
 744 39 744 39 732 55 c 2,336,-1
 725 64 l 1,337,-1
 714 51 l 1,338,-1
 685 23 l 2,339,340
 661 -1 661 -1 621 -30 c 0,341,342
 590 -54 590 -54 535 -89 c 0,343,344
 487 -117 487 -117 456 -132 c 2,345,-1
 425 -146 l 1,346,-1
 415 -126 l 1,347,-1
 455 -105 l 2,348,349
 495 -81 495 -81 520 -64 c 0,350,351
 567 -32 567 -32 600 -3 c 0,352,353
 640 31 640 31 664 56 c 0,354,355
 690 84 690 84 694 89 c 2,356,-1
 701 97 l 1,228,229
659 587 m 1,357,-1
 674 575 l 2,358,359
 684 567 684 567 704 547 c 0,360,361
 728 525 728 525 737 513 c 0,362,363
 751 497 751 497 756 489 c 0,364,365
 765 476 765 476 769 465 c 0,366,367
 774 451 774 451 773 439 c 0,368,369
 773 434 773 434 768 422 c 0,370,371
 764 413 764 413 755 409 c 0,372,373
 747 406 747 406 737 410 c 0,374,375
 729 415 729 415 725 423 c 0,376,377
 721 436 721 436 717 452 c 0,378,379
 712 474 712 474 704 491 c 0,380,381
 696 512 696 512 684 528 c 0,382,383
 677 541 677 541 656 565 c 2,384,-1
 649 573 l 1,385,-1
 659 587 l 1,357,-1
EndSplineSet
EndChar
StartChar: u2A744
Encoding: 173892 173892 32
Width: 1024
Flags: W
LayerCount: 2
Back
Fore
SplineSet
794 507 m 2,0,1
 795 508 795 508 797 510 c 2,2,-1
 799 511 l 1,3,-1
 827 533 l 2,4,5
 846 548 846 548 858 560 c 0,6,7
 872 574 872 574 877 581 c 2,8,-1
 895 603 l 1,9,-1
 932 573 l 2,10,11
 959 552 959 552 961 544 c 0,12,13
 963 538 963 538 958 533 c 0,14,15
 955 528 955 528 943 530 c 2,16,-1
 912 534 l 2,17,18
 907 532 907 532 900.5 529.5 c 128,-1,19
 894 527 894 527 893 526 c 2,20,-1
 864 512 l 2,21,22
 855 508 855 508 833 500 c 2,23,-1
 813 492 l 2,24,25
 815 490 815 490 825 482 c 0,26,27
 830 479 830 479 852 462 c 2,28,-1
 892 438 l 2,29,30
 905 432 905 432 935 417 c 0,31,32
 957 408 957 408 969 404 c 2,33,-1
 996 397 l 1,34,-1
 996 382 l 2,35,36
 995 382 995 382 977 380 c 0,37,38
 965 380 965 380 954 370 c 0,39,40
 944 362 944 362 939 349 c 2,41,-1
 933 336 l 1,42,-1
 904 355 l 2,43,44
 895 361 895 361 860 386 c 0,45,46
 841 400 841 400 807 431 c 0,47,48
 783 454 783 454 754 486 c 2,49,-1
 716 532 l 1,50,-1
 689 572 l 1,51,-1
 662 613 l 1,52,-1
 653 628 l 1,53,-1
 624 628 l 1,54,-1
 590 579 l 2,55,56
 578 560 578 560 549 528 c 0,57,58
 528 503 528 503 499 474 c 0,59,60
 475 448 475 448 424 412 c 0,61,62
 377 376 377 376 334 354 c 2,63,-1
 291 331 l 1,64,-1
 281 350 l 1,65,-1
 340 387 l 2,66,67
 372 408 372 408 401 433 c 0,68,69
 405 437 405 437 423 452.5 c 128,-1,70
 441 468 441 468 447 474 c 0,71,72
 470 497 470 497 481 510 c 0,73,74
 498 528 498 528 517 552 c 0,75,76
 525 563 525 563 554 605 c 2,77,-1
 570 628 l 1,78,-1
 436 628 l 1,79,-1
 356 625 l 1,80,-1
 347 625 l 1,81,-1
 341 624 l 1,82,-1
 320 668 l 1,83,84
 328 666 328 666 333 664 c 0,85,86
 335 664 335 664 347.5 662.5 c 128,-1,87
 360 661 360 661 371 659 c 0,88,89
 413 655 413 655 436 655 c 2,90,-1
 583 655 l 1,91,-1
 596 680 l 2,92,93
 599 688 599 688 608 712 c 0,94,95
 612 723 612 723 619 750 c 2,96,-1
 623 773 l 1,97,-1
 687 753 l 2,98,99
 699 750 699 750 708 745 c 0,100,101
 714 742 714 742 714 733 c 0,102,103
 714 725 714 725 709 721 c 0,104,105
 700 718 700 718 690 716 c 2,106,-1
 666 713 l 1,107,-1
 639 655 l 1,108,-1
 855 655 l 1,109,-1
 901 706 l 1,110,-1
 967 654 l 2,111,112
 973 649 973 649 976 644 c 0,113,114
 978 640 978 640 974 633 c 2,115,-1
 970 629 l 1,116,-1
 968 628 l 2,117,118
 966 628 966 628 964 628 c 2,119,-1
 684 628 l 1,120,121
 688 623 688 623 694 612 c 0,122,123
 699 606 699 606 729 571 c 2,124,-1
 773 526 l 1,125,-1
 786 515 l 1,126,-1
 794 507 l 2,0,1
513 242 m 1,127,-1
 555 353 l 1,128,-1
 534 353 l 2,129,130
 475 353 475 353 463 351 c 2,131,-1
 445 349 l 1,132,-1
 438 349 l 1,133,-1
 419 393 l 1,134,135
 429 391 429 391 434 389 c 0,136,137
 437 388 437 388 479 385 c 0,138,139
 491 385 491 385 509.5 383.5 c 128,-1,140
 528 382 528 382 534 382 c 2,141,-1
 728 382 l 1,142,-1
 770 425 l 1,143,-1
 825 379 l 2,144,145
 828 377 828 377 832 371 c 0,146,147
 836 369 836 369 833 362 c 0,148,149
 833 358 833 358 828 355 c 0,150,151
 824 353 824 353 820 353 c 2,152,-1
 611 353 l 1,153,-1
 567 242 l 1,154,-1
 860 242 l 1,155,-1
 909 293 l 1,156,-1
 969 240 l 1,157,-1
 975 235 l 2,158,159
 980 230 980 230 977 223 c 0,160,161
 977 219 977 219 972 216 c 0,162,163
 971 216 971 216 968.5 214.5 c 128,-1,164
 966 213 966 213 964 213 c 2,165,-1
 555 213 l 1,166,-1
 511 104 l 1,167,-1
 790 104 l 1,168,-1
 824 142 l 1,169,-1
 866 115 l 2,170,171
 876 110 876 110 881 103 c 0,172,173
 886 98 886 98 886 91 c 128,-1,174
 886 84 886 84 881 78 c 128,-1,175
 876 72 876 72 865 68 c 2,176,-1
 847 60 l 1,177,-1
 840 15 l 1,178,-1
 830 -39 l 2,179,180
 825 -70 825 -70 817 -89 c 0,181,182
 810 -107 810 -107 792 -125 c 0,183,184
 778 -139 778 -139 754 -152 c 0,185,186
 731 -164 731 -164 719 -165 c 2,187,-1
 701 -167 l 1,188,189
 699 -152 699 -152 697 -146 c 128,-1,190
 695 -140 695 -140 690 -133 c 0,191,192
 687 -127 687 -127 673 -119 c 0,193,194
 661 -112 661 -112 649 -107 c 2,195,-1
 592 -81 l 1,196,-1
 601 -61 l 1,197,-1
 657 -80 l 2,198,199
 678 -88 678 -88 693 -92 c 0,200,201
 708 -97 708 -97 718 -97 c 0,202,203
 733 -97 733 -97 747 -89 c 128,-1,204
 761 -81 761 -81 770 -60 c 0,205,206
 780 -39 780 -39 784 -18 c 2,207,-1
 793 42 l 1,208,-1
 798 76 l 1,209,-1
 506 76 l 2,210,211
 499 76 499 76 485 74 c 0,212,213
 483 74 483 74 477 73.5 c 128,-1,214
 471 73 471 73 467 73 c 0,215,216
 458 73 458 73 453 76 c 0,217,218
 449 80 449 80 448 82 c 0,219,220
 448 86 448 86 453 94 c 0,221,222
 454 97 454 97 461 111 c 128,-1,223
 468 125 468 125 469 128 c 2,224,-1
 502 213 l 1,225,-1
 425 213 l 1,226,-1
 345 211 l 2,227,228
 342 211 342 211 339 210 c 2,229,-1
 336 210 l 1,230,-1
 329 209 l 1,231,-1
 310 254 l 1,232,233
 320 252 320 252 325 250 c 0,234,235
 327 250 327 250 337 248.5 c 128,-1,236
 347 247 347 247 356 245 c 0,237,238
 401 242 401 242 425 242 c 2,239,-1
 513 242 l 1,127,-1
352 591 m 1,240,-1
 362 606 l 1,241,-1
 392 590 l 2,242,243
 403 584 403 584 420 571 c 0,244,245
 438 560 438 560 447 550 c 0,246,247
 456 542 456 542 461 530 c 128,-1,248
 466 518 466 518 465 504 c 256,249,250
 464 490 464 490 450 486 c 0,251,252
 437 483 437 483 430 488 c 0,253,254
 423 495 423 495 416 509 c 0,255,256
 411 525 411 525 404 535 c 0,257,258
 401 542 401 542 387 558 c 0,259,260
 379 570 379 570 370 577 c 2,261,-1
 352 591 l 1,240,-1
221 507 m 1,262,-1
 263 491 l 2,263,264
 270 489 270 489 274 482 c 0,265,266
 279 476 279 476 276 470 c 0,267,268
 275 467 275 467 258 459 c 2,269,-1
 239 452 l 1,270,-1
 240 -49 l 1,271,-1
 240 -81 l 1,272,-1
 241 -99 l 1,273,-1
 242 -117 l 1,274,-1
 244 -132 l 1,275,-1
 244 -148 l 2,276,277
 244 -152 244 -152 241 -156 c 0,278,279
 239 -161 239 -161 233 -164 c 0,280,281
 226 -168 226 -168 211 -167 c 0,282,283
 204 -167 204 -167 200 -164 c 0,284,285
 198 -163 198 -163 193 -158 c 0,286,287
 191 -152 191 -152 191 -149 c 2,288,-1
 191 -111 l 1,289,-1
 191 446 l 1,290,-1
 176 420 l 1,291,-1
 153 384 l 2,292,293
 146 373 146 373 117 331 c 0,294,295
 94 300 94 300 83 288 c 2,296,-1
 60 264 l 1,297,-1
 45 280 l 1,298,-1
 67 313 l 2,299,300
 68 314 68 314 77.5 328.5 c 128,-1,301
 87 343 87 343 92 352 c 2,302,-1
 122 403 l 2,303,304
 133 423 133 423 153 465 c 0,305,306
 171 503 171 503 182 532 c 0,307,308
 198 568 198 568 205 590 c 0,309,310
 207 597 207 597 213.5 618.5 c 128,-1,311
 220 640 220 640 225 654 c 2,312,-1
 243 716 l 2,313,314
 243 718 243 718 247 736 c 128,-1,315
 251 754 251 754 253 765 c 2,316,-1
 255 780 l 1,317,-1
 328 754 l 2,318,319
 342 750 342 750 347 742 c 0,320,321
 352 737 352 737 349 731 c 0,322,323
 349 728 349 728 343 723 c 0,324,325
 333 720 333 720 327 719 c 2,326,-1
 297 715 l 1,327,-1
 285 674 l 2,328,329
 281 655 281 655 268 622 c 0,330,331
 254 581 254 581 248 569 c 0,332,333
 244 557 244 557 226 517 c 2,334,-1
 221 507 l 1,262,-1
EndSplineSet
EndChar
StartChar: u2A746
Encoding: 173894 173894 33
Width: 1024
Flags: W
LayerCount: 2
Back
Fore
SplineSet
241 780 m 1,0,-1
 315 751 l 2,1,2
 330 747 330 747 333 738 c 0,3,4
 335 730 335 730 331 725 c 0,5,6
 327 721 327 721 313 718 c 2,7,-1
 284 714 l 1,8,-1
 268 669 l 2,9,10
 264 652 264 652 250 618 c 0,11,12
 238 584 238 584 232 574 c 2,13,-1
 201 513 l 1,14,-1
 248 496 l 2,15,16
 260 492 260 492 260 481 c 0,17,18
 260 471 260 471 250 467 c 2,19,-1
 225 458 l 1,20,-1
 225 -59 l 2,21,22
 225 -79 225 -79 226 -85 c 0,23,24
 226 -98 226 -98 227 -109 c 0,25,26
 227 -113 227 -113 227.5 -121.5 c 128,-1,27
 228 -130 228 -130 229 -134 c 0,28,29
 230 -139 230 -139 230 -147 c 0,30,31
 230 -154 230 -154 226 -158 c 2,32,-1
 216 -164 l 2,33,34
 208 -169 208 -169 197 -169 c 0,35,36
 192 -169 192 -169 186 -167 c 2,37,-1
 179 -160 l 2,38,39
 177 -154 177 -154 177 -146 c 2,40,-1
 177 471 l 1,41,-1
 152 432 l 1,42,-1
 128 393 l 1,43,-1
 104 359 l 2,44,45
 80 330 80 330 69 318 c 2,46,-1
 46 292 l 1,47,-1
 33 305 l 1,48,-1
 57 340 l 1,49,-1
 83 379 l 2,50,51
 89 388 89 388 111 426 c 0,52,53
 122 445 122 445 140 483 c 0,54,55
 162 530 162 530 168 544 c 2,56,-1
 194 610 l 2,57,58
 210 653 210 653 214 667 c 0,59,60
 222 691 222 691 229 718 c 0,61,62
 237 745 237 745 238 758 c 2,63,-1
 241 780 l 1,0,-1
317 663 m 1,64,65
 327 661 327 661 333 659 c 0,66,67
 359 655 359 655 362 654 c 0,68,69
 401 651 401 651 428 651 c 2,70,-1
 460 651 l 1,71,-1
 447 772 l 1,72,-1
 504 766 l 1,73,-1
 529 764 l 2,74,75
 544 761 544 761 546 753 c 0,76,77
 548 746 548 746 539 738 c 0,78,79
 532 731 532 731 515 725 c 2,80,-1
 500 719 l 1,81,-1
 508 651 l 1,82,-1
 523 651 l 1,83,-1
 569 698 l 1,84,-1
 622 650 l 2,85,86
 630 644 630 644 633 639 c 0,87,88
 635 635 635 635 634 631 c 0,89,90
 634 627 634 627 630 626 c 0,91,92
 628 624 628 624 621 624 c 2,93,-1
 511 624 l 1,94,-1
 522 533 l 2,95,96
 524 525 524 525 519 520 c 0,97,98
 518 519 518 519 506 514 c 2,99,-1
 495 510 l 2,100,101
 485 507 485 507 479 510 c 0,102,103
 473 514 473 514 472 521 c 2,104,-1
 462 624 l 1,105,-1
 421 624 l 2,106,107
 381 624 381 624 359 622 c 2,108,-1
 343 620 l 1,109,-1
 336 619 l 1,110,-1
 317 663 l 1,64,65
787 776 m 1,111,-1
 843 760 l 1,112,-1
 870 752 l 2,113,114
 882 748 882 748 884 738 c 0,115,116
 884 732 884 732 877 726 c 0,117,118
 873 722 873 722 855 717 c 2,119,-1
 832 711 l 1,120,-1
 825 651 l 1,121,-1
 869 651 l 1,122,-1
 917 699 l 1,123,-1
 981 648 l 2,124,125
 988 643 988 643 989 639 c 0,126,127
 991 634 991 634 988 629 c 0,128,129
 986 627 986 627 984 626 c 0,130,131
 982 624 982 624 978 624 c 2,132,-1
 823 624 l 1,133,134
 823 620 823 620 821 606 c 0,135,136
 821 597 821 597 815 570 c 0,137,138
 814 560 814 560 812 547 c 128,-1,139
 810 534 810 534 810 532 c 0,140,141
 810 522 810 522 807 517 c 0,142,143
 806 514 806 514 799 511 c 0,144,145
 790 508 790 508 781 508 c 0,146,147
 768 508 768 508 763 511 c 0,148,149
 759 517 759 517 759 523 c 0,150,151
 759 527 759 527 761 541 c 0,152,153
 762 548 762 548 767 573 c 0,154,155
 770 594 770 594 770 597 c 2,156,-1
 772 624 l 1,157,-1
 745 623 l 1,158,-1
 716 622 l 1,159,-1
 703 622 l 1,160,-1
 682 619 l 1,161,-1
 664 662 l 1,162,163
 689 658 689 658 704 655 c 0,164,165
 706 655 706 655 720 653.5 c 128,-1,166
 734 652 734 652 741 652 c 2,167,-1
 777 652 l 1,168,-1
 781 694 l 2,169,170
 782 715 782 715 784 728 c 2,171,-1
 787 776 l 1,111,-1
586 546 m 1,172,-1
 620 526 l 2,173,174
 639 516 639 516 654 502 c 0,175,176
 669 491 669 491 684 473 c 0,177,178
 699 458 699 458 703 444 c 0,179,180
 709 430 709 430 705 419 c 0,181,182
 704 413 704 413 698 407 c 2,183,-1
 689 400 l 1,184,-1
 870 400 l 1,185,-1
 920 453 l 1,186,-1
 989 398 l 2,187,188
 995 393 995 393 997 388 c 128,-1,189
 999 383 999 383 996 378 c 0,190,191
 994 376 994 376 991 374 c 2,192,-1
 988 374 l 2,193,194
 985 373 985 373 983 373 c 2,195,-1
 577 373 l 1,196,197
 577 366 577 366 576.5 357 c 128,-1,198
 576 348 576 348 576 345 c 0,199,200
 576 341 576 341 571 299 c 0,201,202
 568 269 568 269 566 257 c 2,203,-1
 560 225 l 1,204,-1
 839 226 l 1,205,-1
 872 264 l 1,206,-1
 912 238 l 2,207,208
 931 226 931 226 934 221 c 0,209,210
 939 214 939 214 938 208 c 0,211,212
 938 204 938 204 929 196 c 0,213,214
 922 191 922 191 909 185 c 2,215,-1
 896 180 l 1,216,-1
 891 140 l 2,217,218
 890 125 890 125 882 80 c 0,219,220
 876 39 876 39 870 9 c 0,221,222
 866 -14 866 -14 853 -48 c 0,223,224
 842 -80 842 -80 828 -98 c 0,225,226
 816 -115 816 -115 792 -133 c 0,227,228
 766 -148 766 -148 748 -152 c 2,229,-1
 715 -160 l 1,230,231
 715 -148 715 -148 711 -139 c 0,232,233
 710 -129 710 -129 699 -120 c 0,234,235
 689 -110 689 -110 665 -100 c 0,236,237
 656 -96 656 -96 643 -90.5 c 128,-1,238
 630 -85 630 -85 628 -84 c 2,239,-1
 600 -72 l 1,240,-1
 604 -51 l 1,241,242
 631 -60 631 -60 639 -63 c 2,243,-1
 677 -75 l 2,244,245
 699 -81 699 -81 715 -85 c 0,246,247
 732 -87 732 -87 744 -86 c 0,248,249
 763 -84 763 -84 774 -78 c 0,250,251
 786 -70 786 -70 798 -50 c 0,252,253
 809 -29 809 -29 818 4 c 0,254,255
 825 35 825 35 833 81 c 0,256,257
 839 125 839 125 842 157 c 2,258,-1
 846 198 l 1,259,-1
 554 198 l 1,260,261
 547 171 547 171 537 143 c 0,262,263
 528 113 528 113 514 82 c 0,264,265
 501 49 501 49 477 12 c 0,266,267
 454 -21 454 -21 426 -51 c 0,268,269
 394 -85 394 -85 374 -100 c 0,270,271
 354 -116 354 -116 330 -131 c 2,272,-1
 302 -147 l 1,273,-1
 292 -130 l 2,274,275
 294 -128 294 -128 315 -112 c 0,276,277
 325 -104 325 -104 351 -80 c 0,278,279
 378 -53 378 -53 399 -27 c 0,280,281
 422 0 422 0 442 35 c 0,282,283
 461 68 461 68 477 112 c 0,284,285
 496 163 496 163 502 192 c 0,286,287
 509 220 509 220 518 274 c 0,288,289
 525 317 525 317 525 339 c 2,290,-1
 526 373 l 1,291,-1
 444 373 l 2,292,293
 401 373 401 373 383 371 c 2,294,-1
 348 369 l 1,295,-1
 327 412 l 1,296,297
 337 410 337 410 343 408 c 0,298,299
 345 408 345 408 350 407 c 128,-1,300
 355 406 355 406 361 405 c 128,-1,301
 367 404 367 404 374 403 c 0,302,303
 416 400 416 400 444 400 c 2,304,-1
 664 400 l 2,305,306
 661 402 661 402 657 406 c 0,307,308
 657 407 657 407 654.5 413 c 128,-1,309
 652 419 652 419 650 424 c 0,310,311
 649 435 649 435 642 450 c 0,312,313
 638 460 638 460 622 481 c 0,314,315
 609 499 609 499 595 512 c 2,316,-1
 574 531 l 1,317,-1
 586 546 l 1,172,-1
EndSplineSet
EndChar
StartChar: u2A747
Encoding: 173895 173895 34
Width: 1024
Flags: W
LayerCount: 2
Back
Fore
SplineSet
840 327 m 1,0,1
 835 298 835 298 831 280 c 0,2,3
 829 267 829 267 820 237 c 0,4,5
 814 213 814 213 802 184 c 0,6,7
 790 151 790 151 779 133 c 0,8,9
 770 115 770 115 746 80 c 0,10,11
 727 51 727 51 710 34 c 2,12,-1
 701 24 l 2,13,14
 704 22 704 22 710.5 17 c 128,-1,15
 717 12 717 12 719 11 c 0,16,17
 726 6 726 6 751 -9 c 0,18,19
 781 -25 781 -25 796 -34 c 0,20,21
 799 -35 799 -35 817.5 -43.5 c 128,-1,22
 836 -52 836 -52 846 -56 c 0,23,24
 876 -66 876 -66 902 -74 c 0,25,26
 932 -82 932 -82 953 -86 c 2,27,-1
 975 -91 l 1,28,-1
 975 -111 l 1,29,30
 968 -111 968 -111 950 -113 c 0,31,32
 936 -115 936 -115 930 -121 c 0,33,34
 923 -125 923 -125 914 -142 c 2,35,-1
 909 -150 l 1,36,-1
 874 -136 l 1,37,-1
 828 -115 l 2,38,39
 820 -111 820 -111 772 -83 c 0,40,41
 742 -65 742 -65 722 -50 c 0,42,43
 711 -41 711 -41 681 -16 c 2,44,-1
 669 -6 l 1,45,-1
 660 -14 l 1,46,-1
 641 -30 l 1,47,-1
 591 -64 l 1,48,49
 545 -90 545 -90 520 -102 c 0,50,51
 486 -118 486 -118 455 -129 c 2,52,-1
 389 -151 l 1,53,-1
 366 -159 l 1,54,-1
 359 -139 l 1,55,-1
 389 -127 l 1,56,-1
 436 -106 l 2,57,58
 472 -89 472 -89 496 -75 c 0,59,60
 529 -56 529 -56 559 -35 c 0,61,62
 593 -13 593 -13 618 9 c 2,63,-1
 630 20 l 1,64,-1
 638 27 l 1,65,66
 635 31 635 31 628 38 c 0,67,68
 628 39 628 39 625 42.5 c 128,-1,69
 622 46 622 46 618.5 51.5 c 128,-1,70
 615 57 615 57 611 63 c 0,71,72
 606 70 606 70 596 86 c 128,-1,73
 586 102 586 102 582 109 c 0,74,75
 560 150 560 150 554 164 c 2,76,-1
 534 218 l 1,77,-1
 525 249 l 1,78,-1
 546 256 l 1,79,-1
 562 214 l 2,80,81
 568 198 568 198 582 172 c 2,82,-1
 616 118 l 2,83,84
 638 86 638 86 652 70 c 2,85,-1
 665 56 l 1,86,87
 672 63 672 63 677 69 c 0,88,89
 686 79 686 79 704 109 c 0,90,91
 720 135 720 135 736 165 c 0,92,93
 749 192 749 192 762 232 c 0,94,95
 776 274 776 274 780 297 c 2,96,-1
 785 327 l 1,97,-1
 524 327 l 1,98,-1
 512 307 l 2,99,100
 508 301 508 301 488 269 c 0,101,102
 476 249 476 249 456 224 c 0,103,104
 440 202 440 202 426 188 c 2,105,-1
 400 160 l 1,106,-1
 385 175 l 1,107,-1
 405 202 l 2,108,109
 409 208 409 208 431 245 c 0,110,111
 446 270 446 270 461 301 c 0,112,113
 473 326 473 326 485 354 c 0,114,115
 498 386 498 386 508 413 c 0,116,117
 519 447 519 447 522 459 c 2,118,-1
 530 493 l 1,119,-1
 598 468 l 2,120,121
 610 465 610 465 614 459 c 0,122,123
 620 454 620 454 619 448 c 0,124,125
 619 443 619 443 612 437 c 0,126,127
 604 433 604 433 596 432 c 2,128,-1
 575 430 l 1,129,-1
 561 402 l 1,130,-1
 548 376 l 1,131,-1
 538 354 l 1,132,-1
 858 354 l 1,133,-1
 906 403 l 1,134,-1
 971 353 l 2,135,136
 984 344 984 344 980 337 c 0,137,138
 977 330 977 330 973 328 c 2,139,-1
 971 328 l 2,140,141
 969 327 969 327 967 327 c 2,142,-1
 840 327 l 1,0,1
246 781 m 1,143,-1
 301 764 l 2,144,145
 323 758 323 758 330 752 c 0,146,147
 340 747 340 747 337 737 c 0,148,149
 337 731 337 731 330 727 c 2,150,-1
 322 724 l 2,151,152
 313 722 313 722 305 720 c 2,153,-1
 284 717 l 1,154,-1
 267 663 l 2,155,156
 261 642 261 642 238 593 c 0,157,158
 214 540 214 540 209 531 c 2,159,-1
 192 501 l 1,160,-1
 218 491 l 2,161,162
 239 484 239 484 241 475 c 0,163,164
 241 468 241 468 234 462 c 0,165,166
 230 458 230 458 218 453 c 2,167,-1
 200 448 l 1,168,-1
 200 -67 l 1,169,-1
 200 -91 l 2,170,171
 200 -93 200 -93 201 -99 c 0,172,173
 202 -106 202 -106 202 -110 c 0,174,175
 204 -126 204 -126 204 -128 c 2,176,-1
 204 -138 l 2,177,178
 204 -149 204 -149 200 -153 c 0,179,180
 198 -156 198 -156 191 -159 c 0,181,182
 190 -159 190 -159 186 -160.5 c 128,-1,183
 182 -162 182 -162 180 -162 c 0,184,185
 170 -162 170 -162 165 -161 c 0,186,187
 158 -158 158 -158 156 -154 c 2,188,-1
 153 -145 l 1,189,-1
 153 436 l 1,190,191
 146 424 146 424 138 415 c 0,192,193
 126 400 126 400 104 378 c 2,194,-1
 73 347 l 1,195,-1
 51 327 l 1,196,-1
 39 338 l 1,197,-1
 64 368 l 2,198,199
 79 387 79 387 94 408 c 0,200,201
 115 437 115 437 129 466 c 0,202,203
 150 505 150 505 170 551 c 0,204,205
 193 599 193 599 210 648 c 0,206,207
 229 701 229 701 235 732 c 2,208,-1
 246 781 l 1,143,-1
290 476 m 1,209,-1
 339 465 l 2,210,211
 360 461 360 461 372 455 c 0,212,213
 379 452 379 452 381 444 c 0,214,215
 381 438 381 438 369 431 c 2,216,-1
 356 425 l 1,217,-1
 341 419 l 1,218,-1
 341 116 l 1,219,-1
 341 93 l 2,220,221
 341 91 341 91 342 85 c 0,222,223
 343 78 343 78 343 74 c 0,224,225
 345 56 345 56 345 55 c 2,226,-1
 345 46 l 2,227,228
 345 34 345 34 342 31 c 0,229,230
 340 28 340 28 332 24 c 0,231,232
 324 22 324 22 321 21 c 0,233,234
 312 21 312 21 308 22 c 0,235,236
 304 24 304 24 299 28 c 0,237,238
 296 34 296 34 296 44 c 2,239,-1
 296 406 l 2,240,241
 296 425 296 425 295 434 c 0,242,243
 293 452 293 452 292 459 c 2,244,-1
 290 476 l 1,209,-1
883 506 m 1,245,-1
 487 506 l 1,246,247
 466 500 466 500 462 501 c 0,248,249
 456 501 456 501 448 504 c 0,250,251
 442 508 442 508 440 510 c 0,252,253
 438 514 438 514 438 520 c 2,254,-1
 438 646 l 2,255,256
 438 678 438 678 437 694 c 0,257,258
 436 702 436 702 435.5 710.5 c 128,-1,259
 435 719 435 719 435 720 c 2,260,-1
 434 726 l 1,261,-1
 488 714 l 2,262,263
 514 709 514 709 522 704 c 0,264,265
 530 700 530 700 531 692 c 0,266,267
 533 685 533 685 526 680 c 0,268,269
 522 676 522 676 506 671 c 2,270,-1
 486 664 l 1,271,-1
 486 534 l 1,272,-1
 654 534 l 1,273,-1
 654 698 l 1,274,-1
 652 759 l 1,275,-1
 652 771 l 1,276,-1
 650 778 l 1,277,-1
 705 766 l 2,278,279
 730 762 730 762 739 756 c 0,280,281
 746 752 746 752 748 744 c 0,282,283
 748 737 748 737 742 732 c 0,284,285
 739 729 739 729 723 722 c 2,286,-1
 703 715 l 1,287,-1
 704 534 l 1,288,-1
 883 534 l 1,289,-1
 883 646 l 2,290,291
 883 678 883 678 882 694 c 0,292,293
 881 702 881 702 880.5 710.5 c 128,-1,294
 880 719 880 719 880 720 c 2,295,-1
 879 726 l 1,296,-1
 933 714 l 2,297,298
 958 709 958 709 966 704 c 0,299,300
 974 700 974 700 976 692 c 0,301,302
 978 685 978 685 971 681 c 0,303,304
 968 678 968 678 951 671 c 2,305,-1
 932 664 l 1,306,-1
 932 574 l 2,307,308
 932 568 932 568 932.5 557 c 128,-1,309
 933 546 933 546 934 542 c 128,-1,310
 935 538 935 538 935.5 529.5 c 128,-1,311
 936 521 936 521 936 517 c 2,312,-1
 938 494 l 2,313,314
 939 487 939 487 938 483 c 0,315,316
 936 476 936 476 930 473 c 0,317,318
 924 469 924 469 918 468 c 0,319,320
 911 466 911 466 902 467 c 0,321,322
 896 467 896 467 890 469 c 0,323,324
 887 471 887 471 885 474 c 0,325,326
 883 478 883 478 883 483 c 2,327,-1
 883 506 l 1,245,-1
EndSplineSet
EndChar
StartChar: u2A748
Encoding: 173896 173896 35
Width: 1024
Flags: W
LayerCount: 2
Back
Fore
SplineSet
677 16 m 1,0,1
 685 12 685 12 712 -5 c 2,2,-1
 756 -28 l 2,3,4
 782 -40 782 -40 810 -52 c 0,5,6
 854 -68 854 -68 866 -72 c 0,7,8
 896 -80 896 -80 916 -87 c 0,9,10
 936 -91 936 -91 948 -95 c 2,11,-1
 964 -99 l 1,12,-1
 961 -116 l 2,13,14
 959 -116 959 -116 954 -116.5 c 128,-1,15
 949 -117 949 -117 945 -117 c 0,16,17
 936 -117 936 -117 923 -123 c 0,18,19
 911 -128 911 -128 907 -136 c 2,20,-1
 897 -153 l 1,21,-1
 863 -140 l 1,22,-1
 824 -124 l 2,23,24
 805 -115 805 -115 777 -99 c 2,25,-1
 718 -64 l 2,26,27
 707 -57 707 -57 692 -46.5 c 128,-1,28
 677 -36 677 -36 672 -33 c 2,29,-1
 644 -11 l 1,30,-1
 610 -37 l 2,31,32
 594 -49 594 -49 564 -64 c 0,33,34
 536 -79 536 -79 501 -94 c 0,35,36
 474 -105 474 -105 422 -124 c 2,37,-1
 352 -146 l 1,38,-1
 310 -157 l 1,39,-1
 302 -136 l 1,40,-1
 357 -118 l 1,41,-1
 420 -94 l 2,42,43
 457 -79 457 -79 478 -69 c 0,44,45
 491 -63 491 -63 543 -34 c 0,46,47
 582 -12 582 -12 597 1 c 2,48,-1
 613 15 l 1,49,50
 602 26 602 26 589 36 c 0,51,52
 575 52 575 52 559 68 c 0,53,54
 530 105 530 105 522 116 c 0,55,56
 502 142 502 142 483 176 c 128,-1,57
 464 210 464 210 456 227 c 2,58,-1
 448 245 l 1,59,-1
 441 259 l 1,60,61
 435 258 435 258 428 257 c 128,-1,62
 421 256 421 256 420 256 c 2,63,-1
 404 255 l 1,64,-1
 387 296 l 1,65,-1
 400 293 l 2,66,67
 406 293 406 293 431 290 c 0,68,69
 465 288 465 288 500 288 c 2,70,-1
 770 288 l 1,71,-1
 810 323 l 1,72,-1
 864 277 l 2,73,74
 870 271 870 271 872 267 c 0,75,76
 876 262 876 262 875 258 c 0,77,78
 875 254 875 254 870 251 c 2,79,-1
 852 245 l 1,80,-1
 825 239 l 1,81,-1
 797 181 l 2,82,83
 786 157 786 157 773 137 c 0,84,85
 758 113 758 113 734 82 c 0,86,87
 708 48 708 48 700 39 c 2,88,-1
 677 16 l 1,0,1
471 259 m 2,89,90
 472 256 472 256 474.5 252 c 128,-1,91
 477 248 477 248 478 246 c 2,92,-1
 482 237 l 2,93,94
 487 228 487 228 510 190 c 0,95,96
 519 176 519 176 547 138 c 0,97,98
 559 123 559 123 587 91 c 1,99,100
 623 57 623 57 627 54 c 2,101,-1
 642 42 l 1,102,-1
 670 72 l 2,103,104
 683 87 683 87 698 107 c 0,105,106
 714 130 714 130 727 151 c 0,107,108
 736 166 736 166 749 192 c 0,109,110
 757 209 757 209 764 227 c 2,111,-1
 777 259 l 1,112,-1
 471 259 l 2,89,90
402 414 m 1,113,-1
 399 394 l 2,114,115
 398 386 398 386 393 369 c 0,116,117
 390 356 390 356 382 339 c 0,118,119
 378 326 378 326 367 315 c 0,120,121
 361 307 361 307 349 299 c 0,122,123
 337 293 337 293 327 292 c 0,124,125
 317 292 317 292 308 301 c 0,126,127
 302 312 302 312 303 324 c 0,128,129
 304 334 304 334 311 341 c 0,130,131
 316 346 316 346 327 354 c 0,132,133
 339 364 339 364 343 368 c 0,134,135
 349 374 349 374 357 387 c 0,136,137
 362 394 362 394 370 412 c 0,138,139
 376 426 376 426 379 441 c 0,140,141
 380 448 380 448 383 466 c 2,142,-1
 384 498 l 1,143,-1
 401 498 l 1,144,145
 401 493 401 493 401.5 483.5 c 128,-1,146
 402 474 402 474 403 470 c 2,147,-1
 403 453 l 1,148,-1
 403 441 l 1,149,-1
 889 441 l 1,150,-1
 918 473 l 1,151,-1
 969 433 l 2,152,153
 975 430 975 430 978 424 c 0,154,155
 981 420 981 420 981 413 c 0,156,157
 981 408 981 408 963 404 c 2,158,-1
 936 399 l 1,159,-1
 922 381 l 1,160,-1
 889 337 l 1,161,-1
 865 309 l 1,162,-1
 848 319 l 1,163,-1
 867 360 l 2,164,165
 882 391 882 391 883 395 c 2,166,-1
 889 414 l 1,167,-1
 402 414 l 1,113,-1
818 716 m 1,168,-1
 758 700 l 2,169,170
 749 698 749 698 727.5 692.5 c 128,-1,171
 706 687 706 687 694 684 c 0,172,173
 671 680 671 680 614 671 c 0,174,175
 590 669 590 669 514 660 c 0,176,177
 497 659 497 659 470.5 657.5 c 128,-1,178
 444 656 444 656 434 655 c 2,179,-1
 394 653 l 1,180,-1
 392 672 l 1,181,182
 435 677 435 677 438 677 c 2,183,-1
 503 686 l 2,184,185
 567 696 567 696 584 700 c 0,186,187
 625 707 625 707 654 716 c 0,188,189
 692 727 692 727 713 735 c 0,190,191
 748 750 748 750 760 755 c 0,192,193
 783 764 783 764 791 771 c 2,194,-1
 809 784 l 1,195,-1
 859 732 l 2,196,197
 866 725 866 725 865 718 c 0,198,199
 864 714 864 714 859 712 c 0,200,201
 856 710 856 710 842 712 c 2,202,-1
 818 716 l 1,168,-1
402 616 m 1,203,204
 419 606 419 606 423 602 c 0,205,206
 425 601 425 601 444 586 c 0,207,208
 458 576 458 576 470 563 c 0,209,210
 483 550 483 550 491 538 c 0,211,212
 500 524 500 524 501 511 c 0,213,214
 503 495 503 495 497 486 c 0,215,216
 492 474 492 474 478 476 c 0,217,218
 466 476 466 476 460 487 c 0,219,220
 457 494 457 494 451 512 c 0,221,222
 448 525 448 525 441 538 c 0,223,224
 436 548 436 548 424 566 c 0,225,226
 415 579 415 579 406 588 c 2,227,-1
 389 603 l 1,228,-1
 402 616 l 1,203,204
860 674 m 1,229,-1
 927 641 l 2,230,231
 935 636 935 636 938 632 c 0,232,233
 940 628 940 628 940 625 c 128,-1,234
 940 622 940 622 935 617 c 0,235,236
 929 614 929 614 926 614 c 2,237,-1
 896 611 l 1,238,-1
 877 586 l 2,239,240
 869 574 869 574 843 545 c 0,241,242
 821 520 821 520 805 506 c 2,243,-1
 772 477 l 1,244,-1
 758 488 l 1,245,-1
 784 525 l 2,246,247
 785 526 785 526 794.5 540.5 c 128,-1,248
 804 555 804 555 809 564 c 0,249,250
 825 590 825 590 836 614 c 0,251,252
 850 642 850 642 854 653 c 2,253,-1
 860 674 l 1,229,-1
593 633 m 1,254,-1
 619 615 l 2,255,256
 626 611 626 611 639 600 c 0,257,258
 642 598 642 598 659 581 c 0,259,260
 668 573 668 573 675 563 c 0,261,262
 682 556 682 556 687 541 c 0,263,264
 692 525 692 525 690 515 c 0,265,266
 688 504 688 504 680 497 c 0,267,268
 673 490 673 490 662 490 c 0,269,270
 652 490 652 490 644 502 c 0,271,272
 641 511 641 511 638 522 c 0,273,274
 635 538 635 538 631 547 c 0,275,276
 628 559 628 559 618 574 c 0,277,278
 608 592 608 592 601 599 c 2,279,-1
 583 621 l 1,280,-1
 593 633 l 1,254,-1
247 782 m 1,281,-1
 321 753 l 2,282,283
 335 748 335 748 338 739 c 0,284,285
 341 732 341 732 336 727 c 0,286,287
 330 721 330 721 319 720 c 2,288,-1
 289 715 l 1,289,-1
 274 670 l 2,290,291
 272 662 272 662 255 619 c 0,292,293
 244 586 244 586 237 575 c 2,294,-1
 207 514 l 1,295,-1
 253 497 l 2,296,297
 266 493 266 493 266 483 c 0,298,299
 266 474 266 474 255 469 c 2,300,-1
 231 459 l 1,301,-1
 231 -57 l 1,302,-1
 231 -84 l 2,303,304
 231 -97 231 -97 232 -108 c 0,305,306
 232 -112 232 -112 232.5 -120 c 128,-1,307
 233 -128 233 -128 234 -132 c 0,308,309
 235 -138 235 -138 235 -146 c 0,310,311
 235 -152 235 -152 232 -157 c 0,312,313
 229 -160 229 -160 221 -164 c 0,314,315
 211 -168 211 -168 203 -167 c 0,316,317
 198 -167 198 -167 192 -165 c 0,318,319
 188 -162 188 -162 185 -158 c 0,320,321
 182 -149 182 -149 182 -144 c 2,322,-1
 182 472 l 1,323,-1
 158 433 l 1,324,-1
 133 395 l 2,325,326
 126 382 126 382 109 360 c 0,327,328
 85 331 85 331 75 320 c 2,329,-1
 51 294 l 1,330,-1
 38 307 l 1,331,-1
 63 342 l 1,332,-1
 88 379 l 2,333,334
 101 400 101 400 116 428 c 2,335,-1
 146 485 l 2,336,337
 158 508 158 508 173 546 c 2,338,-1
 199 612 l 2,339,340
 213 649 213 649 219 668 c 2,341,-1
 234 720 l 2,342,343
 242 747 242 747 243 759 c 2,344,-1
 247 782 l 1,281,-1
EndSplineSet
EndChar
StartChar: u2A749
Encoding: 173897 173897 36
Width: 1024
Flags: W
LayerCount: 2
Back
Fore
SplineSet
684 430 m 1,0,-1
 711 418 l 2,1,2
 723 414 723 414 741 406 c 0,3,4
 761 401 761 401 782 394 c 0,5,6
 787 393 787 393 804.5 388.5 c 128,-1,7
 822 384 822 384 832 381 c 0,8,9
 859 376 859 376 876 372 c 2,10,-1
 924 367 l 2,11,12
 952 364 952 364 953 364 c 2,13,-1
 966 364 l 1,14,-1
 966 349 l 1,15,16
 952 347 952 347 945 345 c 0,17,18
 938 344 938 344 929 335 c 0,19,20
 923 329 923 329 920 321 c 2,21,-1
 915 309 l 1,22,23
 910 310 910 310 901 311.5 c 128,-1,24
 892 313 892 313 890 313 c 0,25,26
 881 314 881 314 858 322 c 2,27,-1
 805 338 l 1,28,-1
 757 354 l 2,29,30
 752 356 752 356 736 363 c 128,-1,31
 720 370 720 370 711 374 c 0,32,33
 689 384 689 384 675 390 c 2,34,-1
 650 404 l 1,35,-1
 630 392 l 1,36,-1
 602 376 l 2,37,38
 597 373 597 373 540 350 c 0,39,40
 486 331 486 331 449 321 c 0,41,42
 391 307 391 307 362 302 c 2,43,-1
 327 296 l 1,44,-1
 322 313 l 1,45,46
 340 317 340 317 371 325 c 0,47,48
 393 330 393 330 440 345 c 0,49,50
 484 360 484 360 525 378 c 128,-1,51
 566 396 566 396 597 416 c 2,52,-1
 615 428 l 1,53,-1
 599 442 l 1,54,-1
 582 456 l 2,55,56
 578 459 578 459 560 477 c 0,57,58
 540 497 540 497 531 508 c 0,59,60
 526 514 526 514 516.5 526 c 128,-1,61
 507 538 507 538 505 540 c 2,62,-1
 483 571 l 1,63,-1
 499 583 l 1,64,-1
 529 550 l 1,65,-1
 554 524 l 2,66,67
 556 522 556 522 590 492 c 2,68,-1
 621 467 l 1,69,-1
 646 451 l 1,70,71
 664 467 664 467 672 475 c 0,72,73
 684 486 684 486 703 515 c 0,74,75
 723 545 723 545 733 564 c 0,76,77
 743 584 743 584 751 608 c 2,78,-1
 760 632 l 1,79,-1
 491 632 l 1,80,-1
 467 597 l 2,81,82
 458 582 458 582 438 561 c 0,83,84
 426 545 426 545 399 520 c 0,85,86
 393 515 393 515 386 508 c 128,-1,87
 379 501 379 501 374.5 497 c 128,-1,88
 370 493 370 493 367 490 c 2,89,-1
 355 481 l 1,90,-1
 342 495 l 2,91,92
 344 497 344 497 349 502.5 c 128,-1,93
 354 508 354 508 358 512 c 2,94,-1
 380 539 l 2,95,96
 394 556 394 556 411 583 c 0,97,98
 430 612 430 612 443 636 c 128,-1,99
 456 660 456 660 470 695 c 2,100,-1
 492 755 l 1,101,-1
 500 781 l 1,102,-1
 563 752 l 2,103,104
 576 748 576 748 582 742 c 0,105,106
 587 737 587 737 587 732 c 0,107,108
 587 728 587 728 581 723 c 0,109,110
 572 720 572 720 563 718 c 2,111,-1
 539 715 l 1,112,-1
 515 672 l 1,113,-1
 508 660 l 1,114,-1
 823 660 l 1,115,-1
 872 710 l 1,116,-1
 933 657 l 2,117,118
 939 652 939 652 941 648 c 0,119,120
 943 646 943 646 941 640 c 0,121,122
 939 635 939 635 936 633 c 2,123,-1
 934 632 l 2,124,125
 933 632 933 632 931 632 c 2,126,-1
 816 632 l 1,127,-1
 800 592 l 2,128,129
 792 570 792 570 779 547 c 0,130,131
 768 524 768 524 743 493 c 0,132,133
 723 466 723 466 700 444 c 2,134,-1
 684 430 l 1,0,-1
670 207 m 1,135,-1
 867 207 l 1,136,-1
 917 258 l 1,137,-1
 977 204 l 1,138,-1
 983 199 l 2,139,140
 986 194 986 194 985 188 c 0,141,142
 983 183 983 183 979 180 c 0,143,144
 975 178 975 178 972 178 c 2,145,-1
 670 178 l 1,146,-1
 670 -10 l 2,147,148
 670 -26 670 -26 673 -68 c 0,149,150
 674 -108 674 -108 676 -125 c 0,151,152
 678 -145 678 -145 678 -148 c 0,153,154
 678 -152 678 -152 676 -158 c 0,155,156
 675 -162 675 -162 669 -166 c 0,157,158
 660 -169 660 -169 653 -169 c 0,159,160
 641 -169 641 -169 636 -167 c 0,161,162
 632 -166 632 -166 626 -160 c 0,163,164
 622 -154 622 -154 622 -148 c 2,165,-1
 622 178 l 1,166,-1
 438 178 l 2,167,168
 370 178 370 178 349 175 c 2,169,-1
 343 174 l 1,170,-1
 323 218 l 1,171,-1
 338 215 l 2,172,173
 339 215 339 215 349.5 213.5 c 128,-1,174
 360 212 360 212 369 210 c 0,175,176
 414 207 414 207 438 207 c 2,177,-1
 622 207 l 1,178,-1
 622 262 l 2,179,180
 622 297 622 297 621 311 c 0,181,182
 620 319 620 319 619.5 326.5 c 128,-1,183
 619 334 619 334 619 335 c 2,184,-1
 618 342 l 1,185,-1
 673 330 l 2,186,187
 698 326 698 326 706 319 c 0,188,189
 713 316 713 316 715 308 c 0,190,191
 715 301 715 301 709 295 c 0,192,193
 703 290 703 290 691 286 c 2,194,-1
 670 280 l 1,195,-1
 670 207 l 1,135,-1
748 127 m 2,196,197
 751 125 751 125 760.5 118.5 c 128,-1,198
 770 112 770 112 776 108 c 2,199,-1
 797 93 l 2,200,201
 801 92 801 92 832 67 c 2,202,-1
 869 39 l 2,203,204
 882 29 882 29 904 9 c 0,205,206
 918 -2 918 -2 932 -20 c 0,207,208
 945 -35 945 -35 952 -47 c 0,209,210
 960 -57 960 -57 965 -73 c 0,211,212
 970 -85 970 -85 965 -100 c 0,213,214
 964 -108 964 -108 955 -116 c 0,215,216
 947 -122 947 -122 939 -122 c 0,217,218
 926 -122 926 -122 917 -110 c 0,219,220
 912 -103 912 -103 899 -79 c 0,221,222
 892 -60 892 -60 873 -32 c 0,223,224
 853 -1 853 -1 844 8 c 0,225,226
 834 22 834 22 812 43 c 0,227,228
 793 64 793 64 784 71 c 2,229,-1
 747 103 l 1,230,-1
 737 111 l 1,231,-1
 748 127 l 2,196,197
494 135 m 1,232,-1
 548 105 l 2,233,234
 558 100 558 100 563 93 c 0,235,236
 568 88 568 88 566 82 c 0,237,238
 566 80 566 80 561 75 c 0,239,240
 555 72 555 72 550 71 c 2,241,-1
 523 68 l 1,242,-1
 501 37 l 2,243,244
 479 9 479 9 475 4 c 0,245,246
 458 -16 458 -16 435 -38 c 0,247,248
 410 -61 410 -61 385 -82 c 0,249,250
 360 -102 360 -102 338 -117 c 2,251,-1
 314 -133 l 1,252,-1
 303 -118 l 1,253,-1
 330 -96 l 2,254,255
 346 -83 346 -83 363 -64 c 0,256,257
 386 -41 386 -41 402 -21 c 0,258,259
 432 21 432 21 436 26 c 0,260,261
 454 52 454 52 465 73 c 2,262,-1
 486 116 l 1,263,-1
 494 135 l 1,232,-1
249 787 m 1,264,-1
 323 758 l 2,265,266
 337 753 337 753 340 745 c 0,267,268
 343 739 343 739 338 732 c 0,269,270
 334 728 334 728 321 725 c 2,271,-1
 291 721 l 1,272,-1
 275 674 l 1,273,-1
 257 624 l 2,274,275
 247 595 247 595 239 581 c 2,276,-1
 209 520 l 1,277,-1
 255 503 l 2,278,279
 268 499 268 499 268 489 c 0,280,281
 268 480 268 480 257 475 c 2,282,-1
 233 465 l 1,283,-1
 233 -52 l 1,284,-1
 233 -78 l 2,285,286
 233 -91 233 -91 234 -102 c 0,287,288
 234 -106 234 -106 234.5 -114.5 c 128,-1,289
 235 -123 235 -123 236 -127 c 0,290,291
 237 -132 237 -132 237 -140 c 0,292,293
 237 -146 237 -146 234 -151 c 0,294,295
 231 -154 231 -154 223 -158 c 0,296,297
 213 -162 213 -162 205 -162 c 0,298,299
 198 -162 198 -162 194 -159 c 0,300,301
 191 -158 191 -158 187 -152 c 0,302,303
 184 -143 184 -143 184 -139 c 2,304,-1
 184 478 l 1,305,-1
 160 439 l 1,306,-1
 135 400 l 2,307,308
 127 387 127 387 111 366 c 0,309,310
 84 333 84 333 77 325 c 2,311,-1
 53 299 l 1,312,-1
 40 313 l 1,313,-1
 63 345 l 1,314,-1
 89 383 l 2,315,316
 108 414 108 414 118 433 c 2,317,-1
 148 490 l 2,318,319
 162 519 162 519 175 551 c 2,320,-1
 201 618 l 2,321,322
 216 659 216 659 221 674 c 0,323,324
 229 701 229 701 236 726 c 0,325,326
 244 753 244 753 245 765 c 2,327,-1
 249 787 l 1,264,-1
EndSplineSet
EndChar
StartChar: u2A74A
Encoding: 173898 173898 37
Width: 1024
Flags: W
LayerCount: 2
Back
Fore
SplineSet
669 647 m 2,0,1
 662 650 662 650 659 653 c 0,2,3
 658 656 658 656 656 662 c 2,4,-1
 651 684 l 2,5,6
 650 694 650 694 643 706 c 0,7,8
 638 717 638 717 629 729 c 0,9,10
 622 740 622 740 614 748 c 2,11,-1
 594 771 l 1,12,-1
 604 782 l 1,13,-1
 624 770 l 2,14,15
 636 763 636 763 648 753 c 0,16,17
 663 741 663 741 672 732 c 0,18,19
 680 724 680 724 687 713 c 0,20,21
 695 702 695 702 699 688 c 0,22,23
 704 674 704 674 701 664 c 0,24,25
 700 655 700 655 691 650 c 2,26,-1
 685 647 l 1,27,-1
 866 647 l 1,28,-1
 916 697 l 1,29,-1
 976 644 l 2,30,31
 982 638 982 638 983 636 c 0,32,33
 985 634 985 634 984 627 c 0,34,35
 983 623 983 623 978 620 c 0,36,37
 974 618 974 618 971 618 c 2,38,-1
 421 618 l 1,39,-1
 421 402 l 1,40,-1
 421 337 l 2,41,42
 421 312 421 312 419 277 c 0,43,44
 418 233 418 233 414 198 c 0,45,46
 412 167 412 167 407 137 c 0,47,48
 403 108 403 108 393 72 c 0,49,50
 385 41 385 41 371 12 c 0,51,52
 354 -23 354 -23 340 -47 c 0,53,54
 329 -65 329 -65 305 -99 c 0,55,56
 299 -107 299 -107 280 -130 c 2,57,-1
 267 -143 l 1,58,-1
 255 -129 l 1,59,-1
 268 -111 l 2,60,61
 275 -102 275 -102 288 -78 c 0,62,63
 302 -52 302 -52 312 -30 c 128,-1,64
 322 -8 322 -8 333 21 c 0,65,66
 344 56 344 56 350 82 c 0,67,68
 355 101 355 101 361 144 c 0,69,70
 364 167 364 167 368 210 c 0,71,72
 370 256 370 256 370 273 c 2,73,-1
 372 342 l 1,74,-1
 372 401 l 1,75,-1
 372 681 l 1,76,-1
 425 647 l 1,77,-1
 669 647 l 2,0,1
540 299 m 1,78,-1
 540 20 l 1,79,-1
 566 29 l 2,80,81
 584 35 584 35 618 52 c 2,82,-1
 670 76 l 1,83,-1
 696 88 l 1,84,-1
 707 72 l 1,85,-1
 672 45 l 1,86,-1
 621 12 l 1,87,-1
 574 -18 l 1,88,-1
 544 -34 l 2,89,90
 544 -36 544 -36 542 -46 c 0,91,92
 542 -52 542 -52 538 -59 c 0,93,94
 536 -65 536 -65 530 -67 c 0,95,96
 526 -67 526 -67 521 -63 c 0,97,98
 520 -62 520 -62 510 -44 c 2,99,-1
 484 9 l 1,100,-1
 494 11 l 1,101,-1
 494 442 l 1,102,-1
 494 461 l 2,103,104
 496 459 496 459 496 463 c 0,105,106
 497 471 497 471 493 493 c 2,107,-1
 489 520 l 1,108,-1
 538 485 l 1,109,110
 554 489 554 489 612 504 c 0,111,112
 639 511 639 511 676 525 c 0,113,114
 715 537 715 537 753 553 c 0,115,116
 794 570 794 570 810 580 c 2,117,-1
 831 594 l 1,118,-1
 877 559 l 2,119,120
 890 549 890 549 894 543 c 0,121,122
 900 537 900 537 896 531 c 0,123,124
 894 526 894 526 887 523 c 0,125,126
 882 521 882 521 870 523 c 2,127,-1
 841 528 l 1,128,129
 809 521 809 521 789 513 c 0,130,131
 771 508 771 508 770 508 c 2,132,-1
 752 503 l 1,133,-1
 753 446 l 2,134,135
 753 438 753 438 753.5 421.5 c 128,-1,136
 754 405 754 405 755 399 c 0,137,138
 755 384 755 384 758 350 c 2,139,-1
 760 327 l 1,140,-1
 845 327 l 1,141,-1
 892 374 l 1,142,-1
 946 333 l 2,143,144
 954 328 954 328 959 321 c 0,145,146
 963 317 963 317 962 310 c 0,147,148
 960 304 960 304 956 301 c 0,149,150
 952 299 952 299 948 299 c 2,151,-1
 764 299 l 1,152,153
 766 283 766 283 770 267 c 0,154,155
 772 255 772 255 776 234 c 0,156,157
 778 228 778 228 792 184 c 0,158,159
 805 147 805 147 815 128 c 0,160,161
 826 107 826 107 839 85 c 0,162,163
 854 64 854 64 870 47 c 0,164,165
 891 26 891 26 897 30 c 0,166,167
 899 31 899 31 904 38 c 0,168,169
 906 41 906 41 911 60 c 2,170,-1
 936 155 l 1,171,-1
 953 151 l 1,172,-1
 941 39 l 2,173,174
 939 18 939 18 940 10 c 0,175,176
 942 -6 942 -6 945 -12 c 0,177,178
 947 -15 947 -15 949.5 -22 c 128,-1,179
 952 -29 952 -29 953 -32 c 0,180,181
 958 -42 958 -42 958 -49 c 0,182,183
 958 -57 958 -57 953 -62 c 0,184,185
 947 -68 947 -68 932 -65 c 0,186,187
 923 -64 923 -64 905 -54 c 0,188,189
 891 -45 891 -45 876 -34 c 2,190,-1
 851 -11 l 2,191,192
 843 -3 843 -3 823 22 c 0,193,194
 812 36 812 36 792 66 c 0,195,196
 779 87 779 87 765 119 c 0,197,198
 752 148 752 148 741 187 c 0,199,200
 731 223 731 223 726 254 c 2,201,-1
 718 299 l 1,202,-1
 540 299 l 1,78,-1
540 327 m 1,203,-1
 714 327 l 1,204,-1
 711 354 l 2,205,206
 711 358 711 358 710.5 365 c 128,-1,207
 710 372 710 372 709.5 385.5 c 128,-1,208
 709 399 709 399 709 410 c 0,209,210
 709 449 709 449 707 463 c 2,211,-1
 705 493 l 1,212,213
 699 492 699 492 688 489.5 c 128,-1,214
 677 487 677 487 673 486 c 0,215,216
 662 484 662 484 604 474 c 2,217,-1
 540 463 l 1,218,-1
 540 327 l 1,203,-1
774 -93 m 1,219,-1
 813 -47 l 1,220,-1
 872 -96 l 2,221,222
 876 -99 876 -99 879 -103 c 0,223,224
 881 -107 881 -107 879 -113 c 0,225,226
 877 -118 877 -118 874 -120 c 0,227,228
 870 -122 870 -122 866 -122 c 2,229,-1
 578 -122 l 2,230,231
 557 -122 557 -122 546 -123 c 0,232,233
 524 -125 524 -125 523 -125 c 0,234,235
 521 -125 521 -125 518 -126 c 2,236,-1
 516 -126 l 1,237,-1
 503 -128 l 1,238,-1
 484 -85 l 1,239,-1
 510 -88 l 2,240,241
 521 -89 521 -89 530 -91 c 0,242,243
 542 -91 542 -91 553 -92 c 0,244,245
 559 -92 559 -92 567.5 -92.5 c 128,-1,246
 576 -93 576 -93 578 -93 c 2,247,-1
 774 -93 l 1,219,-1
235 784 m 1,248,-1
 309 755 l 2,249,250
 324 751 324 751 327 741 c 0,251,252
 329 733 329 733 325 728 c 0,253,254
 320 724 320 724 307 722 c 2,255,-1
 278 717 l 1,256,-1
 262 672 l 2,257,258
 258 659 258 659 244 622 c 0,259,260
 232 589 232 589 226 577 c 2,261,-1
 195 516 l 1,262,-1
 242 499 l 2,263,264
 256 494 256 494 254 484 c 0,265,266
 254 475 254 475 244 471 c 2,267,-1
 219 461 l 1,268,-1
 219 -55 l 2,269,270
 219 -76 219 -76 220 -82 c 0,271,272
 220 -95 220 -95 221 -106 c 0,273,274
 221 -110 221 -110 221.5 -118.5 c 128,-1,275
 222 -127 222 -127 223 -131 c 0,276,277
 224 -136 224 -136 224 -144 c 0,278,279
 224 -151 224 -151 220 -155 c 0,280,281
 218 -157 218 -157 209 -161 c 0,282,283
 199 -165 199 -165 191 -165 c 128,-1,284
 183 -165 183 -165 180 -163 c 2,285,-1
 173 -156 l 2,286,287
 171 -150 171 -150 171 -142 c 2,288,-1
 171 474 l 1,289,-1
 150 440 l 1,290,-1
 126 402 l 2,291,292
 110 379 110 379 95 359 c 0,293,294
 93 357 93 357 63 321 c 2,295,-1
 40 296 l 1,296,-1
 27 309 l 1,297,-1
 49 340 l 1,298,-1
 75 379 l 1,299,-1
 105 430 l 2,300,301
 124 463 124 463 135 486 c 0,302,303
 150 518 150 518 162 547 c 0,304,305
 164 552 164 552 188 613 c 2,306,-1
 208 671 l 2,307,308
 209 673 209 673 222 721 c 0,309,310
 232 757 232 757 232 761 c 2,311,-1
 235 784 l 1,248,-1
EndSplineSet
EndChar
StartChar: u2A74B
Encoding: 173899 173899 38
Width: 1024
Flags: W
LayerCount: 2
Back
Fore
SplineSet
156 426 m 1,0,-1
 126 378 l 2,1,2
 120 369 120 369 93 329 c 0,3,4
 70 296 70 296 59 285 c 2,5,-1
 42 266 l 1,6,-1
 28 278 l 1,7,8
 33 288 33 288 48 313 c 0,9,10
 65 342 65 342 69 347 c 2,11,-1
 100 412 l 2,12,13
 129 473 129 473 132 479 c 0,14,15
 136 488 136 488 153 535 c 2,16,-1
 180 608 l 2,17,18
 193 648 193 648 197 664 c 0,19,20
 201 679 201 679 209 713 c 0,21,22
 218 750 218 750 220 763 c 2,23,-1
 223 778 l 1,24,-1
 300 748 l 2,25,26
 312 744 312 744 314 735 c 0,27,28
 314 728 314 728 309 724 c 0,29,30
 303 720 303 720 297 719 c 2,31,-1
 268 715 l 1,32,-1
 261 694 l 1,33,-1
 244 638 l 1,34,-1
 222 580 l 1,35,-1
 200 522 l 1,36,-1
 225 510 l 2,37,38
 233 507 233 507 236 502 c 0,39,40
 240 498 240 498 240 493 c 0,41,42
 240 487 240 487 230 480 c 2,43,-1
 211 471 l 1,44,-1
 204 467 l 1,45,-1
 204 -54 l 2,46,47
 204 -67 204 -67 205 -76 c 0,48,49
 205 -91 205 -91 206 -94 c 2,50,-1
 207 -109 l 1,51,-1
 208 -127 l 2,52,53
 210 -138 210 -138 208 -143 c 0,54,55
 208 -148 208 -148 204 -152 c 0,56,57
 203 -156 203 -156 193 -161 c 0,58,59
 183 -165 183 -165 172 -165 c 0,60,61
 166 -165 166 -165 162 -162 c 2,62,-1
 158 -158 l 2,63,64
 156 -154 156 -154 156 -149 c 2,65,-1
 156 426 l 1,0,-1
258 539 m 1,66,67
 268 537 268 537 273 535 c 0,68,69
 277 535 277 535 315 530 c 0,70,71
 361 526 361 526 375 526 c 2,72,-1
 415 526 l 1,73,-1
 415 686 l 2,74,75
 415 724 415 724 414 737 c 0,76,77
 414 745 414 745 414 752 c 2,78,-1
 413 759 l 1,79,-1
 412 766 l 1,80,-1
 471 753 l 2,81,82
 489 750 489 750 498 744 c 0,83,84
 508 740 508 740 508 732 c 0,85,86
 509 726 509 726 502 719 c 0,87,88
 496 714 496 714 484 710 c 2,89,-1
 463 705 l 1,90,-1
 463 526 l 1,91,-1
 495 526 l 1,92,-1
 543 574 l 1,93,-1
 603 527 l 1,94,-1
 612 518 l 2,95,96
 615 513 615 513 614 508 c 0,97,98
 614 506 614 506 610 502 c 0,99,100
 607 499 607 499 603 499 c 2,101,-1
 463 499 l 1,102,-1
 463 444 l 1,103,-1
 498 416 l 2,104,105
 513 404 513 404 533 384 c 0,106,107
 545 372 545 372 571 342 c 0,108,109
 590 320 590 320 597 302 c 0,110,111
 606 283 606 283 602 265 c 0,112,113
 597 248 597 248 586 245 c 0,114,115
 573 243 573 243 565 248 c 128,-1,116
 557 253 557 253 552 261 c 0,117,118
 551 264 551 264 538 296 c 0,119,120
 530 322 530 322 515 345 c 0,121,122
 504 366 504 366 484 389 c 2,123,-1
 463 416 l 1,124,-1
 463 -36 l 2,125,126
 463 -51 463 -51 464 -74 c 0,127,128
 465 -107 465 -107 467 -121 c 0,129,130
 468 -129 468 -129 468 -139 c 0,131,132
 468 -150 468 -150 464 -154 c 0,133,134
 462 -157 462 -157 450 -162 c 0,135,136
 435 -164 435 -164 432 -164 c 0,137,138
 423 -162 423 -162 419 -158 c 0,139,140
 415 -152 415 -152 415 -146 c 2,141,-1
 415 373 l 1,142,-1
 395 318 l 2,143,144
 381 280 381 280 370 257 c 0,145,146
 356 226 356 226 328 176 c 0,147,148
 301 128 301 128 285 109 c 2,149,-1
 258 75 l 1,150,-1
 241 88 l 1,151,-1
 268 133 l 2,152,153
 276 147 276 147 300 196 c 0,154,155
 315 226 315 226 335 282 c 0,156,157
 349 321 349 321 366 381 c 0,158,159
 380 430 380 430 385 457 c 2,160,-1
 392 499 l 1,161,-1
 365 499 l 2,162,163
 323 497 323 497 316 497 c 2,164,-1
 286 496 l 1,165,-1
 274 495 l 1,166,-1
 258 539 l 1,66,67
624 741 m 1,167,-1
 681 696 l 1,168,-1
 882 696 l 1,169,-1
 912 732 l 1,170,-1
 948 707 l 2,171,172
 957 701 957 701 963 695 c 0,173,174
 968 690 968 690 969 685 c 0,175,176
 971 680 971 680 965 673 c 2,177,-1
 950 664 l 1,178,-1
 937 656 l 1,179,-1
 937 14 l 2,180,181
 937 13 937 13 937.5 10 c 128,-1,182
 938 7 938 7 938.5 1 c 128,-1,183
 939 -5 939 -5 939 -11 c 2,184,-1
 941 -48 l 1,185,-1
 942 -75 l 2,186,187
 942 -79 942 -79 942.5 -86.5 c 128,-1,188
 943 -94 943 -94 944 -98 c 2,189,-1
 944 -110 l 2,190,191
 944 -120 944 -120 939 -127 c 0,192,193
 936 -131 936 -131 929 -134 c 0,194,195
 920 -137 920 -137 917 -137 c 0,196,197
 909 -137 909 -137 904 -136 c 0,198,199
 900 -135 900 -135 894 -129 c 0,200,201
 890 -123 890 -123 890 -112 c 2,202,-1
 890 -91 l 1,203,-1
 680 -91 l 1,204,-1
 680 -115 l 2,205,206
 680 -123 680 -123 673 -129 c 0,207,208
 665 -135 665 -135 653 -135 c 0,209,210
 644 -135 644 -135 637 -131 c 0,211,212
 631 -128 631 -128 627 -121 c 0,213,214
 625 -111 625 -111 625 -110 c 0,215,216
 625 -95 625 -95 628 -72 c 0,217,218
 628 -66 628 -66 629 -57 c 2,219,-1
 631 -25 l 1,220,-1
 631 -5 l 1,221,-1
 632 16 l 1,222,-1
 632 673 l 2,223,224
 630 701 630 701 629 714 c 0,225,226
 628 725 628 725 626 734 c 2,227,-1
 624 741 l 1,167,-1
680 -62 m 1,228,-1
 890 -62 l 1,229,-1
 890 168 l 1,230,-1
 680 168 l 1,231,-1
 680 -62 l 1,228,-1
680 197 m 1,232,-1
 890 197 l 1,233,-1
 890 418 l 1,234,-1
 680 418 l 1,235,-1
 680 197 l 1,232,-1
680 447 m 1,236,-1
 890 447 l 1,237,-1
 890 667 l 1,238,-1
 680 667 l 1,239,-1
 680 447 l 1,236,-1
EndSplineSet
EndChar
